<svg width="448" height="294" viewBox="0 0 448 294" fill="none" xmlns="http://www.w3.org/2000/svg">
<g clip-path="url(#clip0_149_1512)">
<path d="M202.328 252.1L184.195 262.575V283.525L202.328 294L220.461 283.525V262.575L202.328 252.1Z" fill="url(#paint0_linear_149_1512)"/>
<g opacity="0.7">
<path d="M184.195 262.575L202.328 273.05L220.461 262.575L202.328 252.1L184.195 262.575Z" fill="url(#paint1_linear_149_1512)"/>
<path d="M220.461 262.575L202.328 273.05V293.941L220.461 283.467V262.575Z" fill="url(#paint2_linear_149_1512)"/>
</g>
<path d="M226.545 268.895C226.545 272.816 223.386 274.221 219.525 272.055L191.273 256.489C187.413 254.324 184.254 249.467 184.254 245.546V226.82C184.254 222.899 187.413 221.495 191.273 223.66L219.525 239.226C223.386 241.391 226.545 246.248 226.545 250.169V268.895Z" fill="url(#paint3_linear_149_1512)"/>
<path d="M198.234 234.486L214.612 252.92L198.234 253.388V234.486Z" fill="white"/>
<path d="M10.0609 129.678C9.70995 129.678 9.35899 129.503 9.18351 129.21C8.89104 128.742 9.06652 128.098 9.53447 127.864L75.5734 89.1832C75.8658 89.0076 76.2753 89.0076 76.5678 89.1832L118.507 113.235C118.975 113.527 119.151 114.112 118.858 114.58C118.566 115.049 117.981 115.224 117.513 114.932L76.0413 91.1728L10.5289 129.503C10.4119 129.62 10.2364 129.678 10.0609 129.678Z" fill="#8815AD"/>
<path d="M285.623 13.9275L263.863 26.5091V51.7308L285.623 64.3124L307.441 51.7308V26.5091L285.623 13.9275Z" fill="url(#paint4_linear_149_1512)"/>
<g opacity="0.7">
<path d="M263.863 26.5091L285.623 39.0907L307.441 26.5091L285.623 13.9275L263.863 26.5091Z" fill="url(#paint5_linear_149_1512)"/>
<path d="M307.441 26.509L285.623 39.0906V64.2539L307.441 51.6723V26.509Z" fill="url(#paint6_linear_149_1512)"/>
</g>
<path d="M297.789 35.1115L273.515 21.0084L276.732 0L294.572 10.4164L297.789 35.1115Z" fill="#C8B2F9"/>
<path d="M291.94 12.1135C291.94 12.8158 291.414 12.9913 290.712 12.6402C290.01 12.2306 289.483 11.3528 289.483 10.7091C289.483 10.0068 290.01 9.83128 290.712 10.1824C291.414 10.5335 291.94 11.4113 291.94 12.1135Z" fill="#392070"/>
<path d="M281.762 6.14453C281.762 6.84676 281.236 7.02232 280.534 6.6712C279.832 6.26157 279.305 5.38378 279.305 4.74007C279.305 4.03784 279.832 3.86228 280.534 4.2134C281.236 4.62303 281.762 5.50082 281.762 6.14453Z" fill="#392070"/>
<path d="M290.77 11.9964C290.419 11.8208 290.185 11.4112 290.185 11.0601V9.48008C290.185 6.96376 288.138 3.80373 285.681 2.34075C283.166 0.87777 281.177 1.75556 281.177 4.21336V5.79337C281.177 6.14449 280.943 6.20301 280.592 6.02745C280.241 5.85189 280.007 5.44226 280.007 5.09115V3.51113C280.007 0.351098 282.581 -0.702246 285.681 1.11185C288.84 2.92594 291.355 6.96376 291.355 10.1238V11.7038C291.355 12.0549 291.063 12.172 290.77 11.9964Z" fill="url(#paint7_linear_149_1512)"/>
<path d="M289.425 22.3543C289.425 21.1839 288.723 19.8965 287.553 18.9602C288.489 19.2528 289.074 18.8432 289.074 17.8484C289.074 16.9121 288.43 15.8002 287.378 14.8639V13.8691C287.553 13.9276 287.67 13.8105 287.67 13.5765C287.67 13.2839 287.436 12.9328 287.144 12.7572C286.851 12.5816 286.617 12.6987 286.617 12.9913C286.617 13.2253 286.734 13.4594 286.91 13.635V14.5128C286.559 14.2202 286.149 13.9276 285.681 13.6935L285.623 13.635V12.8742C285.798 12.9328 285.915 12.8157 285.915 12.5816C285.915 12.289 285.681 11.9379 285.389 11.7624C285.096 11.5868 284.862 11.7038 284.862 11.9964C284.862 12.2305 284.979 12.4646 285.155 12.6402V13.4009L283.809 12.6402V11.8794C283.985 11.9379 284.102 11.8209 284.102 11.5868C284.102 11.2942 283.868 10.9431 283.575 10.7675C283.283 10.592 283.049 10.709 283.049 11.0016C283.049 11.2357 283.166 11.4698 283.341 11.6453V12.4061L282.172 11.7038V20.7158L283.341 21.418V22.2373C283.166 22.1788 283.049 22.2958 283.049 22.5299C283.049 22.8225 283.283 23.1736 283.575 23.3492C283.868 23.5247 284.102 23.4077 284.102 23.1151C284.102 22.881 283.985 22.6469 283.809 22.4714V21.7106L285.155 22.4714V23.2321C284.979 23.1736 284.862 23.2906 284.862 23.5247C284.862 23.8173 285.096 24.1684 285.389 24.344C285.681 24.5195 285.915 24.4025 285.915 24.1099C285.915 23.8758 285.798 23.6417 285.623 23.4662V22.7054L285.857 22.8225C286.266 23.0566 286.617 23.2321 286.91 23.3492V24.2269C286.734 24.1684 286.617 24.2855 286.617 24.5195C286.617 24.8121 286.851 25.1632 287.144 25.3388C287.436 25.5144 287.67 25.3973 287.67 25.1047C287.67 24.8707 287.553 24.6366 287.378 24.461V23.4662C288.723 23.8758 289.425 23.5247 289.425 22.3543ZM284.745 15.5076L286.149 16.3269C286.676 16.6195 286.968 17.0876 286.968 17.4972C286.968 17.9654 286.617 18.0239 286.149 17.7313L284.745 16.912V15.5076ZM284.745 19.721V18.141L286.149 18.9602C286.793 19.3113 287.202 19.838 287.202 20.3062C287.202 20.7743 286.793 20.8328 286.149 20.4817L284.745 19.721Z" fill="url(#paint8_linear_149_1512)"/>
<path d="M110.318 82.9216L85.5171 97.2003V125.816L110.318 140.153L135.119 125.816V97.2003L110.318 82.9216Z" fill="url(#paint9_linear_149_1512)"/>
<g opacity="0.7">
<path d="M85.5757 97.2003L110.318 111.479L135.061 97.2003L110.318 82.9216L85.5757 97.2003Z" fill="url(#paint10_linear_149_1512)"/>
<path d="M135.061 97.2002L110.318 111.479V140.095L135.061 125.816V97.2002Z" fill="url(#paint11_linear_149_1512)"/>
</g>
<path d="M125.643 83.5068C125.643 92.5772 118.273 95.7958 109.207 90.6461C100.14 85.4964 92.7703 73.9682 92.7703 64.8392C92.7703 55.7102 100.14 52.5502 109.207 57.6998C118.332 62.908 125.643 74.4363 125.643 83.5068Z" fill="url(#paint12_linear_149_1512)"/>
<path d="M119.853 99.5995C116.518 99.5995 112.716 98.4291 108.914 96.2639C96.8647 89.4172 87.0378 74.0267 87.0378 61.9717C87.0378 53.8376 91.4833 48.8049 98.6195 48.8049C101.954 48.8049 105.756 49.9753 109.558 52.1405C121.607 58.9873 131.434 74.3778 131.434 86.4327C131.376 94.5669 126.989 99.5995 119.853 99.5995ZM99.2044 51.4383C93.1211 51.4383 89.4946 55.6517 89.4946 62.674C89.4946 73.6756 98.444 87.7201 109.499 93.9817C112.892 95.9128 116.284 96.9662 119.209 96.9662C125.292 96.9662 128.919 92.7528 128.919 85.7305C128.919 74.7289 119.97 60.6843 108.914 54.4228C105.522 52.4331 102.129 51.4383 99.2044 51.4383Z" fill="white"/>
<path d="M112.132 75.4896C113.828 76.2504 114.881 75.6652 114.881 73.9681C114.881 72.2711 113.769 70.2229 111.898 68.2333V66.4777C112.249 66.5947 112.483 66.4192 112.483 66.068C112.483 65.5414 112.073 64.8391 111.547 64.488C111.02 64.1369 110.611 64.254 110.611 64.7221C110.611 65.1317 110.845 65.5999 111.196 66.0095V67.5895C110.552 66.9458 109.792 66.3606 109.031 65.7755L108.856 65.6584V64.3125C109.207 64.4295 109.441 64.254 109.441 63.9028C109.441 63.3762 109.031 62.6739 108.505 62.3228C107.979 61.9717 107.569 62.0887 107.569 62.5569C107.569 62.9665 107.803 63.4347 108.154 63.8443V65.1903L105.814 63.4932V62.0302C106.165 62.1473 106.399 61.9717 106.399 61.6206C106.399 61.0939 105.99 60.3917 105.463 60.0406C104.937 59.6895 104.527 59.8065 104.527 60.2747C104.527 60.6843 104.761 61.1524 105.112 61.5621V62.908L103.007 61.3865V77.3622L105.112 78.8837V80.2882C104.761 80.1712 104.527 80.3467 104.527 80.6978C104.527 81.2245 104.937 81.9267 105.463 82.2778C105.99 82.629 106.399 82.5119 106.399 82.0438C106.399 81.6341 106.165 81.166 105.814 80.7563V79.3519L108.154 81.0489V82.4534C107.803 82.3364 107.569 82.5119 107.569 82.863C107.569 83.3897 107.979 84.0919 108.505 84.443C109.031 84.7942 109.441 84.6771 109.441 84.209C109.441 83.7993 109.207 83.3312 108.856 82.9215V81.5171L109.265 81.8097C109.967 82.3364 110.611 82.746 111.196 83.0386V84.6186C110.845 84.5016 110.611 84.6771 110.611 85.0282C110.611 85.5549 111.02 86.2571 111.547 86.6083C112.073 86.9594 112.483 86.8423 112.483 86.3742C112.483 85.9645 112.249 85.4964 111.898 85.0868V83.3312C114.12 84.326 115.407 83.8579 115.407 81.8097C115.407 79.8786 114.12 77.3622 112.132 75.4896ZM106.399 66.8873L109.675 69.2866C110.845 70.1644 111.605 71.2762 111.605 72.3296C111.605 73.3829 110.845 73.4415 109.675 72.5637L106.399 70.1644V66.8873ZM109.733 79.0593L106.458 76.66V73.1489L109.733 75.5481C111.254 76.66 112.19 78.0059 112.19 79.0593C112.132 80.1712 111.196 80.1712 109.733 79.0593Z" fill="white"/>
<path d="M226.486 140.504C226.135 140.504 225.784 140.329 225.609 140.036C225.316 139.568 225.492 138.924 225.96 138.69L291.998 100.009C292.291 99.8336 292.7 99.8336 292.993 100.009L334.932 124.06C335.4 124.353 335.576 124.938 335.283 125.406C334.991 125.875 334.406 126.05 333.938 125.758L292.466 101.999L226.954 140.387C226.837 140.504 226.661 140.504 226.486 140.504Z" fill="#8815AD"/>
<path d="M328.323 116.629C327.972 116.629 327.621 116.453 327.445 116.102C327.153 115.634 327.328 114.99 327.796 114.756L368.274 91.524L297.789 47.9858C297.321 47.6932 297.146 47.0495 297.438 46.5813C297.731 46.1132 298.374 45.9376 298.842 46.2302L370.73 90.7047C371.023 90.8803 371.198 91.2314 371.198 91.5825C371.198 91.9336 371.023 92.2847 370.672 92.4603L328.732 116.512C328.615 116.57 328.498 116.629 328.323 116.629Z" fill="#8815AD"/>
<path d="M202.796 163.21C202.621 163.21 202.445 163.151 202.27 163.093L125.234 118.911C124.766 118.618 124.591 118.033 124.883 117.565C125.176 117.097 125.761 116.921 126.229 117.214L203.264 161.396C203.732 161.688 203.908 162.274 203.615 162.742C203.44 163.034 203.089 163.21 202.796 163.21Z" fill="#8815AD"/>
<path d="M211.863 106.622L165.419 133.424V187.086L211.863 213.946L258.306 187.086V133.424L211.863 106.622Z" fill="url(#paint13_linear_149_1512)"/>
<g opacity="0.7">
<path d="M165.478 133.424L211.863 160.225L258.306 133.424L211.863 106.622L165.478 133.424Z" fill="url(#paint14_linear_149_1512)"/>
<path d="M258.306 133.424L211.863 160.225V213.829L258.306 187.027V133.424Z" fill="url(#paint15_linear_149_1512)"/>
</g>
<path d="M310.716 222.256C310.541 222.256 310.365 222.197 310.19 222.139L233.856 177.489C233.388 177.196 233.213 176.611 233.505 176.143C233.798 175.674 234.383 175.499 234.851 175.791L311.184 220.442C311.652 220.734 311.828 221.319 311.535 221.788C311.418 222.08 311.067 222.256 310.716 222.256Z" fill="#8815AD"/>
<path d="M85.4003 237.997C85.0493 237.997 84.6983 237.822 84.5229 237.529C84.2304 237.061 84.4059 236.417 84.8738 236.183L188.231 175.557C188.699 175.265 189.343 175.44 189.577 175.908C189.869 176.377 189.694 177.02 189.226 177.254L85.9267 237.88C85.7512 237.939 85.5757 237.997 85.4003 237.997Z" fill="#8815AD"/>
<path d="M336.57 89.2417L304.75 107.617V144.367L336.57 162.742L368.391 144.367V107.617L336.57 89.2417Z" fill="url(#paint16_linear_149_1512)"/>
<g opacity="0.7">
<path d="M304.808 107.617L336.57 125.933L368.391 107.617L336.57 89.2417L304.808 107.617Z" fill="url(#paint17_linear_149_1512)"/>
<path d="M368.391 107.617L336.57 125.933V162.683L368.391 144.308V107.617Z" fill="url(#paint18_linear_149_1512)"/>
</g>
<path d="M356.341 117.214C356.341 119.73 354.294 120.608 351.779 119.086L322.707 102.116C320.192 100.653 318.145 97.3759 318.145 94.801V74.729C318.145 72.2127 320.192 71.3349 322.707 72.8564L351.779 89.8269C354.294 91.2899 356.341 94.567 356.341 97.1418V117.214Z" fill="#3E1E96"/>
<path d="M318.086 88.5979V94.2743C318.086 94.3913 318.086 94.5669 318.086 94.6839L356.283 116.98C356.283 116.863 356.283 116.746 356.283 116.629V110.952L318.086 88.5979Z" fill="#651387"/>
<path d="M350.901 101.823C350.901 104.164 348.971 104.983 346.631 103.579C344.291 102.175 342.361 99.19 342.361 96.7907C342.361 94.45 344.291 93.6307 346.631 95.0352C348.971 96.4396 350.901 99.4826 350.901 101.823Z" fill="#392070"/>
<path d="M344.935 98.3122C344.935 100.653 343.005 101.472 340.665 100.068C338.325 98.6633 336.395 95.6788 336.395 93.2795C336.395 90.9388 338.325 90.1195 340.665 91.5239C343.063 92.9284 344.935 95.9714 344.935 98.3122Z" fill="url(#paint19_linear_149_1512)"/>
<path d="M318.086 196.624L291.823 211.839V242.211L318.086 257.367L344.408 242.211V211.839L318.086 196.624Z" fill="url(#paint20_linear_149_1512)"/>
<g opacity="0.7">
<path d="M291.823 211.781L318.086 226.996L344.35 211.781L318.086 196.624L291.823 211.781Z" fill="url(#paint21_linear_149_1512)"/>
<path d="M344.35 211.781L318.086 226.996V257.309L344.35 242.152V211.781Z" fill="url(#paint22_linear_149_1512)"/>
</g>
<path d="M334.464 202.535C334.464 211.547 327.153 214.707 318.145 209.616C309.137 204.466 301.825 192.996 301.825 183.984C301.825 174.972 309.137 171.812 318.145 176.903C327.153 182.053 334.464 193.523 334.464 202.535Z" fill="#6F42C1"/>
<path d="M328.03 217.106C324.93 217.106 321.362 216.053 317.794 214.004C306.505 207.567 297.321 193.172 297.321 181.819C297.321 174.211 301.474 169.471 308.143 169.471C311.243 169.471 314.811 170.525 318.379 172.573C329.668 179.01 338.852 193.406 338.852 204.758C338.91 212.366 334.757 217.106 328.03 217.106ZM308.143 170.642C302.118 170.642 298.491 174.797 298.491 181.819C298.491 192.762 307.382 206.69 318.379 212.951C321.771 214.882 325.106 215.877 328.03 215.877C334.055 215.877 337.682 211.722 337.682 204.7C337.682 193.757 328.791 179.829 317.794 173.568C314.401 171.695 311.067 170.642 308.143 170.642Z" fill="#6F42C1"/>
<path d="M325.925 193.991L319.783 184.394C318.847 182.931 317.326 182.112 316.449 182.463L310.307 185.096C309.43 185.506 309.371 186.852 310.19 188.256V193.991C310.19 196.273 312.003 199.141 314.284 200.428L322.006 204.817C324.287 206.104 326.1 205.285 326.1 203.061V197.327C326.861 196.8 326.802 195.395 325.925 193.991Z" fill="url(#paint23_linear_149_1512)"/>
<path d="M320.719 195.396C320.719 193.933 319.549 192.06 318.087 191.241C316.624 190.421 315.454 190.948 315.454 192.411C315.454 193.406 315.981 194.518 316.8 195.454V196.449C316.8 197.151 317.385 198.087 318.145 198.497C318.847 198.907 319.49 198.673 319.49 197.912V196.917C320.192 196.917 320.719 196.39 320.719 195.396Z" fill="white"/>
<path d="M87.0964 205.168L63.7576 218.627V245.605L87.0964 259.123L110.435 245.605V218.627L87.0964 205.168Z" fill="url(#paint24_linear_149_1512)"/>
<g opacity="0.7">
<path d="M63.8162 218.627L87.0965 232.087L110.435 218.627L87.0965 205.168L63.8162 218.627Z" fill="url(#paint25_linear_149_1512)"/>
<path d="M110.435 218.627L87.0964 232.087V259.064L110.435 245.605V218.627Z" fill="url(#paint26_linear_149_1512)"/>
</g>
<path d="M100.667 213.419C100.667 221.378 94.2327 224.128 86.2191 219.564C78.264 214.999 71.7712 204.817 71.7712 196.858C71.7712 188.9 78.2055 186.149 86.2191 190.714C94.2327 195.278 100.667 205.461 100.667 213.419Z" fill="url(#paint27_linear_149_1512)"/>
<path d="M86.3947 215.935L76.0999 200.545L81.0718 197.97L86.1607 205.636L105.113 197.385L110.318 205.577L86.3947 215.935Z" fill="#C8B2F9"/>
<path d="M24.3332 95.7373L0 109.782V137.871L24.3332 151.974L48.6664 137.871V109.782L24.3332 95.7373Z" fill="url(#paint28_linear_149_1512)"/>
<g opacity="0.7">
<path d="M0 109.782L24.3332 123.826L48.6664 109.782L24.3332 95.7373L0 109.782Z" fill="url(#paint29_linear_149_1512)"/>
<path d="M48.6665 109.782L24.3333 123.827V151.916L48.6665 137.871V109.782Z" fill="url(#paint30_linear_149_1512)"/>
</g>
<path d="M2.63208 67.1799V97.9025L47.9059 124.236V93.5135L2.63208 67.1799ZM45.3322 120.081L5.26428 96.7906V71.3933L45.3322 94.6839V120.081Z" fill="#3E1E96"/>
<path d="M43.9283 95.269L6.60962 73.6169V91.1727L15.2081 87.603L24.3916 102.174L30.4749 99.5994L40.8867 116.043L43.9283 117.857V95.269Z" fill="url(#paint31_linear_149_1512)"/>
<path d="M24.3916 102.174L28.7201 108.962L40.8867 116.043L30.4749 99.5994L24.3916 102.174Z" fill="white"/>
<path d="M24.3916 102.174L15.2081 87.603L6.60962 91.1727V96.1468L20.0631 103.93L28.7201 108.963L24.3916 102.174Z" fill="white"/>
<path d="M181.388 286.217C181.212 286.217 181.037 286.158 180.861 286.1L99.8479 239.753C99.38 239.46 99.2045 238.875 99.497 238.407C99.7895 237.939 100.374 237.763 100.842 238.056L181.388 284.11L191.273 278.317C191.741 278.024 192.384 278.2 192.618 278.668C192.911 279.136 192.735 279.78 192.267 280.014L181.914 286.041C181.739 286.158 181.563 286.217 181.388 286.217Z" fill="#8815AD"/>
<path d="M424.427 181.117C424.252 181.117 424.076 181.058 423.901 180.941L352.012 136.466C351.545 136.174 351.369 135.53 351.662 135.062C351.954 134.594 352.597 134.418 353.065 134.711L424.954 179.185C425.422 179.478 425.597 180.122 425.305 180.59C425.071 180.941 424.72 181.117 424.427 181.117Z" fill="#8815AD"/>
<path opacity="0.3" d="M223.269 151.857L185.658 130.088L196.713 123.709L234.324 145.42L223.269 151.857Z" fill="black"/>
<path d="M193.203 94.6837L190.922 95.9712V93.2208L193.203 91.9333V94.6837Z" fill="#392070"/>
<path d="M234.032 144.601L230.697 146.532L229.703 115.634L234.032 114.171V144.601Z" fill="#392070"/>
<path d="M234.032 114.171L230.697 116.102L225.959 112.474L231.926 110.542L234.032 114.171Z" fill="#3E1E96"/>
<path d="M194.198 92.2261H192.852V97.9609H194.198V92.2261Z" fill="#392070"/>
<path d="M228.592 112.474L215.665 103.462L193.905 92.4016V127.689L228.592 147.702L230.698 146.532V116.102L228.592 112.474Z" fill="#3E1E96"/>
<path d="M192.852 92.4016H193.905L228.592 112.474L231.926 110.543L195.894 89.7097H190.922L192.852 92.4016Z" fill="#C8B2F9"/>
<path d="M228.183 147.936L224.848 149.867V119.437L228.183 117.506V147.936Z" fill="#392070"/>
<path d="M228.182 117.506L224.848 119.437L220.11 115.809L226.135 113.878L228.182 117.506Z" fill="#3E1E96"/>
<path d="M222.743 115.809L209.874 106.856L186.711 94.9763V130.263L222.743 151.096L224.848 149.867V119.437L222.743 115.809Z" fill="#6F42C1"/>
<path d="M190.922 89.7097L186.711 92.109V94.9764L222.743 115.809L226.135 113.878L191.39 93.8646V93.2794L192.852 92.4016L192.618 90.9971L190.922 89.7097Z" fill="#C8B2F9"/>
<path d="M204.2 125.933H201.1V133.307H204.2V125.933Z" fill="black"/>
<path d="M209.055 127.338L207.359 134.009L209.055 140.27L211.102 139.041V126.109L209.113 126.752L209.055 127.338Z" fill="#481E5E"/>
<path d="M208.47 126.343L208.528 127.455L209.055 127.337L211.102 126.109L210.576 125.114L208.47 126.343Z" fill="#C8B2F9"/>
<path d="M194.607 118.326L200.34 124.704L208.47 126.343L210.576 125.114L196.713 117.097L194.607 118.326Z" fill="#C8B2F9"/>
<path d="M194.607 118.326L194.022 118.677V131.61L194.607 132.604L208.47 140.621L209.055 140.27V127.338L208.47 126.343L194.607 118.326ZM201.86 132.253L202.153 131.317L202.211 132.136L201.86 132.253ZM202.855 129.62L202.211 129.971L201.509 129.093L200.924 127.221L201.509 126.694L202.094 127.045L202.855 128.391V129.62Z" fill="#8815AD"/>
<path d="M202.328 128.625L201.509 127.279V126.635L200.983 126.343L200.222 126.811V128.04L200.983 129.386L200.807 132.838L202.27 133.716L202.211 132.136L202.094 132.078L202.153 131.317L202.094 130.029L202.211 129.971L202.328 128.625Z" fill="#481E5E"/>
<path d="M207.593 124.295L208.412 125.523L209.816 124.704V115.751L207.593 116.043V124.295Z" fill="#481E5E"/>
<path d="M196.479 117.916L197.298 119.086L198.702 118.267V109.313L196.479 109.431V117.916Z" fill="#481E5E"/>
<path d="M199.579 107.148L196.479 109.431L197.941 109.782L200.749 108.845L204.785 111.128L206.13 109.372L200.983 106.329L199.579 107.148Z" fill="#C8B2F9"/>
<path d="M204.785 110.191V111.128L207.593 116.043L208.411 116.511L209.815 115.751L206.13 109.372L204.785 110.191Z" fill="#C8B2F9"/>
<path d="M199.579 107.148L195.894 109.255V118.267L197.298 119.086V110.835L200.164 109.197L204.142 111.479L207.008 116.394V124.646L208.412 125.523V116.511L204.785 110.191L199.579 107.148Z" fill="#8815AD"/>
<path d="M235.787 132.429L234.032 131.375V133.423L224.848 138.69L218.18 134.828L216.425 135.881L216.893 136.876L222.918 140.27L226.72 140.212L235.085 135.296L235.787 134.418V132.429Z" fill="#C8B2F9"/>
<path d="M226.603 139.685H223.093L222.801 142.787L223.093 148.112H226.603L227.13 142.201L226.603 139.685Z" fill="#3E1E96"/>
<path d="M223.094 139.685L216.425 135.881L215.138 136.583V142.026L216.425 144.249L223.094 148.112V139.685Z" fill="#6F42C1"/>
<path d="M221.339 141.792V143.898L220.461 144.366L219.935 142.26L221.339 141.792Z" fill="#A1B4BF"/>
<path d="M220.052 139.568L218.239 138.573L217.42 139.041L218.999 140.504L220.052 139.568Z" fill="#E8F3FF"/>
<path d="M220.052 139.568L221.339 141.792L220.461 142.26L219.467 141.499L219.175 140.095L220.052 139.568Z" fill="#B4CED6"/>
<path d="M216.133 139.802V141.85L217.42 144.074L219.233 145.127L220.52 144.366V142.318L219.233 140.095L217.42 139.041L216.133 139.802Z" fill="#C8DFE8"/>
<path d="M226.603 139.685L235.786 134.418V142.845L226.603 148.112V139.685Z" fill="#392070"/>
<path d="M235.787 115.692L234.032 114.697V116.687L224.848 122.012L218.18 118.15L216.425 119.145L216.893 120.14L222.918 123.592L226.72 123.534L235.085 118.618L235.787 117.74V115.692Z" fill="#C8B2F9"/>
<path d="M226.603 123.007H223.093L222.801 126.109L223.093 131.434H226.603L227.13 125.465L226.603 123.007Z" fill="#3E1E96"/>
<path d="M223.094 123.007L216.425 119.145L215.138 119.906V125.348L216.425 127.572L223.094 131.434V123.007Z" fill="#6F42C1"/>
<path d="M221.339 125.114V127.162L220.461 127.689L219.935 125.582L221.339 125.114Z" fill="#A1B4BF"/>
<path d="M220.052 122.89L218.239 121.837L217.42 122.363L218.999 123.826L220.052 122.89Z" fill="#E8F3FF"/>
<path d="M220.052 122.89L221.339 125.114L220.461 125.582L219.467 124.763L219.175 123.417L220.052 122.89Z" fill="#B4CED6"/>
<path d="M216.133 123.066V125.172L217.42 127.396L219.233 128.449L220.52 127.689V125.64L219.233 123.417L217.42 122.363L216.133 123.066Z" fill="#C8DFE8"/>
<path d="M226.603 123.007L235.786 117.74V126.108L226.603 131.434V123.007Z" fill="#392070"/>
<path d="M211.863 45.996L153.72 12.406V191.299L211.863 224.889V45.996Z" fill="url(#paint32_linear_149_1512)"/>
<path d="M270.063 12.406L211.863 45.996V224.889L270.063 191.299V12.406Z" fill="url(#paint33_linear_149_1512)"/>
<path d="M420.45 152.442L396.116 166.545V194.635L420.45 208.679L444.783 194.635V166.545L420.45 152.442Z" fill="url(#paint34_linear_149_1512)"/>
<g opacity="0.7">
<path d="M396.116 166.487L420.45 180.532L444.783 166.487L420.45 152.442L396.116 166.487Z" fill="url(#paint35_linear_149_1512)"/>
<path d="M444.783 166.487L420.45 180.532V208.679L444.783 194.635V166.487Z" fill="url(#paint36_linear_149_1512)"/>
</g>
<path d="M441.332 180.473L401.615 157.826C400.211 157.007 399.333 155.544 399.333 153.964V125.29C399.333 121.837 403.019 119.672 406.002 121.427L445.719 144.074C447.122 144.893 448 146.356 448 147.936V176.611C448 180.005 444.315 182.17 441.332 180.473Z" fill="url(#paint37_linear_149_1512)"/>
<path d="M407.523 154.198C407.347 154.081 407.172 153.964 407.055 153.788C406.645 153.32 406.528 152.735 406.821 152.442L417.35 142.26C417.525 142.143 417.759 142.143 418.052 142.26C418.344 142.377 418.578 142.67 418.754 142.962L427.001 157.826L436.886 148.287C437.12 148.053 437.705 148.229 438.056 148.697C438.466 149.165 438.583 149.75 438.29 150.043L427.761 160.225C427.586 160.342 427.352 160.342 427.06 160.225C426.767 160.108 426.533 159.816 426.358 159.523L418.11 144.659L408.225 154.198C408.049 154.373 407.815 154.373 407.523 154.198Z" fill="white"/>
<path d="M429.75 160.928C429.75 162.449 428.522 162.917 427.06 162.098C425.539 161.22 424.369 159.348 424.369 157.826C424.369 156.305 425.597 155.836 427.06 156.656C428.522 157.534 429.75 159.465 429.75 160.928Z" fill="white"/>
<path d="M420.625 144.835C420.625 146.356 419.397 146.825 417.935 146.005C416.414 145.127 415.244 143.255 415.244 141.733C415.244 140.212 416.472 139.744 417.935 140.563C419.397 141.441 420.625 143.313 420.625 144.835Z" fill="white"/>
<path d="M417.934 148.463C415.068 146.824 412.729 143.138 412.729 140.27C412.729 137.403 415.068 136.408 417.934 138.047C420.801 139.685 423.14 143.372 423.14 146.239C423.14 149.107 420.801 150.102 417.934 148.463ZM417.934 138.398C415.244 136.876 413.079 137.813 413.079 140.504C413.079 143.196 415.244 146.59 417.934 148.17C420.625 149.692 422.789 148.756 422.789 146.064C422.789 143.372 420.625 139.919 417.934 138.398Z" fill="white"/>
<path d="M440.279 150.979C440.279 152.501 439.051 152.969 437.588 152.15C436.068 151.272 434.898 149.399 434.898 147.878C434.898 146.356 436.126 145.888 437.588 146.707C439.051 147.585 440.279 149.458 440.279 150.979Z" fill="white"/>
<path d="M437.588 154.373C434.839 152.793 432.616 149.341 432.616 146.59C432.616 143.84 434.839 142.904 437.588 144.484C440.338 146.064 442.56 149.516 442.56 152.267C442.502 155.017 440.279 155.953 437.588 154.373ZM437.588 144.835C435.015 143.372 432.967 144.25 432.967 146.824C432.967 149.399 435.015 152.618 437.588 154.081C440.162 155.544 442.209 154.666 442.209 152.091C442.151 149.516 440.104 146.239 437.588 144.835Z" fill="white"/>
<path d="M410.213 154.9C410.213 156.422 408.985 156.89 407.523 156.07C406.002 155.193 404.832 153.32 404.832 151.799C404.832 150.277 406.06 149.809 407.523 150.628C408.985 151.506 410.213 153.379 410.213 154.9Z" fill="white"/>
</g>
<defs>
<linearGradient id="paint0_linear_149_1512" x1="184.196" y1="273.049" x2="220.45" y2="273.049" gradientUnits="userSpaceOnUse">
<stop stop-color="#8815AD"/>
<stop offset="0.273" stop-color="#A140C1"/>
<stop offset="1" stop-color="#E1AEF4"/>
</linearGradient>
<linearGradient id="paint1_linear_149_1512" x1="184.212" y1="262.569" x2="220.435" y2="262.569" gradientUnits="userSpaceOnUse">
<stop stop-color="#E1AEF4"/>
<stop offset="0.727" stop-color="#A140C1"/>
<stop offset="1" stop-color="#8815AD"/>
</linearGradient>
<linearGradient id="paint2_linear_149_1512" x1="202.323" y1="278.26" x2="220.435" y2="278.26" gradientUnits="userSpaceOnUse">
<stop stop-color="#E1AEF4"/>
<stop offset="0.727" stop-color="#A140C1"/>
<stop offset="1" stop-color="#8815AD"/>
</linearGradient>
<linearGradient id="paint3_linear_149_1512" x1="184.196" y1="236.16" x2="226.535" y2="236.16" gradientUnits="userSpaceOnUse">
<stop stop-color="#EF5A29"/>
<stop offset="1" stop-color="#F9AE41"/>
</linearGradient>
<linearGradient id="paint4_linear_149_1512" x1="263.843" y1="39.1289" x2="307.438" y2="39.1289" gradientUnits="userSpaceOnUse">
<stop stop-color="#8815AD"/>
<stop offset="0.273" stop-color="#A140C1"/>
<stop offset="1" stop-color="#E1AEF4"/>
</linearGradient>
<linearGradient id="paint5_linear_149_1512" x1="263.862" y1="26.5264" x2="307.418" y2="26.5264" gradientUnits="userSpaceOnUse">
<stop stop-color="#E1AEF4"/>
<stop offset="0.727" stop-color="#A140C1"/>
<stop offset="1" stop-color="#8815AD"/>
</linearGradient>
<linearGradient id="paint6_linear_149_1512" x1="285.64" y1="45.3947" x2="307.418" y2="45.3947" gradientUnits="userSpaceOnUse">
<stop stop-color="#E1AEF4"/>
<stop offset="0.727" stop-color="#A140C1"/>
<stop offset="1" stop-color="#8815AD"/>
</linearGradient>
<linearGradient id="paint7_linear_149_1512" x1="279.953" y1="1.76878" x2="291.328" y2="1.76878" gradientUnits="userSpaceOnUse">
<stop stop-color="#4E0367"/>
<stop offset="1" stop-color="#0B1654"/>
</linearGradient>
<linearGradient id="paint8_linear_149_1512" x1="282.437" y1="16.2705" x2="289.454" y2="16.2705" gradientUnits="userSpaceOnUse">
<stop stop-color="#4E0367"/>
<stop offset="1" stop-color="#0B1654"/>
</linearGradient>
<linearGradient id="paint9_linear_149_1512" x1="85.5398" y1="111.521" x2="135.091" y2="111.521" gradientUnits="userSpaceOnUse">
<stop stop-color="#8815AD"/>
<stop offset="0.273" stop-color="#A140C1"/>
<stop offset="1" stop-color="#E1AEF4"/>
</linearGradient>
<linearGradient id="paint10_linear_149_1512" x1="85.5611" y1="97.1969" x2="135.069" y2="97.1969" gradientUnits="userSpaceOnUse">
<stop stop-color="#E1AEF4"/>
<stop offset="0.727" stop-color="#A140C1"/>
<stop offset="1" stop-color="#8815AD"/>
</linearGradient>
<linearGradient id="paint11_linear_149_1512" x1="110.316" y1="118.643" x2="135.069" y2="118.643" gradientUnits="userSpaceOnUse">
<stop stop-color="#E1AEF4"/>
<stop offset="0.727" stop-color="#A140C1"/>
<stop offset="1" stop-color="#8815AD"/>
</linearGradient>
<linearGradient id="paint12_linear_149_1512" x1="92.7872" y1="74.1839" x2="125.668" y2="74.1839" gradientUnits="userSpaceOnUse">
<stop stop-color="#EF5A29"/>
<stop offset="1" stop-color="#F9AE41"/>
</linearGradient>
<linearGradient id="paint13_linear_149_1512" x1="165.418" y1="160.281" x2="258.323" y2="160.281" gradientUnits="userSpaceOnUse">
<stop stop-color="#8815AD"/>
<stop offset="0.273" stop-color="#A140C1"/>
<stop offset="1" stop-color="#E1AEF4"/>
</linearGradient>
<linearGradient id="paint14_linear_149_1512" x1="165.458" y1="133.424" x2="258.281" y2="133.424" gradientUnits="userSpaceOnUse">
<stop stop-color="#E1AEF4"/>
<stop offset="0.727" stop-color="#A140C1"/>
<stop offset="1" stop-color="#8815AD"/>
</linearGradient>
<linearGradient id="paint15_linear_149_1512" x1="211.87" y1="173.634" x2="258.281" y2="173.634" gradientUnits="userSpaceOnUse">
<stop stop-color="#E1AEF4"/>
<stop offset="0.727" stop-color="#A140C1"/>
<stop offset="1" stop-color="#8815AD"/>
</linearGradient>
<linearGradient id="paint16_linear_149_1512" x1="304.772" y1="125.991" x2="368.419" y2="125.991" gradientUnits="userSpaceOnUse">
<stop stop-color="#8815AD"/>
<stop offset="0.273" stop-color="#A140C1"/>
<stop offset="1" stop-color="#E1AEF4"/>
</linearGradient>
<linearGradient id="paint17_linear_149_1512" x1="304.799" y1="107.591" x2="368.391" y2="107.591" gradientUnits="userSpaceOnUse">
<stop stop-color="#E1AEF4"/>
<stop offset="0.727" stop-color="#A140C1"/>
<stop offset="1" stop-color="#8815AD"/>
</linearGradient>
<linearGradient id="paint18_linear_149_1512" x1="336.596" y1="135.138" x2="368.391" y2="135.138" gradientUnits="userSpaceOnUse">
<stop stop-color="#E1AEF4"/>
<stop offset="0.727" stop-color="#A140C1"/>
<stop offset="1" stop-color="#8815AD"/>
</linearGradient>
<linearGradient id="paint19_linear_149_1512" x1="336.428" y1="93.3144" x2="344.959" y2="93.3144" gradientUnits="userSpaceOnUse">
<stop stop-color="#8815AD"/>
<stop offset="0.273" stop-color="#A140C1"/>
<stop offset="1" stop-color="#E1AEF4"/>
</linearGradient>
<linearGradient id="paint20_linear_149_1512" x1="291.809" y1="227.006" x2="344.397" y2="227.006" gradientUnits="userSpaceOnUse">
<stop stop-color="#8815AD"/>
<stop offset="0.273" stop-color="#A140C1"/>
<stop offset="1" stop-color="#E1AEF4"/>
</linearGradient>
<linearGradient id="paint21_linear_149_1512" x1="291.831" y1="211.804" x2="344.373" y2="211.804" gradientUnits="userSpaceOnUse">
<stop stop-color="#E1AEF4"/>
<stop offset="0.727" stop-color="#A140C1"/>
<stop offset="1" stop-color="#8815AD"/>
</linearGradient>
<linearGradient id="paint22_linear_149_1512" x1="318.103" y1="234.564" x2="344.373" y2="234.564" gradientUnits="userSpaceOnUse">
<stop stop-color="#E1AEF4"/>
<stop offset="0.727" stop-color="#A140C1"/>
<stop offset="1" stop-color="#8815AD"/>
</linearGradient>
<linearGradient id="paint23_linear_149_1512" x1="309.596" y1="193.883" x2="326.609" y2="193.883" gradientUnits="userSpaceOnUse">
<stop stop-color="#4E0367"/>
<stop offset="1" stop-color="#0B1654"/>
</linearGradient>
<linearGradient id="paint24_linear_149_1512" x1="63.7716" y1="232.132" x2="110.45" y2="232.132" gradientUnits="userSpaceOnUse">
<stop stop-color="#8815AD"/>
<stop offset="0.273" stop-color="#A140C1"/>
<stop offset="1" stop-color="#E1AEF4"/>
</linearGradient>
<linearGradient id="paint25_linear_149_1512" x1="63.7916" y1="218.638" x2="110.43" y2="218.638" gradientUnits="userSpaceOnUse">
<stop stop-color="#E1AEF4"/>
<stop offset="0.727" stop-color="#A140C1"/>
<stop offset="1" stop-color="#8815AD"/>
</linearGradient>
<linearGradient id="paint26_linear_149_1512" x1="87.111" y1="238.841" x2="110.429" y2="238.841" gradientUnits="userSpaceOnUse">
<stop stop-color="#E1AEF4"/>
<stop offset="0.727" stop-color="#A140C1"/>
<stop offset="1" stop-color="#8815AD"/>
</linearGradient>
<linearGradient id="paint27_linear_149_1512" x1="71.8187" y1="196.895" x2="100.68" y2="196.895" gradientUnits="userSpaceOnUse">
<stop stop-color="#4E0367"/>
<stop offset="1" stop-color="#0B1654"/>
</linearGradient>
<linearGradient id="paint28_linear_149_1512" x1="0" y1="123.831" x2="48.6827" y2="123.831" gradientUnits="userSpaceOnUse">
<stop stop-color="#8815AD"/>
<stop offset="0.273" stop-color="#A140C1"/>
<stop offset="1" stop-color="#E1AEF4"/>
</linearGradient>
<linearGradient id="paint29_linear_149_1512" x1="0.0209211" y1="109.758" x2="48.6608" y2="109.758" gradientUnits="userSpaceOnUse">
<stop stop-color="#E1AEF4"/>
<stop offset="0.727" stop-color="#A140C1"/>
<stop offset="1" stop-color="#8815AD"/>
</linearGradient>
<linearGradient id="paint30_linear_149_1512" x1="24.3414" y1="130.828" x2="48.6608" y2="130.828" gradientUnits="userSpaceOnUse">
<stop stop-color="#E1AEF4"/>
<stop offset="0.727" stop-color="#A140C1"/>
<stop offset="1" stop-color="#8815AD"/>
</linearGradient>
<linearGradient id="paint31_linear_149_1512" x1="6.63038" y1="84.8621" x2="43.9463" y2="84.8621" gradientUnits="userSpaceOnUse">
<stop stop-color="#4E0367"/>
<stop offset="1" stop-color="#0B1654"/>
</linearGradient>
<linearGradient id="paint32_linear_149_1512" x1="133.405" y1="288.853" x2="204.133" y2="45.2757" gradientUnits="userSpaceOnUse">
<stop stop-color="#E1AEF4"/>
<stop offset="0.8505" stop-color="#E1AEF4" stop-opacity="0"/>
</linearGradient>
<linearGradient id="paint33_linear_149_1512" x1="264.061" y1="272.756" x2="231.877" y2="58.28" gradientUnits="userSpaceOnUse">
<stop stop-color="#E1AEF4"/>
<stop offset="0.8505" stop-color="#E1AEF4" stop-opacity="0"/>
</linearGradient>
<linearGradient id="paint34_linear_149_1512" x1="396.119" y1="180.584" x2="444.802" y2="180.584" gradientUnits="userSpaceOnUse">
<stop stop-color="#8815AD"/>
<stop offset="0.273" stop-color="#A140C1"/>
<stop offset="1" stop-color="#E1AEF4"/>
</linearGradient>
<linearGradient id="paint35_linear_149_1512" x1="396.14" y1="166.51" x2="444.78" y2="166.51" gradientUnits="userSpaceOnUse">
<stop stop-color="#E1AEF4"/>
<stop offset="0.727" stop-color="#A140C1"/>
<stop offset="1" stop-color="#8815AD"/>
</linearGradient>
<linearGradient id="paint36_linear_149_1512" x1="420.46" y1="187.581" x2="444.78" y2="187.581" gradientUnits="userSpaceOnUse">
<stop stop-color="#E1AEF4"/>
<stop offset="0.727" stop-color="#A140C1"/>
<stop offset="1" stop-color="#8815AD"/>
</linearGradient>
<linearGradient id="paint37_linear_149_1512" x1="399.33" y1="150.938" x2="448.004" y2="150.938" gradientUnits="userSpaceOnUse">
<stop stop-color="#EF5A29"/>
<stop offset="1" stop-color="#F9AE41"/>
</linearGradient>
<clipPath id="clip0_149_1512">
<rect width="448" height="294" fill="white"/>
</clipPath>
</defs>
</svg>
