<svg xmlns="http://www.w3.org/2000/svg" viewBox="0 0 424.23 195.13"><defs><style>.cls-1{opacity:0.2;}.cls-2{fill:#80623f;}.cls-3{fill:#fff;}</style></defs><g id="Layer_2" data-name="Layer 2"><g id="Layer_1-2" data-name="Layer 1"><g class="cls-1"><rect class="cls-2" x="178.55" y="16.77" width="67.12" height="48.48"/><rect class="cls-2" x="108.64" y="119.94" width="67.12" height="48.48"/><rect class="cls-2" x="178.55" y="119.94" width="67.12" height="48.48"/><rect class="cls-2" x="248.47" y="119.94" width="67.12" height="48.48"/><rect class="cls-2" x="143.58" y="68.35" width="67.12" height="48.48"/><rect class="cls-2" x="213.53" y="68.35" width="67.12" height="48.48"/></g><path class="cls-2" d="M212.11,195.13c-56.33,0-109.34-10-149.25-28.07C22.32,148.68,0,124,0,97.57s22.32-51.12,62.86-69.5C102.77,10,155.78,0,212.11,0S321.46,10,361.37,28.07c40.53,18.38,62.86,43.06,62.86,69.5s-22.33,51.11-62.86,69.49C321.46,185.16,268.45,195.13,212.11,195.13ZM212.11,5C156.47,5,104.2,14.81,64.93,32.62,26.28,50.15,5,73.21,5,97.57S26.28,145,64.93,162.51c39.27,17.81,91.54,27.62,147.18,27.62S320,180.32,359.3,162.51C398,145,419.23,121.92,419.23,97.57S398,50.15,359.3,32.62C320,14.81,267.76,5,212.11,5Z"/><circle class="cls-2" cx="91.45" cy="97.57" r="52.84"/><rect class="cls-3" x="79.56" y="70.7" width="23.78" height="17.17"/><rect class="cls-3" x="54.79" y="107.25" width="23.78" height="17.17"/><rect class="cls-3" x="79.56" y="107.25" width="23.78" height="17.17"/><rect class="cls-3" x="104.33" y="107.25" width="23.78" height="17.17"/><rect class="cls-3" x="67.17" y="88.98" width="23.78" height="17.17"/><rect class="cls-3" x="91.95" y="88.98" width="23.78" height="17.17"/><path class="cls-2" d="M219.89,80.15a22.05,22.05,0,0,0,.3-3.57q0-7.24-5.4-11.17c-3.1-2.24-7.26-3.52-12.51-3.84L190,77.4h2.46q6.44,0,6.43,4.89a9.31,9.31,0,0,1-.1,1.53q-1.12,6.33-8.57,6.32h-10.1v0l-26,33.49-1.74,9.79H188q11.52,0,18.76-5.2a21.28,21.28,0,0,0,8.77-14.38,18.86,18.86,0,0,0,.31-3.37,14.24,14.24,0,0,0-2.91-9,13.81,13.81,0,0,0-8.11-5,21.22,21.22,0,0,0,9.85-5.76A19.68,19.68,0,0,0,219.89,80.15ZM195.61,111q-1.22,6.42-8.66,6.43H175.32l2.24-13.16h11.53A7.64,7.64,0,0,1,194,105.6a4.74,4.74,0,0,1,1.69,3.92A7.45,7.45,0,0,1,195.61,111Z"/><path class="cls-2" d="M245.74,71.68a7.57,7.57,0,0,1,2.61,6,10.07,10.07,0,0,1-.18,2,11.2,11.2,0,0,1-2.74,5.59,12.21,12.21,0,0,1-5.62,3.47l4.69,12H233.71L229.77,89.5l-2,11.23H218l5.53-31.3h14.59Q243.13,69.43,245.74,71.68ZM230.93,83h3.89a3.58,3.58,0,0,0,2.23-.64,3.18,3.18,0,0,0,1.08-2,2.79,2.79,0,0,0,.05-.57,2,2,0,0,0-.62-1.53,2.7,2.7,0,0,0-1.81-.55h-3.9Z"/><path class="cls-2" d="M260.73,69.43l-5.53,31.3h-9.82l5.53-31.3Z"/><path class="cls-2" d="M262.63,76.77A17.51,17.51,0,0,1,269,71.13a18.21,18.21,0,0,1,8.57-2,15.11,15.11,0,0,1,7,1.52A10.62,10.62,0,0,1,289.07,75a12.88,12.88,0,0,1,1.5,6.5H280.23A4.51,4.51,0,0,0,278.64,79a4.62,4.62,0,0,0-2.83-.86A5.65,5.65,0,0,0,271.56,80a9.25,9.25,0,0,0-2.3,5,9.5,9.5,0,0,0-.18,1.9,5.41,5.41,0,0,0,1.13,3.62,4,4,0,0,0,3.21,1.33,6.13,6.13,0,0,0,3.14-.86A7.27,7.27,0,0,0,279,88.62h10.35a19.39,19.39,0,0,1-3.85,6.5,17.62,17.62,0,0,1-6,4.31A18.51,18.51,0,0,1,272,101a15,15,0,0,1-7-1.52,10.24,10.24,0,0,1-4.42-4.34A13.5,13.5,0,0,1,259,88.57a19.56,19.56,0,0,1,.31-3.53A20.23,20.23,0,0,1,262.63,76.77Z"/><path class="cls-2" d="M310.43,84.42l8.66,16.31H307.42L300.7,87.11l-2.39,13.62H288.5L294,69.43h9.82L301.5,82.6l11.31-13.17h11.1Z"/><path class="cls-2" d="M225.92,107.94l-2.57,14.76a7.9,7.9,0,0,0-.11,1.23,3.07,3.07,0,0,0,.78,2.24,3.23,3.23,0,0,0,2.4.79,4.37,4.37,0,0,0,3.14-1.12,5.42,5.42,0,0,0,1.55-3.14l2.6-14.76h7.08l-2.6,14.76a13.59,13.59,0,0,1-2.49,6.07,11.61,11.61,0,0,1-4.59,3.66,14.25,14.25,0,0,1-5.92,1.21,9.88,9.88,0,0,1-6.66-2.16,7.78,7.78,0,0,1-2.51-6.21,13,13,0,0,1,.26-2.57l2.6-14.76Z"/><path class="cls-2" d="M250,107.94l-4.48,25.45h-7.11l4.51-25.45Z"/><path class="cls-2" d="M255.77,128h7.91l-1,5.38h-15l4.51-25.45h7.08Z"/><path class="cls-2" d="M284.26,109.18a8.92,8.92,0,0,1,3.9,3.52A10.32,10.32,0,0,1,289.5,118a13.35,13.35,0,0,1-.26,2.64,15.14,15.14,0,0,1-8.25,11.1,16.25,16.25,0,0,1-7.31,1.64H263.61l4.51-25.45h10.07A13.76,13.76,0,0,1,284.26,109.18Zm-4.84,16.29a8,8,0,0,0,2.64-4.82,8.54,8.54,0,0,0,.14-1.56,4.69,4.69,0,0,0-1.48-3.72,6.12,6.12,0,0,0-4.15-1.3h-2.42l-2.35,13.11h2.46A7.79,7.79,0,0,0,279.42,125.47Z"/><path class="cls-2" d="M299.93,107.94l-4.48,25.45h-7.11l4.51-25.45Z"/><path class="cls-2" d="M321.27,133.39h-7.12l-6.86-14.22-2.52,14.22h-7.12l4.52-25.45h7.07l6.9,14.4,2.53-14.4h7.07Z"/><path class="cls-2" d="M327.66,113.91a14.82,14.82,0,0,1,5.34-4.58,15.18,15.18,0,0,1,7-1.65,11.3,11.3,0,0,1,7.53,2.31,8.1,8.1,0,0,1,2.8,6.32h-7.62a3,3,0,0,0-1.37-1.55,5,5,0,0,0-2.46-.54,6.34,6.34,0,0,0-4.49,1.73,8.06,8.06,0,0,0-2.37,4.66,11.31,11.31,0,0,0-.18,1.8,4.72,4.72,0,0,0,1.37,3.67,5.84,5.84,0,0,0,4.05,1.24,6.77,6.77,0,0,0,5.92-3.35H336.1l.91-5.09h13.21L349,125.74a16.72,16.72,0,0,1-5.38,5.52,14.33,14.33,0,0,1-8.08,2.31,12.5,12.5,0,0,1-5.85-1.28,8.93,8.93,0,0,1-3.76-3.59,10.78,10.78,0,0,1-1.3-5.35,14.23,14.23,0,0,1,.26-2.74A15.85,15.85,0,0,1,327.66,113.91Z"/><path class="cls-2" d="M354.45,133a2,2,0,0,1-.86-1.71,2.51,2.51,0,0,1,0-.35h1.84a1,1,0,0,0,.28.88,1.35,1.35,0,0,0,1,.35,1.68,1.68,0,0,0,1-.28.91.91,0,0,0,.38-.78.89.89,0,0,0-.39-.76,6.16,6.16,0,0,0-1.23-.63,11.69,11.69,0,0,1-1.25-.59,2.54,2.54,0,0,1-.82-.75,2.08,2.08,0,0,1-.34-1.21,2.51,2.51,0,0,1,.43-1.45,2.79,2.79,0,0,1,1.18-1,4.21,4.21,0,0,1,1.71-.33,4,4,0,0,1,1.65.31,2.27,2.27,0,0,1,1.05.89,2.24,2.24,0,0,1,.31,1.35h-1.92l0-.14a.88.88,0,0,0-.32-.7,1.3,1.3,0,0,0-.88-.27,1.55,1.55,0,0,0-1,.29.9.9,0,0,0-.37.77.79.79,0,0,0,.21.55,2,2,0,0,0,.52.42c.2.11.5.26.88.44a10.27,10.27,0,0,1,1.25.63,2.67,2.67,0,0,1,.83.78,2,2,0,0,1,.35,1.19,2.34,2.34,0,0,1-.42,1.37,2.74,2.74,0,0,1-1.18.95,4.45,4.45,0,0,1-1.78.34A3.82,3.82,0,0,1,354.45,133Z"/><path class="cls-2" d="M366.25,131.79h-3.58l-.89,1.71H359.9l4.81-9h2.09l1.63,9h-1.9Zm-.23-1.4-.65-3.79-2,3.79Z"/><path class="cls-2" d="M376,125.17a2,2,0,0,1,.71,1.62,4.38,4.38,0,0,1,0,.5,3.25,3.25,0,0,1-.79,1.58,3.34,3.34,0,0,1-1.7,1l1.5,3.63h-2.09L372.27,130h-.85l-.62,3.49H369l1.59-9h3.36A3,3,0,0,1,376,125.17ZM374.87,127a1,1,0,0,0-.31-.76,1.41,1.41,0,0,0-.94-.27h-1.5l-.47,2.68h1.5a1.69,1.69,0,0,0,1.14-.36,1.57,1.57,0,0,0,.55-1C374.86,127.17,374.87,127.07,374.87,127Z"/><path class="cls-2" d="M378.62,132.12h2.95l-.24,1.38h-4.76l1.59-9H380Z"/><path class="cls-2" d="M200.28,59.57,188,75.4h-7.63l-2.25,12.71-26,33.49,11-62.11h34.47C198.52,59.49,199.42,59.52,200.28,59.57Z"/></g></g></svg>