<svg width="1856" height="1856" viewBox="0 0 1856 1856" fill="none" xmlns="http://www.w3.org/2000/svg">
<path d="M1856 1419.47H0V1420.4H1856V1419.47Z" fill="#EBEBEB"/>
<path d="M1670.03 1479.19H1547.09V1480.12H1670.03V1479.19Z" fill="#EBEBEB"/>
<path d="M1229.49 1489.29H1197.23V1490.22H1229.49V1489.29Z" fill="#EBEBEB"/>
<path d="M1543.38 1444.75H1472.14V1445.68H1543.38V1444.75Z" fill="#EBEBEB"/>
<path d="M355.053 1450.98H194.731V1451.91H355.053V1450.98Z" fill="#EBEBEB"/>
<path d="M411.624 1450.98H388.127V1451.91H411.624V1450.98Z" fill="#EBEBEB"/>
<path d="M835.757 1466.65H488.017V1467.58H835.757V1466.65Z" fill="#EBEBEB"/>
<path d="M879.744 1253.91H162.994C157.379 1253.9 151.998 1251.67 148.031 1247.69C144.064 1243.72 141.836 1238.33 141.836 1232.72V225.17C141.885 219.587 144.134 214.249 148.096 210.315C152.058 206.381 157.411 204.169 162.994 204.16H879.744C885.366 204.16 890.757 206.393 894.732 210.368C898.707 214.343 900.94 219.734 900.94 225.355V1232.72C900.94 1238.34 898.707 1243.73 894.732 1247.71C890.757 1251.68 885.366 1253.91 879.744 1253.91V1253.91ZM162.994 204.902C157.625 204.912 152.48 207.052 148.687 210.852C144.894 214.651 142.764 219.801 142.764 225.17V1232.72C142.764 1238.09 144.894 1243.24 148.687 1247.04C152.48 1250.84 157.625 1252.98 162.994 1252.99H879.744C885.117 1252.98 890.266 1250.84 894.065 1247.04C897.864 1243.24 900.002 1238.09 900.012 1232.72V225.17C900.002 219.798 897.864 214.648 894.065 210.849C890.266 207.051 885.117 204.912 879.744 204.902H162.994Z" fill="#EBEBEB"/>
<path d="M1682.69 1253.91H965.9C960.281 1253.9 954.896 1251.67 950.923 1247.69C946.95 1243.72 944.714 1238.34 944.704 1232.72V225.17C944.763 219.584 947.02 214.246 950.988 210.313C954.956 206.38 960.313 204.169 965.9 204.16H1682.69C1688.26 204.179 1693.61 206.395 1697.56 210.328C1701.51 214.261 1703.76 219.593 1703.81 225.17V1232.72C1703.81 1238.33 1701.59 1243.71 1697.63 1247.68C1693.67 1251.65 1688.3 1253.89 1682.69 1253.91V1253.91ZM965.9 204.902C960.527 204.912 955.378 207.051 951.579 210.849C947.78 214.648 945.642 219.798 945.632 225.17V1232.72C945.642 1238.09 947.78 1243.24 951.579 1247.04C955.378 1250.84 960.527 1252.98 965.9 1252.99H1682.69C1688.06 1252.98 1693.21 1250.84 1697.01 1247.04C1700.81 1243.24 1702.94 1238.09 1702.95 1232.72V225.17C1702.94 219.798 1700.81 214.648 1697.01 210.849C1693.21 207.051 1688.06 204.912 1682.69 204.902H965.9Z" fill="#EBEBEB"/>
<path d="M1075.33 646.111L1586.77 646.111V311.177L1075.33 311.177V646.111Z" fill="#E6E6E6"/>
<path d="M1059.7 646.111L1579.46 646.111V311.177L1059.7 311.177V646.111Z" fill="#F0F0F0"/>
<path d="M1075.33 711.813L1586.77 711.813V646.073H1075.33V711.813Z" fill="#E6E6E6"/>
<path d="M1033.75 711.813L1553.51 711.813V646.073H1033.75V711.813Z" fill="#F0F0F0"/>
<path d="M1557.63 624.284V333.041L1081.56 333.041V624.284H1557.63Z" fill="#FAFAFA"/>
<path d="M1450.28 624.247L1389.48 333.041H1294.6L1355.4 624.247H1450.28Z" fill="white"/>
<path d="M1547.53 602.532C1547.74 602.532 1547.95 602.49 1548.14 602.41C1548.33 602.329 1548.5 602.211 1548.65 602.062C1548.79 601.913 1548.91 601.737 1548.98 601.544C1549.06 601.35 1549.1 601.143 1549.09 600.936V347.258C1549.09 346.844 1548.93 346.447 1548.64 346.155C1548.34 345.863 1547.95 345.698 1547.53 345.698C1547.33 345.693 1547.12 345.73 1546.93 345.807C1546.74 345.883 1546.57 345.998 1546.42 346.144C1546.27 346.29 1546.16 346.463 1546.08 346.655C1546.01 346.846 1545.97 347.051 1545.97 347.258V600.936C1545.97 601.143 1546.01 601.35 1546.08 601.544C1546.16 601.737 1546.27 601.913 1546.42 602.062C1546.56 602.211 1546.74 602.329 1546.93 602.41C1547.12 602.49 1547.33 602.532 1547.53 602.532V602.532Z" fill="#F0F0F0"/>
<path d="M1335.02 624.247L1274.22 333.041H1237.21L1298.05 624.247H1335.02Z" fill="white"/>
<path d="M1084.35 624.284V333.041H1081.57V624.284H1084.35Z" fill="#E6E6E6"/>
<path opacity="0.6" d="M1054.58 365.966H1566.02L1568.02 341.504H1056.58L1054.58 365.966Z" fill="#EBEBEB"/>
<path opacity="0.6" d="M1054.58 406.056H1566.02L1568.02 381.631H1056.58L1054.58 406.056Z" fill="#EBEBEB"/>
<path opacity="0.6" d="M1054.58 446.145H1566.02L1568.02 421.72H1056.58L1054.58 446.145Z" fill="#EBEBEB"/>
<path opacity="0.6" d="M1054.58 486.272H1566.02L1568.02 461.81H1056.58L1054.58 486.272Z" fill="#EBEBEB"/>
<path opacity="0.6" d="M1054.58 526.361H1566.02L1568.02 501.899H1056.58L1054.58 526.361Z" fill="#EBEBEB"/>
<path opacity="0.6" d="M1054.58 566.451H1566.02L1568.02 541.989H1056.58L1054.58 566.451Z" fill="#EBEBEB"/>
<path d="M1513.35 1175.89H1406.11V1197.05H1513.35V1175.89Z" fill="#E6E6E6"/>
<path d="M1203.84 1419.47H1223.62V932.937H1203.84V1419.47Z" fill="#E6E6E6"/>
<path d="M1135.24 1197.05H1406.07V1175.89H1135.24V1197.05Z" fill="#F5F5F5"/>
<path d="M1513.35 1291.59H1406.11V1312.75H1513.35V1291.59Z" fill="#E6E6E6"/>
<path d="M1135.24 1312.71H1406.07V1291.55H1135.24V1312.71Z" fill="#F5F5F5"/>
<path d="M1513.35 944.519H1406.11V965.677H1513.35V944.519Z" fill="#E6E6E6"/>
<path d="M1135.24 965.64H1406.07V944.481H1135.24V965.64Z" fill="#F5F5F5"/>
<path d="M1513.35 1060.18H1406.11V1081.34H1513.35V1060.18Z" fill="#E6E6E6"/>
<path d="M1135.24 1081.34H1406.07V1060.18H1135.24V1081.34Z" fill="#F5F5F5"/>
<path d="M1474.7 1419.47H1494.49V932.937H1474.7V1419.47Z" fill="#E6E6E6"/>
<path d="M1386.28 1419.47H1406.07V932.937H1386.28V1419.47Z" fill="#F5F5F5"/>
<path d="M1135.24 1419.47H1155.03V932.937H1135.24V1419.47Z" fill="#F5F5F5"/>
<path d="M242.69 1419.47H445.291L445.291 1026.41H242.69L242.69 1419.47Z" fill="#E6E6E6"/>
<path d="M296.774 1419.47H242.653V1365.2H353.494L296.774 1419.47Z" fill="#FAFAFA"/>
<path d="M795.036 1419.47H997.637V1026.41H795.036V1419.47Z" fill="#E6E6E6"/>
<path d="M242.691 1400.76H842.29V1026.37H242.691V1400.76Z" fill="#FAFAFA"/>
<path d="M788.169 1419.47H842.252V1365.2H731.449L788.169 1419.47Z" fill="#FAFAFA"/>
<path d="M284.637 1259.59H800.308V1165.9H284.637V1259.59Z" fill="#F0F0F0"/>
<path d="M284.637 1373.29H800.308V1279.6H284.637V1373.29Z" fill="#F0F0F0"/>
<path d="M702.311 1175.92H382.67C378.161 1175.92 373.837 1174.13 370.649 1170.94C367.46 1167.76 365.669 1163.43 365.669 1158.92V1157.77H719.274V1158.92C719.274 1163.43 717.488 1167.74 714.308 1170.93C711.128 1174.12 706.813 1175.91 702.311 1175.92Z" fill="#FAFAFA"/>
<path d="M284.637 1145.86H800.308V1052.17H284.637V1145.86Z" fill="#F0F0F0"/>
<path d="M702.311 1062.19H382.67C378.161 1062.19 373.837 1060.4 370.649 1057.21C367.46 1054.02 365.669 1049.7 365.669 1045.19V1044.04H719.274V1045.19C719.274 1049.69 717.488 1054.01 714.308 1057.2C711.128 1060.38 706.813 1062.18 702.311 1062.19Z" fill="#FAFAFA"/>
<path d="M702.311 1289.66H382.67C378.161 1289.66 373.837 1287.87 370.649 1284.68C367.46 1281.49 365.669 1277.17 365.669 1272.66V1271.51H719.274V1272.66C719.274 1277.16 717.488 1281.48 714.308 1284.67C711.128 1287.85 706.813 1289.65 702.311 1289.66Z" fill="#FAFAFA"/>
<path d="M274.947 646.111L786.387 646.111V311.177L274.947 311.177L274.947 646.111Z" fill="#E6E6E6"/>
<path d="M259.357 646.111L779.111 646.111V311.177L259.357 311.177V646.111Z" fill="#F0F0F0"/>
<path d="M274.947 711.813L786.387 711.813V646.073H274.947V711.813Z" fill="#E6E6E6"/>
<path d="M233.337 711.813L753.091 711.813V646.073H233.337V711.813Z" fill="#F0F0F0"/>
<path d="M757.248 624.284V333.041L281.184 333.041V624.284H757.248Z" fill="#FAFAFA"/>
<path d="M649.897 624.247L589.095 333.041H494.216L555.018 624.247H649.897Z" fill="white"/>
<path d="M747.114 602.532C747.322 602.532 747.528 602.49 747.719 602.41C747.911 602.329 748.085 602.211 748.23 602.062C748.375 601.913 748.489 601.737 748.565 601.544C748.641 601.35 748.678 601.143 748.673 600.936V347.258C748.678 347.051 748.641 346.846 748.565 346.655C748.488 346.463 748.374 346.29 748.228 346.144C748.082 345.998 747.908 345.883 747.717 345.807C747.525 345.73 747.32 345.693 747.114 345.698C746.701 345.698 746.304 345.863 746.012 346.155C745.719 346.447 745.555 346.844 745.555 347.258V600.936C745.55 601.143 745.587 601.35 745.663 601.544C745.739 601.737 745.853 601.913 745.998 602.062C746.144 602.211 746.317 602.329 746.509 602.41C746.7 602.49 746.906 602.532 747.114 602.532Z" fill="#F0F0F0"/>
<path d="M534.639 624.247L473.837 333.041H436.828L497.631 624.247H534.639Z" fill="white"/>
<path d="M283.968 624.284V333.041H281.184V624.284H283.968Z" fill="#E6E6E6"/>
<path opacity="0.6" d="M254.16 365.966H765.599L767.604 341.504H256.165L254.16 365.966Z" fill="#EBEBEB"/>
<path opacity="0.6" d="M254.16 379.775H765.599L767.604 355.312H256.165L254.16 379.775Z" fill="#EBEBEB"/>
<path opacity="0.6" d="M254.16 393.546H765.599L767.604 369.121H256.165L254.16 393.546Z" fill="#EBEBEB"/>
<path opacity="0.6" d="M254.16 407.355H765.599L767.604 382.893H256.165L254.16 407.355Z" fill="#EBEBEB"/>
<path opacity="0.6" d="M254.16 421.126H765.599L767.604 396.701H256.165L254.16 421.126Z" fill="#EBEBEB"/>
<path opacity="0.6" d="M254.16 434.935H765.599L767.604 410.473H256.165L254.16 434.935Z" fill="#EBEBEB"/>
<path d="M356.427 1014.38H374.096V817.308H356.427V1014.38Z" fill="#F5F5F5"/>
<path d="M358.654 1014.27H363.665V817.196H358.654V1014.27Z" fill="#FAFAFA"/>
<path d="M365.744 1014.27H367.711V817.196H365.744V1014.27Z" fill="#FAFAFA"/>
<path d="M430.703 1026.41H299.892C299.892 1022.03 301.629 1017.84 304.72 1014.75C307.81 1011.66 312.002 1009.92 316.374 1009.92H414.185C418.556 1009.92 422.748 1011.66 425.839 1014.75C428.93 1017.84 430.666 1022.03 430.666 1026.41H430.703Z" fill="#F0F0F0"/>
<path d="M333.486 939.656C334.832 939.646 336.119 939.107 337.071 938.155C338.023 937.204 338.562 935.916 338.571 934.57V805.504C338.571 804.155 338.036 802.862 337.082 801.908C336.128 800.954 334.835 800.419 333.486 800.419V800.419C332.815 800.414 332.15 800.542 331.528 800.795C330.907 801.048 330.342 801.422 329.866 801.895C329.39 802.368 329.012 802.93 328.754 803.549C328.496 804.169 328.363 804.833 328.363 805.504V934.719C328.411 936.045 328.972 937.301 329.928 938.222C330.883 939.142 332.159 939.657 333.486 939.656Z" fill="#F0F0F0"/>
<path d="M286.084 864.154H444.401L426.175 753.536H304.31L286.084 864.154Z" fill="#E0E0E0"/>
<path d="M928 1587.1C1325.49 1587.1 1647.72 1568.29 1647.72 1545.08C1647.72 1521.88 1325.49 1503.06 928 1503.06C530.51 1503.06 208.28 1521.88 208.28 1545.08C208.28 1568.29 530.51 1587.1 928 1587.1Z" fill="#F5F5F5"/>
<path d="M386.489 751.157L382.786 751.424L387.717 819.881L391.42 819.615L386.489 751.157Z" fill="#951BAA"/>
<path d="M393.935 854.955L390.232 855.221L392.089 880.99L395.791 880.723L393.935 854.955Z" fill="#951BAA"/>
<path d="M1253.58 1169.87H458.618C449.769 1169.71 441.293 1166.29 434.822 1160.25C428.352 1154.21 424.346 1145.99 423.577 1137.17L384.527 594.737C384.164 590.553 384.681 586.34 386.045 582.369C387.409 578.398 389.589 574.756 392.446 571.679C395.303 568.601 398.773 566.157 402.633 564.502C406.492 562.847 410.655 562.019 414.854 562.071H1209.82C1218.66 562.229 1227.13 565.654 1233.6 571.684C1240.07 577.715 1244.08 585.926 1244.86 594.737L1283.91 1137.17C1284.27 1141.36 1283.75 1145.57 1282.39 1149.54C1281.03 1153.52 1278.85 1157.16 1275.99 1160.24C1273.13 1163.32 1269.66 1165.77 1265.8 1167.43C1261.94 1169.09 1257.78 1169.92 1253.58 1169.87Z" fill="#951BAA"/>
<path d="M1256.62 1169.87H461.661C452.812 1169.71 444.335 1166.29 437.865 1160.25C431.395 1154.21 427.389 1145.99 426.62 1137.17L387.57 594.737C387.207 590.553 387.724 586.34 389.088 582.369C390.452 578.398 392.632 574.756 395.489 571.679C398.346 568.601 401.816 566.157 405.676 564.502C409.535 562.847 413.698 562.019 417.897 562.071H1212.86C1221.7 562.229 1230.17 565.654 1236.64 571.684C1243.11 577.715 1247.12 585.926 1247.9 594.737L1286.95 1137.17C1287.32 1141.36 1286.81 1145.57 1285.44 1149.55C1284.08 1153.53 1281.9 1157.17 1279.05 1160.25C1276.19 1163.34 1272.72 1165.78 1268.85 1167.44C1264.99 1169.1 1260.83 1169.93 1256.62 1169.87Z" fill="#951BAA"/>
<path opacity="0.5" d="M1256.62 1169.87H461.661C452.812 1169.71 444.335 1166.29 437.865 1160.25C431.395 1154.21 427.389 1145.99 426.62 1137.17L387.57 594.737C387.207 590.553 387.724 586.34 389.088 582.369C390.452 578.398 392.632 574.756 395.489 571.679C398.346 568.601 401.816 566.157 405.676 564.502C409.535 562.847 413.698 562.019 417.897 562.071H1212.86C1221.7 562.229 1230.17 565.654 1236.64 571.684C1243.11 577.715 1247.12 585.926 1247.9 594.737L1286.95 1137.17C1287.32 1141.36 1286.81 1145.57 1285.44 1149.55C1284.08 1153.53 1281.9 1157.17 1279.05 1160.25C1276.19 1163.34 1272.72 1165.78 1268.85 1167.44C1264.99 1169.1 1260.83 1169.93 1256.62 1169.87Z" fill="white"/>
<path d="M1214.05 578.404H419.085H416.413C396.108 580.074 400.265 610.995 420.756 610.995H1217.05C1237.58 610.995 1237.28 580.074 1216.72 578.404H1214.05Z" fill="#951BAA"/>
<path d="M439.798 594.737C439.876 595.694 439.753 596.656 439.436 597.563C439.119 598.469 438.615 599.299 437.958 599.998C437.3 600.698 436.503 601.252 435.618 601.624C434.733 601.997 433.78 602.179 432.82 602.161C430.802 602.132 428.867 601.358 427.386 599.987C425.906 598.616 424.985 596.746 424.802 594.737C424.724 593.783 424.847 592.823 425.162 591.92C425.477 591.016 425.977 590.188 426.63 589.489C427.284 588.79 428.076 588.235 428.957 587.861C429.837 587.486 430.787 587.299 431.743 587.313C433.767 587.332 435.712 588.102 437.2 589.474C438.689 590.845 439.615 592.721 439.798 594.737Z" fill="#FAFAFA"/>
<path d="M465.299 594.737C465.377 595.694 465.254 596.656 464.937 597.563C464.62 598.469 464.116 599.299 463.459 599.998C462.801 600.698 462.004 601.252 461.119 601.624C460.234 601.997 459.281 602.179 458.321 602.161C456.303 602.132 454.368 601.358 452.887 599.987C451.407 598.616 450.486 596.746 450.303 594.737C450.225 593.783 450.348 592.823 450.663 591.92C450.978 591.016 451.478 590.188 452.131 589.489C452.785 588.79 453.577 588.235 454.458 587.861C455.338 587.486 456.288 587.299 457.244 587.313C459.268 587.332 461.213 588.102 462.701 589.474C464.19 590.845 465.116 592.721 465.299 594.737Z" fill="#FAFAFA"/>
<path d="M490.764 594.737C490.841 595.691 490.719 596.65 490.404 597.554C490.089 598.458 489.589 599.285 488.935 599.984C488.282 600.683 487.489 601.238 486.609 601.613C485.728 601.988 484.779 602.174 483.822 602.161C481.802 602.141 479.862 601.369 478.38 599.997C476.898 598.624 475.979 596.749 475.804 594.737C475.721 593.782 475.839 592.82 476.152 591.914C476.465 591.007 476.965 590.177 477.619 589.477C478.274 588.777 479.069 588.222 479.952 587.849C480.835 587.476 481.787 587.294 482.746 587.313C484.763 587.341 486.699 588.115 488.179 589.486C489.66 590.857 490.58 592.728 490.764 594.737Z" fill="#FAFAFA"/>
<path d="M1235.54 1115.75H475.136C471.924 1115.7 468.846 1114.45 466.5 1112.26C464.154 1110.06 462.707 1107.08 462.441 1103.87L430.332 657.804C430.189 656.273 430.373 654.729 430.873 653.275C431.372 651.821 432.175 650.49 433.228 649.37C434.282 648.251 435.561 647.367 436.982 646.78C438.402 646.192 439.932 645.914 441.468 645.962H1202.06C1205.27 646.007 1208.34 647.244 1210.69 649.433C1213.04 651.622 1214.48 654.606 1214.75 657.804L1246.9 1103.87C1247.04 1105.43 1246.84 1106.99 1246.33 1108.46C1245.81 1109.93 1244.99 1111.27 1243.92 1112.39C1242.84 1113.52 1241.54 1114.4 1240.09 1114.98C1238.65 1115.56 1237.09 1115.82 1235.54 1115.75Z" fill="white"/>
<path d="M915.12 945.818L902.722 773.878L865.231 751.309H762L776.031 945.818H915.12Z" fill="white"/>
<path d="M915.119 947.6H776.031C775.57 947.61 775.124 947.442 774.785 947.131C774.446 946.819 774.24 946.389 774.212 945.929L760.218 751.42C760.2 751.176 760.233 750.931 760.317 750.701C760.4 750.471 760.53 750.261 760.7 750.084C760.864 749.901 761.064 749.753 761.288 749.651C761.511 749.549 761.753 749.494 761.999 749.49H865.23C865.556 749.502 865.874 749.591 866.158 749.75L903.649 772.319C903.902 772.464 904.115 772.668 904.27 772.914C904.425 773.159 904.518 773.44 904.54 773.73L916.864 945.669C916.89 945.92 916.86 946.173 916.776 946.41C916.693 946.648 916.558 946.864 916.381 947.043C916.22 947.217 916.025 947.356 915.808 947.451C915.591 947.547 915.356 947.598 915.119 947.6ZM777.775 943.888H913.152L900.977 774.806L864.896 753.091H763.93L777.775 943.888Z" fill="#951BAA"/>
<path d="M902.722 773.878L865.23 751.309L879.002 781.228L902.722 773.878Z" fill="#EBEBEB"/>
<path d="M879.002 783.009C878.659 783.008 878.324 782.909 878.035 782.725C877.746 782.541 877.515 782.28 877.368 781.97L863.597 752.051C863.436 751.7 863.389 751.307 863.462 750.928C863.536 750.549 863.725 750.202 864.005 749.936C864.3 749.684 864.666 749.53 865.052 749.497C865.438 749.464 865.825 749.552 866.158 749.75L903.649 772.319C903.952 772.501 904.196 772.765 904.354 773.08C904.512 773.396 904.576 773.75 904.54 774.101C904.492 774.442 904.348 774.763 904.125 775.026C903.901 775.289 903.608 775.483 903.278 775.585L879.521 783.009H879.002ZM869.313 755.838L879.967 779.038L898.527 773.358L869.313 755.838Z" fill="#951BAA"/>
<path d="M820.352 838.912C820.408 839.921 820.257 840.93 819.909 841.879C819.561 842.827 819.023 843.694 818.328 844.428C817.633 845.161 816.795 845.744 815.867 846.143C814.939 846.541 813.939 846.746 812.928 846.744C810.809 846.706 808.779 845.885 807.23 844.439C805.681 842.992 804.722 841.023 804.539 838.912C804.444 837.893 804.566 836.865 804.9 835.897C805.233 834.928 805.768 834.042 806.471 833.298C807.173 832.553 808.027 831.967 808.974 831.578C809.921 831.189 810.94 831.006 811.963 831.043C814.086 831.09 816.116 831.919 817.664 833.371C819.213 834.824 820.17 836.797 820.352 838.912Z" fill="#951BAA"/>
<path d="M871.206 838.912C871.296 839.928 871.169 840.952 870.834 841.916C870.498 842.879 869.962 843.761 869.26 844.501C868.558 845.242 867.706 845.825 866.762 846.212C865.818 846.598 864.802 846.78 863.782 846.744C861.659 846.707 859.625 845.887 858.07 844.441C856.514 842.996 855.548 841.027 855.356 838.912C855.295 837.9 855.442 836.887 855.788 835.934C856.134 834.981 856.671 834.109 857.367 833.372C858.062 832.635 858.901 832.048 859.832 831.647C860.763 831.246 861.767 831.041 862.78 831.042C864.912 831.072 866.955 831.895 868.513 833.35C870.071 834.804 871.031 836.788 871.206 838.912Z" fill="#951BAA"/>
<path d="M885.609 889.915C885.158 889.907 884.725 889.732 884.396 889.423C884.067 889.114 883.864 888.694 883.827 888.244C882.899 875.586 863.077 865.304 839.655 865.304C824.101 865.304 810.144 869.944 803.24 877.368C801.821 878.736 800.71 880.39 799.981 882.221C799.251 884.051 798.92 886.016 799.008 887.985C799.025 888.228 798.994 888.473 798.917 888.705C798.839 888.936 798.717 889.151 798.556 889.335C798.233 889.707 797.774 889.936 797.282 889.971C796.79 890.005 796.304 889.842 795.932 889.519C795.559 889.195 795.331 888.737 795.296 888.244C795.186 885.784 795.591 883.327 796.486 881.032C797.381 878.737 798.746 876.655 800.493 874.918C807.917 866.789 823.025 861.704 839.543 861.704C865.267 861.704 886.24 873.248 887.279 887.985C887.295 888.219 887.263 888.453 887.187 888.675C887.112 888.897 886.993 889.102 886.837 889.278C886.682 889.454 886.494 889.597 886.283 889.7C886.072 889.803 885.843 889.864 885.609 889.878V889.915Z" fill="#951BAA"/>
<path d="M791.287 823.025C790.834 823.016 790.4 822.844 790.062 822.542C789.725 822.201 789.535 821.741 789.535 821.261C789.535 820.782 789.725 820.321 790.062 819.981L797.969 811.48C798.308 811.154 798.76 810.971 799.231 810.971C799.702 810.971 800.154 811.154 800.493 811.48C800.659 811.646 800.791 811.843 800.881 812.059C800.971 812.276 801.017 812.508 801.017 812.742C801.017 812.977 800.971 813.209 800.881 813.426C800.791 813.642 800.659 813.839 800.493 814.004L792.587 822.505C792.416 822.675 792.213 822.808 791.99 822.898C791.767 822.987 791.528 823.03 791.287 823.025Z" fill="#951BAA"/>
<path d="M881.897 823.025C881.447 823.003 881.016 822.834 880.673 822.542L871.578 814.042C871.406 813.875 871.27 813.676 871.176 813.456C871.083 813.236 871.035 813 871.035 812.761C871.035 812.522 871.083 812.285 871.176 812.065C871.27 811.845 871.406 811.646 871.578 811.48C871.917 811.154 872.369 810.971 872.84 810.971C873.311 810.971 873.763 811.154 874.102 811.48L883.197 819.981C883.363 820.146 883.495 820.343 883.585 820.56C883.674 820.776 883.721 821.008 883.721 821.243C883.721 821.477 883.674 821.71 883.585 821.926C883.495 822.143 883.363 822.339 883.197 822.505C882.844 822.835 882.38 823.02 881.897 823.025Z" fill="#951BAA"/>
<path d="M750.789 984.237H759.178L771.279 1000.35L770.129 984.237H778.592L780.671 1013.34H772.096L760.069 997.34L761.22 1013.34H752.756L750.789 984.237Z" fill="#951BAA"/>
<path d="M784.457 998.788C784.171 996.812 784.307 994.797 784.858 992.877C785.408 990.958 786.36 989.177 787.65 987.652C789.06 986.265 790.749 985.194 792.605 984.509C794.461 983.824 796.441 983.542 798.415 983.68C802.597 983.453 806.706 984.85 809.885 987.578C812.796 990.477 814.484 994.384 814.599 998.491C814.905 1001.32 814.523 1004.19 813.485 1006.84C812.524 1008.98 810.914 1010.76 808.882 1011.93C806.445 1013.24 803.702 1013.86 800.939 1013.75C798.099 1013.84 795.274 1013.31 792.661 1012.19C790.372 1011.09 788.442 1009.37 787.093 1007.21C785.5 1004.68 784.592 1001.78 784.457 998.788ZM793.478 998.788C793.442 1001.07 794.174 1003.29 795.556 1005.1C796.136 1005.74 796.848 1006.24 797.644 1006.57C798.439 1006.91 799.298 1007.06 800.159 1007.03C800.982 1007.09 801.807 1006.94 802.563 1006.61C803.319 1006.28 803.984 1005.78 804.502 1005.14C805.568 1003.11 805.921 1000.78 805.504 998.528C805.52 996.345 804.786 994.222 803.426 992.515C802.831 991.888 802.11 991.395 801.31 991.069C800.51 990.742 799.649 990.59 798.786 990.622C797.978 990.587 797.174 990.743 796.438 991.079C795.703 991.414 795.057 991.919 794.554 992.552C793.467 994.465 793.086 996.698 793.478 998.862V998.788Z" fill="#951BAA"/>
<path d="M832.045 984.237H845.408C847.611 984.167 849.806 984.533 851.867 985.313C853.498 985.997 854.947 987.052 856.099 988.394C857.267 989.757 858.162 991.333 858.734 993.034C859.336 994.862 859.71 996.757 859.848 998.677C860.133 1001.1 859.944 1003.56 859.291 1005.91C858.78 1007.55 857.875 1009.02 856.656 1010.22C855.639 1011.3 854.359 1012.09 852.944 1012.52C851.217 1013.02 849.433 1013.3 847.635 1013.34H834.309L832.045 984.237ZM841.511 990.844L842.661 1006.73H844.851C846.206 1006.82 847.563 1006.6 848.823 1006.1C849.654 1005.62 850.266 1004.83 850.531 1003.91C850.956 1002.26 851.056 1000.55 850.828 998.862C850.899 996.598 850.206 994.375 848.86 992.552C848.171 991.928 847.36 991.455 846.478 991.161C845.596 990.867 844.663 990.759 843.738 990.844H841.511Z" fill="#951BAA"/>
<path d="M881.415 1008.51H871.207L870.131 1013.34H860.962L869.796 984.237H879.745L892.774 1013.34H883.345L881.415 1008.51ZM879.076 1002.24L875.142 991.772L872.692 1002.24H879.076Z" fill="#951BAA"/>
<path d="M888.542 984.237H915.862L916.382 991.438H907.213L908.772 1013.34H899.789L898.23 991.438H889.062L888.542 984.237Z" fill="#951BAA"/>
<path d="M936.798 1008.51H926.59L925.513 1013.34H916.345L925.179 984.237H934.979L947.971 1013.34H938.58L936.798 1008.51ZM934.459 1002.24L930.487 991.772L928 1002.24H934.459Z" fill="#951BAA"/>
<path d="M1312.9 642.473C1316.2 640.803 1320.32 638.761 1323.81 636.645C1327.3 634.529 1331.23 632.488 1334.95 630.26C1342.19 625.769 1349.53 621.352 1356.48 616.452C1370.42 606.913 1383.49 596.155 1395.53 584.306C1397.05 582.895 1398.38 581.336 1399.83 579.814L1401.95 577.55L1402.99 576.436L1403.51 575.843C1402.99 576.845 1403.51 576.548 1403.51 575.583C1403.83 574.257 1404.02 572.901 1404.06 571.537C1403.98 563.644 1403.07 555.781 1401.35 548.077C1398.05 531.447 1393.04 514.298 1388.1 497.519L1402.51 491.209C1411.6 507.307 1419.19 524.205 1425.19 541.692C1428.55 551.142 1430.7 560.985 1431.57 570.98C1431.8 574.087 1431.7 577.21 1431.27 580.297C1430.72 584.662 1429.17 588.841 1426.74 592.509L1426.11 593.363L1425.63 593.957L1425.07 594.662L1423.92 596.073L1421.62 598.857C1420.1 600.676 1418.62 602.569 1416.98 604.314C1404.29 618.4 1390.13 631.093 1374.74 642.176C1367.32 647.67 1359.45 652.941 1351.39 657.729C1347.42 660.142 1343.37 662.444 1339.25 664.708C1335.13 666.972 1331.12 669.051 1326.37 671.278L1312.9 642.473Z" fill="#FFB573"/>
<path d="M1279.86 1515.16C1282.64 1515.09 1285.4 1514.72 1288.1 1514.05C1288.24 1514.01 1288.36 1513.93 1288.46 1513.83C1288.56 1513.72 1288.63 1513.6 1288.66 1513.46C1288.68 1513.31 1288.65 1513.17 1288.6 1513.04C1288.54 1512.91 1288.44 1512.8 1288.32 1512.71C1287.25 1512.01 1277.82 1505.92 1274.18 1507.55C1273.78 1507.74 1273.43 1508.03 1273.18 1508.4C1272.92 1508.76 1272.77 1509.19 1272.73 1509.63C1272.59 1510.33 1272.63 1511.06 1272.84 1511.74C1273.05 1512.42 1273.44 1513.04 1273.96 1513.53C1275.66 1514.77 1277.76 1515.35 1279.86 1515.16ZM1285.99 1513.01C1280.6 1514.09 1276.52 1513.9 1274.85 1512.45C1274.52 1512.11 1274.27 1511.69 1274.14 1511.23C1274.01 1510.77 1274 1510.29 1274.11 1509.82C1274.12 1509.62 1274.19 1509.43 1274.3 1509.27C1274.41 1509.11 1274.56 1508.98 1274.74 1508.89C1276.71 1508.04 1282.16 1510.78 1285.99 1513.01Z" fill="#951BAA"/>
<path d="M1288.06 1514.05H1288.44C1288.54 1513.98 1288.64 1513.89 1288.7 1513.78C1288.77 1513.67 1288.8 1513.55 1288.81 1513.42C1288.81 1513.01 1288.81 1504.07 1285.39 1501.1C1284.98 1500.7 1284.49 1500.41 1283.95 1500.23C1283.41 1500.06 1282.84 1500.01 1282.27 1500.09C1281.69 1500.1 1281.12 1500.3 1280.67 1500.67C1280.22 1501.05 1279.91 1501.56 1279.79 1502.13C1279.08 1505.85 1284.72 1512.34 1287.69 1514.05C1287.81 1514.09 1287.94 1514.09 1288.06 1514.05ZM1282.76 1501.47C1283.36 1501.47 1283.94 1501.69 1284.39 1502.1C1286.35 1504.98 1287.36 1508.41 1287.29 1511.9C1284.32 1509.52 1280.79 1504.47 1281.23 1502.36C1281.23 1502.02 1281.49 1501.58 1282.42 1501.47H1282.76Z" fill="#951BAA"/>
<path d="M1285.17 549.636C1281.46 568.196 1274.03 605.316 1286.84 617.751C1286.84 617.751 1281.79 636.311 1247.53 636.311C1209.82 636.311 1229.53 617.751 1229.53 617.751C1250.09 612.851 1249.53 597.595 1245.97 583.229L1285.17 549.636Z" fill="#FFB573"/>
<path d="M1222.29 625.175C1216.39 625.992 1221.43 610.661 1223.81 609.065C1229.38 605.353 1301.24 600.194 1300.76 609.065C1300.46 612.777 1298.68 620.201 1295.56 622.651C1292.44 625.101 1273.96 617.454 1222.29 625.175Z" fill="#263238"/>
<path d="M1234.02 619.904C1229.3 621.5 1229.75 606.058 1231.35 604.202C1235.06 599.896 1293.22 584.974 1294.93 593.4C1295.6 597.112 1295.93 604.536 1293.93 607.172C1291.92 609.808 1274.85 605.464 1234.02 619.904Z" fill="#263238"/>
<path d="M1212.38 516.376C1212.14 516.387 1211.91 516.341 1211.7 516.245C1211.48 516.148 1211.3 516.002 1211.15 515.82C1210.02 514.359 1208.56 513.185 1206.89 512.392C1205.22 511.599 1203.39 511.209 1201.54 511.254C1201.34 511.28 1201.15 511.266 1200.96 511.214C1200.77 511.163 1200.6 511.073 1200.44 510.952C1200.29 510.831 1200.17 510.68 1200.07 510.508C1199.98 510.337 1199.92 510.149 1199.9 509.955C1199.87 509.572 1199.99 509.193 1200.23 508.895C1200.47 508.597 1200.82 508.405 1201.2 508.358C1203.54 508.239 1205.87 508.687 1208 509.663C1210.12 510.639 1211.98 512.114 1213.42 513.964C1213.66 514.265 1213.78 514.652 1213.75 515.041C1213.72 515.43 1213.53 515.79 1213.23 516.042C1212.98 516.223 1212.68 516.338 1212.38 516.376Z" fill="#263238"/>
<path d="M1205.17 534.528C1203.49 540.45 1200.99 546.109 1197.75 551.343C1199.11 552.126 1200.63 552.602 1202.19 552.736C1203.76 552.871 1205.33 552.662 1206.81 552.123L1205.17 534.528Z" fill="#FF5652"/>
<path d="M1206.99 530.036C1207.25 532.523 1206.1 534.676 1204.47 534.825C1202.84 534.973 1201.31 533.117 1201.09 530.593C1200.87 528.069 1201.98 525.953 1203.58 525.805C1205.17 525.656 1206.73 527.512 1206.99 530.036Z" fill="#263238"/>
<path d="M1204.32 525.879L1198.16 524.728C1198.16 524.728 1201.69 529.108 1204.32 525.879Z" fill="#263238"/>
<path d="M1324.07 1513.35H1292.96L1295.41 1441.33H1326.52L1324.07 1513.35Z" fill="#FFB573"/>
<path d="M1290.51 1509.74H1325.44C1326.05 1509.73 1326.63 1509.94 1327.09 1510.33C1327.55 1510.72 1327.85 1511.26 1327.93 1511.86L1331.9 1539.48C1331.98 1540.18 1331.91 1540.88 1331.7 1541.55C1331.48 1542.22 1331.13 1542.84 1330.66 1543.36C1330.19 1543.88 1329.61 1544.3 1328.97 1544.58C1328.33 1544.87 1327.63 1545.01 1326.93 1545.01C1314.75 1544.82 1308.89 1544.08 1293.52 1544.08C1284.06 1544.08 1270.25 1545.08 1257.22 1545.08C1244.19 1545.08 1243.45 1532.17 1248.9 1531.01C1273.25 1525.74 1277.11 1518.54 1285.32 1511.64C1286.78 1510.42 1288.62 1509.76 1290.51 1509.74Z" fill="#263238"/>
<g opacity="0.2">
<path d="M1326.52 1441.33H1295.41L1294.15 1478.45H1325.26L1326.52 1441.33Z" fill="black"/>
</g>
<path d="M1200.35 660.736C1181.32 653.335 1162.67 644.972 1144.48 635.68C1125.7 626.502 1107.81 615.604 1091.03 603.126C1086.55 599.615 1082.31 595.808 1078.34 591.73C1077.3 590.616 1076.26 589.577 1075.26 588.278C1074.08 586.95 1072.99 585.549 1071.99 584.083C1069.25 580.095 1067.54 575.492 1067.01 570.683C1066.61 566.124 1067.23 561.531 1068.83 557.245C1070.12 553.8 1071.88 550.552 1074.07 547.594C1077.65 542.691 1081.89 538.296 1086.65 534.528C1095.06 527.831 1104.14 522.022 1113.75 517.193C1118.35 514.743 1123.03 512.553 1127.78 510.511C1132.53 508.47 1137.21 506.54 1142.29 504.795L1148.86 519.086C1132.68 529.294 1115.9 540.541 1103.58 553.088C1100.82 555.883 1098.39 558.984 1096.34 562.331C1094.56 565.263 1094.59 567.453 1094.89 567.268C1095.19 567.082 1094.89 567.268 1095.41 567.639L1096.9 569.235C1097.45 569.903 1098.23 570.572 1098.94 571.277C1102.08 574.171 1105.42 576.849 1108.92 579.295C1116.59 584.72 1124.57 589.678 1132.83 594.143C1141.18 598.82 1149.79 603.237 1158.55 607.469C1176.07 615.858 1194.19 623.913 1211.97 631.263L1200.35 660.736Z" fill="#FFB573"/>
<path d="M1158.14 509.101L1163.27 497.965L1139.81 489.984C1139.81 489.984 1132.38 511.922 1141.18 522.018C1144.86 521.44 1148.33 519.956 1151.29 517.701C1154.25 515.446 1156.61 512.491 1158.14 509.101Z" fill="#FFB573"/>
<path d="M1163.16 473.874L1144.48 468.454L1139.81 489.836L1163.16 497.965V473.874Z" fill="#FFB573"/>
<path d="M1404.44 499.041L1407.15 473.057L1383.09 478.848C1383.09 478.848 1382.72 503.273 1395.45 507.134L1404.44 499.041Z" fill="#FFB573"/>
<path d="M1395.56 454.757L1379.86 462.07L1383.09 478.662L1407.15 472.983L1395.56 454.757Z" fill="#FFB573"/>
<path d="M1290.07 513.184C1291.22 544.031 1292.33 557.06 1278.41 574.321C1257.44 600.305 1219.32 594.922 1209 565.041C1199.72 538.166 1199.42 492.248 1228.23 477.103C1234.56 473.736 1241.65 472.043 1248.82 472.184C1255.99 472.326 1263.01 474.297 1269.2 477.912C1275.4 481.526 1280.57 486.664 1284.22 492.837C1287.87 499.01 1289.88 506.014 1290.07 513.184Z" fill="#FFB573"/>
<path d="M1276.63 574.283C1306.92 561.18 1326.82 533.451 1318.43 490.466C1310.37 449.226 1282.53 445.143 1271.03 453.681C1259.52 462.218 1230.83 449.486 1213.6 463.963C1183.91 489.093 1211.97 515.931 1226.67 532.152C1235.43 550.193 1246.94 587.09 1276.63 574.283Z" fill="#263238"/>
<path d="M1264.05 483.08C1267.74 487.82 1272.74 491.374 1278.44 493.304C1284.13 495.233 1290.26 495.454 1296.08 493.939C1301.89 492.423 1307.14 489.238 1311.16 484.776C1315.19 480.314 1317.82 474.771 1318.73 468.83C1319.65 462.89 1318.8 456.812 1316.3 451.348C1313.79 445.884 1309.75 441.272 1304.65 438.081C1299.56 434.891 1293.64 433.262 1287.63 433.396C1281.62 433.529 1275.79 435.419 1270.84 438.833C1264.07 443.801 1259.56 451.253 1258.28 459.55C1257.01 467.847 1259.08 476.31 1264.05 483.08Z" fill="#951BAA"/>
<path d="M1271.92 456.576C1267.57 431.706 1291.07 412.552 1322.55 421.795C1354.03 431.037 1337.4 458.915 1330.9 481.187C1324.41 503.459 1341.41 524.691 1348.46 507.727C1355.51 490.764 1343.63 485.455 1343.63 485.455C1343.63 485.455 1377.04 494.104 1346.01 531.781C1314.98 569.458 1286.88 527.846 1294.49 503.31C1300.65 483.599 1276.04 480.073 1271.92 456.576Z" fill="#263238"/>
<path d="M1240.48 465.967C1226.11 458.543 1201.8 452.419 1187.95 475.73C1181.42 486.866 1183.94 501.714 1183.94 501.714L1226.22 504.498L1240.48 465.967Z" fill="#263238"/>
<path d="M1178.97 494.364C1178.72 494.345 1178.49 494.23 1178.32 494.043C1178.15 493.856 1178.07 493.612 1178.08 493.362C1178.08 492.731 1179.15 477.809 1188.17 468.454C1209.96 445.811 1235.5 464.742 1242.78 470.867C1242.93 471.033 1243.02 471.25 1243.03 471.478C1243.04 471.706 1242.96 471.928 1242.81 472.103C1242.67 472.277 1242.46 472.391 1242.24 472.424C1242.01 472.456 1241.78 472.404 1241.59 472.278C1234.57 466.264 1210.15 448.261 1189.62 469.717C1181.08 478.588 1180.05 493.325 1180.05 493.473C1180.04 493.606 1180.01 493.736 1179.95 493.855C1179.89 493.974 1179.81 494.079 1179.71 494.163C1179.61 494.248 1179.49 494.309 1179.36 494.344C1179.23 494.379 1179.1 494.385 1178.97 494.364Z" fill="#263238"/>
<path d="M1231.83 530.816C1231.66 536.656 1229.5 542.262 1225.7 546.703C1220.58 552.717 1214.57 549.747 1213.34 542.991C1212.12 537.015 1213.34 526.659 1219.8 523.058C1226.26 519.457 1231.9 524.06 1231.83 530.816Z" fill="#FFB573"/>
<path d="M1225.15 813.374C1225.15 813.374 1227.15 1029.23 1245.86 1149.5C1261 1246.64 1288.95 1471.29 1288.95 1471.29H1331.38C1331.38 1471.29 1335.5 1254.4 1327.67 1158.33C1308.26 915.194 1358.41 869.722 1317.95 813.374H1225.15Z" fill="#263238"/>
<path opacity="0.1" d="M1225.15 813.374C1225.15 813.374 1227.15 1029.23 1245.86 1149.5C1261 1246.64 1288.95 1471.29 1288.95 1471.29H1331.38C1331.38 1471.29 1335.5 1254.4 1327.67 1158.33C1308.26 915.194 1358.41 869.722 1317.95 813.374H1225.15Z" fill="white"/>
<path opacity="0.3" d="M1247.46 911.296C1262.3 976.441 1250.46 1079.04 1242.33 1124.22C1233.72 1055.62 1229.38 966.716 1227.22 901.496C1234.91 889.098 1242.18 888.281 1247.46 911.296Z" fill="black"/>
<path d="M1283.16 1472.11H1337.17L1339.99 1453.17L1282.87 1451.24L1283.16 1472.11Z" fill="#951BAA"/>
<path d="M1298.57 631.04C1303.65 620.943 1330.98 614.596 1345.9 614.633L1357.03 664.225C1357.03 664.225 1327.34 708.361 1314.94 703.684C1300.35 698.301 1287.69 652.829 1298.57 631.04Z" fill="#951BAA"/>
<path opacity="0.4" d="M1298.57 631.04C1303.65 620.943 1330.98 614.596 1345.9 614.633L1357.03 664.225C1357.03 664.225 1327.34 708.361 1314.94 703.684C1300.35 698.301 1287.69 652.829 1298.57 631.04Z" fill="black"/>
<path d="M1267.09 1459.97C1267.15 1459.86 1267.19 1459.74 1267.19 1459.61C1267.19 1459.49 1267.15 1459.37 1267.09 1459.26C1267.02 1459.12 1266.91 1459 1266.77 1458.93C1266.63 1458.86 1266.47 1458.83 1266.31 1458.85C1264.75 1459.11 1251.02 1461.27 1249.16 1465.2C1248.96 1465.56 1248.86 1465.96 1248.86 1466.37C1248.86 1466.78 1248.96 1467.18 1249.16 1467.54C1249.48 1468.13 1249.94 1468.63 1250.5 1468.99C1251.05 1469.36 1251.69 1469.59 1252.35 1469.66C1256.85 1470.1 1263.49 1463.86 1266.83 1460.08L1267.09 1459.97ZM1250.61 1465.68C1251.87 1463.6 1259 1461.67 1264.42 1460.67C1259.52 1465.65 1255.21 1468.43 1252.69 1468.1C1252.25 1468.05 1251.83 1467.9 1251.47 1467.65C1251.11 1467.41 1250.81 1467.08 1250.61 1466.69C1250.53 1466.54 1250.49 1466.38 1250.49 1466.22C1250.49 1466.06 1250.53 1465.9 1250.61 1465.76C1250.61 1465.76 1250.57 1465.72 1250.61 1465.68Z" fill="#951BAA"/>
<path d="M1299.5 1446.79L1271.06 1459.45L1258.41 1433.05L1241.85 1398.53L1239.88 1394.52L1268.32 1381.87L1270.51 1386.39L1286.54 1419.84L1299.5 1446.79Z" fill="#FFB573"/>
<path opacity="0.2" d="M1286.54 1419.84L1258.41 1433.05L1241.85 1398.53L1270.51 1386.39L1286.54 1419.84Z" fill="black"/>
<path d="M1191.81 813.374C1191.81 813.374 1100.98 1039.36 1125.59 1145.52C1147.86 1241.63 1246.23 1423.63 1246.23 1423.63L1284.35 1404.55C1284.35 1404.55 1223.51 1184.83 1216.94 1137.1C1204.1 1044.3 1286.62 913.152 1286.62 813.374H1191.81Z" fill="#263238"/>
<path opacity="0.1" d="M1191.81 813.374C1191.81 813.374 1100.98 1039.36 1125.59 1145.52C1147.86 1241.63 1246.23 1423.63 1246.23 1423.63L1284.35 1404.55C1284.35 1404.55 1223.51 1184.83 1216.94 1137.1C1204.1 1044.3 1286.62 913.152 1286.62 813.374H1191.81Z" fill="white"/>
<path d="M1266.02 1455.48L1294.23 1434.95C1294.7 1434.58 1295.3 1434.39 1295.9 1434.43C1296.51 1434.47 1297.07 1434.74 1297.49 1435.17L1316.98 1455.18C1317.45 1455.7 1317.81 1456.32 1318.03 1456.99C1318.25 1457.66 1318.32 1458.36 1318.25 1459.06C1318.18 1459.76 1317.96 1460.44 1317.6 1461.05C1317.25 1461.66 1316.77 1462.19 1316.2 1462.6C1306.22 1469.58 1301.06 1472.48 1288.66 1481.5C1281.01 1487.06 1265.79 1499.35 1255.25 1507.03C1244.71 1514.72 1236.69 1504.7 1240.4 1500.58C1257.03 1482.02 1260.52 1470.51 1263.12 1460.08C1263.52 1458.25 1264.55 1456.63 1266.02 1455.48Z" fill="#263238"/>
<path d="M1243.78 1431.68L1292.89 1409.22L1286.62 1389.22L1234.02 1413.2L1243.78 1431.68Z" fill="#951BAA"/>
<path d="M1215.9 628.664C1211.86 618.122 1176.37 606.392 1158.55 602.68L1150.72 661.033C1150.72 661.033 1179.82 702.83 1192.55 699.378C1207.63 695.295 1224.66 651.27 1215.9 628.664Z" fill="#951BAA"/>
<path opacity="0.4" d="M1215.9 628.664C1211.86 618.122 1176.37 606.392 1158.55 602.68L1150.72 661.033C1150.72 661.033 1179.82 702.83 1192.55 699.378C1207.63 695.295 1224.66 651.27 1215.9 628.664Z" fill="black"/>
<path d="M1176.96 625.732C1176.96 625.732 1162.12 630.929 1191.81 813.373H1318.02C1315.9 761.999 1315.83 730.299 1340.29 624.804C1322.61 621.155 1304.68 618.798 1286.65 617.751C1267.57 616.376 1248.42 616.376 1229.34 617.751C1204.88 619.904 1176.96 625.732 1176.96 625.732Z" fill="#951BAA"/>
<path opacity="0.4" d="M1176.96 625.732C1176.96 625.732 1162.12 630.929 1191.81 813.373H1318.02C1315.9 761.999 1315.83 730.299 1340.29 624.804C1322.61 621.155 1304.68 618.798 1286.65 617.751C1267.57 616.376 1248.42 616.376 1229.34 617.751C1204.88 619.904 1176.96 625.732 1176.96 625.732Z" fill="black"/>
<path d="M1319.99 805.987L1325.67 817.123C1326.11 818.013 1325.07 818.904 1323.63 818.904H1191.18C1190.03 818.904 1189.1 818.347 1189.03 817.605L1187.88 806.469C1187.88 805.69 1188.81 805.021 1190.03 805.021H1317.76C1318.19 804.954 1318.62 805.009 1319.01 805.18C1319.41 805.351 1319.75 805.631 1319.99 805.987Z" fill="#951BAA"/>
<path opacity="0.3" d="M1319.99 805.987L1325.67 817.123C1326.11 818.013 1325.07 818.904 1323.63 818.904H1191.18C1190.03 818.904 1189.1 818.347 1189.03 817.605L1187.88 806.469C1187.88 805.69 1188.81 805.021 1190.03 805.021H1317.76C1318.19 804.954 1318.62 805.009 1319.01 805.18C1319.41 805.351 1319.75 805.631 1319.99 805.987Z" fill="white"/>
<path d="M1302.91 820.352H1306.33C1307.03 820.352 1307.55 819.981 1307.48 819.572L1305.88 804.724C1305.88 804.279 1305.25 803.945 1304.58 803.945H1301.13C1300.46 803.945 1299.94 804.279 1299.98 804.724L1301.58 819.572C1301.54 819.906 1302.13 820.352 1302.91 820.352Z" fill="#263238"/>
<path d="M1219.8 820.352H1223.22C1223.88 820.352 1224.4 819.981 1224.37 819.572L1222.77 804.724C1222.77 804.279 1222.14 803.945 1221.43 803.945H1218.02C1217.31 803.945 1216.83 804.279 1216.87 804.724L1218.46 819.572C1218.5 819.906 1219.1 820.352 1219.8 820.352Z" fill="#263238"/>
</svg>
