<svg width="454" height="454" viewBox="0 0 454 454" fill="none" xmlns="http://www.w3.org/2000/svg">
<g clip-path="url(#clip0_102_7)">
<path d="M1.5 426.3H408.5" stroke="#E0E0E0" stroke-width="0.7941" stroke-miterlimit="10" stroke-linecap="round" stroke-linejoin="round"/>
<path d="M1.5 414.3H408.5" stroke="#E0E0E0" stroke-width="0.7941" stroke-miterlimit="10" stroke-linecap="round" stroke-linejoin="round"/>
<path d="M1.5 402.3H408.5" stroke="#E0E0E0" stroke-width="0.7941" stroke-miterlimit="10" stroke-linecap="round" stroke-linejoin="round"/>
<path d="M1.5 390.3H408.5" stroke="#E0E0E0" stroke-width="0.7941" stroke-miterlimit="10" stroke-linecap="round" stroke-linejoin="round"/>
<path d="M1.5 378.3H408.5" stroke="#E0E0E0" stroke-width="0.7941" stroke-miterlimit="10" stroke-linecap="round" stroke-linejoin="round"/>
<path d="M1.5 366.3H408.5" stroke="#E0E0E0" stroke-width="0.7941" stroke-miterlimit="10" stroke-linecap="round" stroke-linejoin="round"/>
<path d="M1.5 354.3H408.5" stroke="#E0E0E0" stroke-width="0.7941" stroke-miterlimit="10" stroke-linecap="round" stroke-linejoin="round"/>
<path d="M1.5 342.3H408.5" stroke="#E0E0E0" stroke-width="0.7941" stroke-miterlimit="10" stroke-linecap="round" stroke-linejoin="round"/>
<path d="M1.5 330.3H408.5" stroke="#E0E0E0" stroke-width="0.7941" stroke-miterlimit="10" stroke-linecap="round" stroke-linejoin="round"/>
<path d="M1.5 318.3H408.5" stroke="#E0E0E0" stroke-width="0.7941" stroke-miterlimit="10" stroke-linecap="round" stroke-linejoin="round"/>
<path d="M1.5 306.3H408.5" stroke="#E0E0E0" stroke-width="0.7941" stroke-miterlimit="10" stroke-linecap="round" stroke-linejoin="round"/>
<path d="M1.5 294.3H408.5" stroke="#E0E0E0" stroke-width="0.7941" stroke-miterlimit="10" stroke-linecap="round" stroke-linejoin="round"/>
<path d="M1.5 282.3H408.5" stroke="#E0E0E0" stroke-width="0.7941" stroke-miterlimit="10" stroke-linecap="round" stroke-linejoin="round"/>
<path d="M1.5 270.3H408.5" stroke="#E0E0E0" stroke-width="0.7941" stroke-miterlimit="10" stroke-linecap="round" stroke-linejoin="round"/>
<path d="M1.5 258.3H408.5" stroke="#E0E0E0" stroke-width="0.7941" stroke-miterlimit="10" stroke-linecap="round" stroke-linejoin="round"/>
<path d="M1.5 246.3H408.5" stroke="#E0E0E0" stroke-width="0.7941" stroke-miterlimit="10" stroke-linecap="round" stroke-linejoin="round"/>
<path d="M1.5 234.3H408.5" stroke="#E0E0E0" stroke-width="0.7941" stroke-miterlimit="10" stroke-linecap="round" stroke-linejoin="round"/>
<path d="M1.5 222.3H408.5" stroke="#E0E0E0" stroke-width="0.7941" stroke-miterlimit="10" stroke-linecap="round" stroke-linejoin="round"/>
<path d="M1.5 210.3H408.5" stroke="#E0E0E0" stroke-width="0.7941" stroke-miterlimit="10" stroke-linecap="round" stroke-linejoin="round"/>
<path d="M1.5 198.3H408.5" stroke="#E0E0E0" stroke-width="0.7941" stroke-miterlimit="10" stroke-linecap="round" stroke-linejoin="round"/>
<path d="M1.5 186.3H408.5" stroke="#E0E0E0" stroke-width="0.7941" stroke-miterlimit="10" stroke-linecap="round" stroke-linejoin="round"/>
<path d="M1.5 174.3H408.5" stroke="#E0E0E0" stroke-width="0.7941" stroke-miterlimit="10" stroke-linecap="round" stroke-linejoin="round"/>
<path d="M1.5 162.3H408.5" stroke="#E0E0E0" stroke-width="0.7941" stroke-miterlimit="10" stroke-linecap="round" stroke-linejoin="round"/>
<path d="M1.5 150.3H408.5" stroke="#E0E0E0" stroke-width="0.7941" stroke-miterlimit="10" stroke-linecap="round" stroke-linejoin="round"/>
<path d="M1.5 138.3H408.5" stroke="#E0E0E0" stroke-width="0.7941" stroke-miterlimit="10" stroke-linecap="round" stroke-linejoin="round"/>
<path d="M408.5 428.9H1.5C0.7 428.9 0 428.2 0 427.4C0 426.6 0.7 425.9 1.5 425.9H408.5C409.3 425.9 410 426.6 410 427.4C410 428.3 409.3 428.9 408.5 428.9Z" fill="#4C4F60"/>
<path d="M85.6 390.3L54.5 366.3L23.5 390.3V426.3H85.6V390.3Z" fill="url(#paint0_linear_102_7)"/>
<path d="M85.6 438.3H23.5V451.3H85.6V438.3Z" fill="#FBB831"/>
<path d="M37.8631 441.757V446.537C37.8631 447.277 37.6531 447.847 37.2331 448.247C36.8198 448.647 36.2598 448.847 35.5531 448.847C34.8131 448.847 34.2198 448.637 33.7731 448.217C33.3265 447.797 33.1031 447.2 33.1031 446.427H34.8031C34.8031 446.72 34.8631 446.944 34.9831 447.097C35.1031 447.244 35.2765 447.317 35.5031 447.317C35.7098 447.317 35.8698 447.25 35.9831 447.117C36.0965 446.984 36.1531 446.79 36.1531 446.537V441.757H37.8631ZM38.9044 445.977C38.9044 445.404 39.0111 444.9 39.2244 444.467C39.4444 444.034 39.7411 443.7 40.1144 443.467C40.4877 443.234 40.9044 443.117 41.3644 443.117C41.7577 443.117 42.1011 443.197 42.3944 443.357C42.6944 443.517 42.9244 443.727 43.0844 443.987V443.197H44.7944V448.777H43.0844V447.987C42.9177 448.247 42.6844 448.457 42.3844 448.617C42.0911 448.777 41.7477 448.857 41.3544 448.857C40.9011 448.857 40.4877 448.74 40.1144 448.507C39.7411 448.267 39.4444 447.93 39.2244 447.497C39.0111 447.057 38.9044 446.55 38.9044 445.977ZM43.0844 445.987C43.0844 445.56 42.9644 445.224 42.7244 444.977C42.4911 444.73 42.2044 444.607 41.8644 444.607C41.5244 444.607 41.2344 444.73 40.9944 444.977C40.7611 445.217 40.6444 445.55 40.6444 445.977C40.6444 446.404 40.7611 446.744 40.9944 446.997C41.2344 447.244 41.5244 447.367 41.8644 447.367C42.2044 447.367 42.4911 447.244 42.7244 446.997C42.9644 446.75 43.0844 446.414 43.0844 445.987ZM49.4315 443.137C50.0848 443.137 50.6048 443.35 50.9915 443.777C51.3848 444.197 51.5815 444.777 51.5815 445.517V448.777H49.8815V445.747C49.8815 445.374 49.7848 445.084 49.5915 444.877C49.3982 444.67 49.1382 444.567 48.8115 444.567C48.4848 444.567 48.2248 444.67 48.0315 444.877C47.8382 445.084 47.7415 445.374 47.7415 445.747V448.777H46.0315V443.197H47.7415V443.937C47.9148 443.69 48.1482 443.497 48.4415 443.357C48.7348 443.21 49.0648 443.137 49.4315 443.137ZM58.2798 443.197V448.777H56.5698V448.017C56.3964 448.264 56.1598 448.464 55.8598 448.617C55.5664 448.764 55.2398 448.837 54.8798 448.837C54.4531 448.837 54.0764 448.744 53.7498 448.557C53.4231 448.364 53.1698 448.087 52.9898 447.727C52.8098 447.367 52.7198 446.944 52.7198 446.457V443.197H54.4198V446.227C54.4198 446.6 54.5164 446.89 54.7098 447.097C54.9031 447.304 55.1631 447.407 55.4898 447.407C55.8231 447.407 56.0864 447.304 56.2798 447.097C56.4731 446.89 56.5698 446.6 56.5698 446.227V443.197H58.2798ZM59.1681 445.977C59.1681 445.404 59.2747 444.9 59.4881 444.467C59.7081 444.034 60.0047 443.7 60.3781 443.467C60.7514 443.234 61.1681 443.117 61.6281 443.117C62.0214 443.117 62.3647 443.197 62.6581 443.357C62.9581 443.517 63.1881 443.727 63.3481 443.987V443.197H65.0581V448.777H63.3481V447.987C63.1814 448.247 62.9481 448.457 62.6481 448.617C62.3547 448.777 62.0114 448.857 61.6181 448.857C61.1647 448.857 60.7514 448.74 60.3781 448.507C60.0047 448.267 59.7081 447.93 59.4881 447.497C59.2747 447.057 59.1681 446.55 59.1681 445.977ZM63.3481 445.987C63.3481 445.56 63.2281 445.224 62.9881 444.977C62.7547 444.73 62.4681 444.607 62.1281 444.607C61.7881 444.607 61.4981 444.73 61.2581 444.977C61.0247 445.217 60.9081 445.55 60.9081 445.977C60.9081 446.404 61.0247 446.744 61.2581 446.997C61.4981 447.244 61.7881 447.367 62.1281 447.367C62.4681 447.367 62.7547 447.244 62.9881 446.997C63.2281 446.75 63.3481 446.414 63.3481 445.987ZM68.0052 444.127C68.2052 443.82 68.4552 443.58 68.7552 443.407C69.0552 443.227 69.3885 443.137 69.7552 443.137V444.947H69.2852C68.8585 444.947 68.5385 445.04 68.3252 445.227C68.1118 445.407 68.0052 445.727 68.0052 446.187V448.777H66.2952V443.197H68.0052V444.127ZM76.2725 443.197L72.7725 451.427H70.9325L72.2125 448.587L69.9425 443.197H71.8525L73.1425 446.687L74.4225 443.197H76.2725Z" fill="white"/>
<path d="M39.7688 350.186H35.7847V354.261H32.0754V350.186H28.0914V346.682H32.0754V342.584H35.7847V346.682H39.7688V350.186ZM41.7363 343.362V339.722H48.0787V356.437H44.0031V343.362H41.7363ZM50.6197 353.3C51.1387 352.888 51.3753 352.697 51.3295 352.727C52.8254 351.491 54.0008 350.476 54.8556 349.682C55.7257 348.888 56.4584 348.056 57.0537 347.186C57.649 346.316 57.9467 345.469 57.9467 344.645C57.9467 344.019 57.8017 343.53 57.5116 343.179C57.2216 342.828 56.7866 342.653 56.2065 342.653C55.6265 342.653 55.1685 342.874 54.8327 343.317C54.5122 343.744 54.3519 344.355 54.3519 345.148H50.5739C50.6044 343.851 50.8792 342.767 51.3982 341.897C51.9324 341.027 52.627 340.386 53.4818 339.974C54.3519 339.562 55.3135 339.356 56.3668 339.356C58.1833 339.356 59.5494 339.821 60.4653 340.752C61.3965 341.683 61.862 342.897 61.862 344.393C61.862 346.026 61.3049 347.545 60.1906 348.949C59.0762 350.338 57.6566 351.697 55.9318 353.025H62.1139V356.208H50.6197V353.3ZM66.0588 356.62C65.3719 356.62 64.8071 356.421 64.3644 356.024C63.937 355.612 63.7233 355.109 63.7233 354.513C63.7233 353.903 63.937 353.391 64.3644 352.979C64.8071 352.567 65.3719 352.361 66.0588 352.361C66.7304 352.361 67.2799 352.567 67.7073 352.979C68.15 353.391 68.3713 353.903 68.3713 354.513C68.3713 355.109 68.15 355.612 67.7073 356.024C67.2799 356.421 66.7304 356.62 66.0588 356.62ZM70.1625 353.3C70.6815 352.888 70.9181 352.697 70.8723 352.727C72.3682 351.491 73.5436 350.476 74.3984 349.682C75.2685 348.888 76.0012 348.056 76.5965 347.186C77.1918 346.316 77.4894 345.469 77.4894 344.645C77.4894 344.019 77.3444 343.53 77.0544 343.179C76.7644 342.828 76.3293 342.653 75.7493 342.653C75.1692 342.653 74.7113 342.874 74.3755 343.317C74.0549 343.744 73.8946 344.355 73.8946 345.148H70.1167C70.1472 343.851 70.422 342.767 70.941 341.897C71.4752 341.027 72.1698 340.386 73.0246 339.974C73.8946 339.562 74.8563 339.356 75.9096 339.356C77.726 339.356 79.0922 339.821 80.0081 340.752C80.9392 341.683 81.4048 342.897 81.4048 344.393C81.4048 346.026 80.8476 347.545 79.7333 348.949C78.619 350.338 77.1994 351.697 75.4745 353.025H81.6567V356.208H70.1625V353.3Z" fill="#FDC730"/>
<path d="M160.8 342.3L129.8 318.3L98.7 342.3V426.3H160.8V342.3Z" fill="url(#paint1_linear_102_7)"/>
<path d="M160.8 438.3H98.7V451.3H160.8V438.3Z" fill="#FB569C"/>
<path d="M111.544 441.757V443.127H108.684V444.607H110.824V445.937H108.684V448.777H106.974V441.757H111.544ZM117.703 445.897C117.703 446.057 117.693 446.224 117.673 446.397H113.803C113.83 446.744 113.94 447.01 114.133 447.197C114.333 447.377 114.577 447.467 114.863 447.467C115.29 447.467 115.587 447.287 115.753 446.927H117.573C117.48 447.294 117.31 447.624 117.063 447.917C116.823 448.21 116.52 448.44 116.153 448.607C115.787 448.774 115.377 448.857 114.923 448.857C114.377 448.857 113.89 448.74 113.463 448.507C113.037 448.274 112.703 447.94 112.463 447.507C112.223 447.074 112.103 446.567 112.103 445.987C112.103 445.407 112.22 444.9 112.453 444.467C112.693 444.034 113.027 443.7 113.453 443.467C113.88 443.234 114.37 443.117 114.923 443.117C115.463 443.117 115.943 443.23 116.363 443.457C116.783 443.684 117.11 444.007 117.343 444.427C117.583 444.847 117.703 445.337 117.703 445.897ZM115.953 445.447C115.953 445.154 115.853 444.92 115.653 444.747C115.453 444.574 115.203 444.487 114.903 444.487C114.617 444.487 114.373 444.57 114.173 444.737C113.98 444.904 113.86 445.14 113.813 445.447H115.953ZM120.315 443.987C120.475 443.727 120.705 443.517 121.005 443.357C121.305 443.197 121.649 443.117 122.035 443.117C122.495 443.117 122.912 443.234 123.285 443.467C123.659 443.7 123.952 444.034 124.165 444.467C124.385 444.9 124.495 445.404 124.495 445.977C124.495 446.55 124.385 447.057 124.165 447.497C123.952 447.93 123.659 448.267 123.285 448.507C122.912 448.74 122.495 448.857 122.035 448.857C121.642 448.857 121.299 448.78 121.005 448.627C120.712 448.467 120.482 448.257 120.315 447.997V448.777H118.605V441.377H120.315V443.987ZM122.755 445.977C122.755 445.55 122.635 445.217 122.395 444.977C122.162 444.73 121.872 444.607 121.525 444.607C121.185 444.607 120.895 444.73 120.655 444.977C120.422 445.224 120.305 445.56 120.305 445.987C120.305 446.414 120.422 446.75 120.655 446.997C120.895 447.244 121.185 447.367 121.525 447.367C121.865 447.367 122.155 447.244 122.395 446.997C122.635 446.744 122.755 446.404 122.755 445.977ZM127.102 444.127C127.302 443.82 127.552 443.58 127.852 443.407C128.152 443.227 128.486 443.137 128.852 443.137V444.947H128.382C127.956 444.947 127.636 445.04 127.422 445.227C127.209 445.407 127.102 445.727 127.102 446.187V448.777H125.392V443.197H127.102V444.127ZM135.18 443.197V448.777H133.47V448.017C133.296 448.264 133.06 448.464 132.76 448.617C132.466 448.764 132.14 448.837 131.78 448.837C131.353 448.837 130.976 448.744 130.65 448.557C130.323 448.364 130.07 448.087 129.89 447.727C129.71 447.367 129.62 446.944 129.62 446.457V443.197H131.32V446.227C131.32 446.6 131.416 446.89 131.61 447.097C131.803 447.304 132.063 447.407 132.39 447.407C132.723 447.407 132.986 447.304 133.18 447.097C133.373 446.89 133.47 446.6 133.47 446.227V443.197H135.18ZM136.068 445.977C136.068 445.404 136.175 444.9 136.388 444.467C136.608 444.034 136.905 443.7 137.278 443.467C137.651 443.234 138.068 443.117 138.528 443.117C138.921 443.117 139.265 443.197 139.558 443.357C139.858 443.517 140.088 443.727 140.248 443.987V443.197H141.958V448.777H140.248V447.987C140.081 448.247 139.848 448.457 139.548 448.617C139.255 448.777 138.911 448.857 138.518 448.857C138.065 448.857 137.651 448.74 137.278 448.507C136.905 448.267 136.608 447.93 136.388 447.497C136.175 447.057 136.068 446.55 136.068 445.977ZM140.248 445.987C140.248 445.56 140.128 445.224 139.888 444.977C139.655 444.73 139.368 444.607 139.028 444.607C138.688 444.607 138.398 444.73 138.158 444.977C137.925 445.217 137.808 445.55 137.808 445.977C137.808 446.404 137.925 446.744 138.158 446.997C138.398 447.244 138.688 447.367 139.028 447.367C139.368 447.367 139.655 447.244 139.888 446.997C140.128 446.75 140.248 446.414 140.248 445.987ZM144.905 444.127C145.105 443.82 145.355 443.58 145.655 443.407C145.955 443.227 146.289 443.137 146.655 443.137V444.947H146.185C145.759 444.947 145.439 445.04 145.225 445.227C145.012 445.407 144.905 445.727 144.905 446.187V448.777H143.195V443.197H144.905V444.127ZM153.173 443.197L149.673 451.427H147.833L149.113 448.587L146.843 443.197H148.753L150.043 446.687L151.323 443.197H153.173Z" fill="white"/>
<path d="M111.476 302.186H107.492V306.261H103.782V302.186H99.7982V298.682H103.782V294.584H107.492V298.682H111.476V302.186ZM113.718 305.3C114.237 304.888 114.473 304.697 114.428 304.727C115.924 303.491 117.099 302.476 117.954 301.682C118.824 300.888 119.557 300.056 120.152 299.186C120.747 298.316 121.045 297.469 121.045 296.645C121.045 296.019 120.9 295.53 120.61 295.179C120.32 294.828 119.885 294.653 119.305 294.653C118.725 294.653 118.267 294.874 117.931 295.317C117.61 295.744 117.45 296.355 117.45 297.148H113.672C113.703 295.851 113.977 294.767 114.496 293.897C115.031 293.027 115.725 292.386 116.58 291.974C117.45 291.562 118.412 291.356 119.465 291.356C121.281 291.356 122.648 291.821 123.563 292.752C124.495 293.683 124.96 294.897 124.96 296.393C124.96 298.026 124.403 299.545 123.289 300.949C122.174 302.338 120.755 303.697 119.03 305.025H125.212V308.208H113.718V305.3ZM127.073 296.439C127.134 294.805 127.669 293.546 128.676 292.661C129.684 291.775 131.05 291.333 132.775 291.333C133.919 291.333 134.896 291.531 135.705 291.928C136.53 292.325 137.148 292.867 137.56 293.554C137.987 294.241 138.201 295.011 138.201 295.866C138.201 296.874 137.949 297.698 137.446 298.339C136.942 298.965 136.354 299.392 135.682 299.621V299.713C136.553 300.003 137.239 300.484 137.743 301.155C138.247 301.827 138.499 302.689 138.499 303.743C138.499 304.689 138.277 305.529 137.835 306.261C137.407 306.979 136.774 307.544 135.934 307.956C135.11 308.368 134.125 308.574 132.981 308.574C131.149 308.574 129.684 308.124 128.584 307.223C127.501 306.322 126.928 304.964 126.867 303.147H130.668C130.683 303.819 130.874 304.353 131.24 304.75C131.607 305.132 132.141 305.323 132.843 305.323C133.439 305.323 133.897 305.155 134.217 304.819C134.553 304.468 134.721 304.01 134.721 303.445C134.721 302.712 134.484 302.186 134.011 301.865C133.553 301.529 132.813 301.361 131.79 301.361H131.057V298.179H131.79C132.569 298.179 133.194 298.049 133.668 297.79C134.156 297.515 134.4 297.034 134.4 296.347C134.4 295.797 134.248 295.37 133.942 295.065C133.637 294.76 133.217 294.607 132.683 294.607C132.103 294.607 131.668 294.782 131.378 295.133C131.103 295.485 130.943 295.92 130.897 296.439H127.073ZM143.02 308.62C142.333 308.62 141.768 308.421 141.326 308.024C140.898 307.612 140.685 307.109 140.685 306.513C140.685 305.903 140.898 305.391 141.326 304.979C141.768 304.567 142.333 304.361 143.02 304.361C143.692 304.361 144.241 304.567 144.669 304.979C145.111 305.391 145.333 305.903 145.333 306.513C145.333 307.109 145.111 307.612 144.669 308.024C144.241 308.421 143.692 308.62 143.02 308.62ZM159.03 295.133H151.886V298.293C152.192 297.957 152.619 297.683 153.169 297.469C153.718 297.255 154.313 297.148 154.955 297.148C156.099 297.148 157.046 297.408 157.794 297.927C158.557 298.446 159.114 299.118 159.465 299.942C159.816 300.766 159.992 301.659 159.992 302.621C159.992 304.407 159.488 305.826 158.481 306.88C157.473 307.918 156.054 308.437 154.222 308.437C153.001 308.437 151.94 308.23 151.039 307.818C150.139 307.391 149.444 306.803 148.956 306.055C148.467 305.307 148.2 304.445 148.154 303.468H151.978C152.07 303.941 152.291 304.338 152.642 304.659C152.993 304.964 153.474 305.116 154.085 305.116C154.802 305.116 155.336 304.888 155.687 304.43C156.038 303.972 156.214 303.361 156.214 302.598C156.214 301.85 156.031 301.277 155.664 300.881C155.298 300.484 154.764 300.285 154.062 300.285C153.543 300.285 153.115 300.415 152.779 300.675C152.444 300.919 152.222 301.247 152.115 301.659H148.337V291.699H159.03V295.133Z" fill="#FF819D"/>
<path d="M236 318.3L205.2 294.3L174 318.3V426.3H236V318.3Z" fill="url(#paint2_linear_102_7)"/>
<path d="M236.1 438.3H174V451.3H236.1V438.3Z" fill="#E850E0"/>
<path d="M197.052 441.757V448.777H195.342V444.567L193.772 448.777H192.392L190.812 444.557V448.777H189.102V441.757H191.122L193.092 446.617L195.042 441.757H197.052ZM197.941 445.977C197.941 445.404 198.048 444.9 198.261 444.467C198.481 444.034 198.778 443.7 199.151 443.467C199.525 443.234 199.941 443.117 200.401 443.117C200.795 443.117 201.138 443.197 201.431 443.357C201.731 443.517 201.961 443.727 202.121 443.987V443.197H203.831V448.777H202.121V447.987C201.955 448.247 201.721 448.457 201.421 448.617C201.128 448.777 200.785 448.857 200.391 448.857C199.938 448.857 199.525 448.74 199.151 448.507C198.778 448.267 198.481 447.93 198.261 447.497C198.048 447.057 197.941 446.55 197.941 445.977ZM202.121 445.987C202.121 445.56 202.001 445.224 201.761 444.977C201.528 444.73 201.241 444.607 200.901 444.607C200.561 444.607 200.271 444.73 200.031 444.977C199.798 445.217 199.681 445.55 199.681 445.977C199.681 446.404 199.798 446.744 200.031 446.997C200.271 447.244 200.561 447.367 200.901 447.367C201.241 447.367 201.528 447.244 201.761 446.997C202.001 446.75 202.121 446.414 202.121 445.987ZM206.778 444.127C206.978 443.82 207.228 443.58 207.528 443.407C207.828 443.227 208.162 443.137 208.528 443.137V444.947H208.058C207.632 444.947 207.312 445.04 207.098 445.227C206.885 445.407 206.778 445.727 206.778 446.187V448.777H205.068V443.197H206.778V444.127ZM209.006 445.987C209.006 445.407 209.122 444.9 209.356 444.467C209.596 444.034 209.926 443.7 210.346 443.467C210.772 443.234 211.259 443.117 211.806 443.117C212.506 443.117 213.089 443.3 213.556 443.667C214.029 444.034 214.339 444.55 214.486 445.217H212.666C212.512 444.79 212.216 444.577 211.776 444.577C211.462 444.577 211.212 444.7 211.026 444.947C210.839 445.187 210.746 445.534 210.746 445.987C210.746 446.44 210.839 446.79 211.026 447.037C211.212 447.277 211.462 447.397 211.776 447.397C212.216 447.397 212.512 447.184 212.666 446.757H214.486C214.339 447.41 214.029 447.924 213.556 448.297C213.082 448.67 212.499 448.857 211.806 448.857C211.259 448.857 210.772 448.74 210.346 448.507C209.926 448.274 209.596 447.94 209.356 447.507C209.122 447.074 209.006 446.567 209.006 445.987ZM218.83 443.137C219.47 443.137 219.984 443.35 220.37 443.777C220.757 444.197 220.95 444.777 220.95 445.517V448.777H219.25V445.747C219.25 445.374 219.154 445.084 218.96 444.877C218.767 444.67 218.507 444.567 218.18 444.567C217.854 444.567 217.594 444.67 217.4 444.877C217.207 445.084 217.11 445.374 217.11 445.747V448.777H215.4V441.377H217.11V443.947C217.284 443.7 217.52 443.504 217.82 443.357C218.12 443.21 218.457 443.137 218.83 443.137Z" fill="white"/>
<path d="M186.707 278.186H182.723V282.261H179.013V278.186H175.029V274.682H179.013V270.584H182.723V274.682H186.707V278.186ZM189.224 272.439C189.285 270.805 189.819 269.546 190.827 268.661C191.834 267.775 193.2 267.333 194.925 267.333C196.07 267.333 197.047 267.531 197.856 267.928C198.68 268.325 199.298 268.867 199.711 269.554C200.138 270.241 200.352 271.011 200.352 271.866C200.352 272.874 200.1 273.698 199.596 274.339C199.092 274.965 198.505 275.392 197.833 275.621V275.713C198.703 276.003 199.39 276.484 199.894 277.155C200.397 277.827 200.649 278.689 200.649 279.743C200.649 280.689 200.428 281.529 199.985 282.261C199.558 282.979 198.924 283.544 198.085 283.956C197.261 284.368 196.276 284.574 195.131 284.574C193.299 284.574 191.834 284.124 190.735 283.223C189.651 282.322 189.079 280.964 189.018 279.147H192.819C192.834 279.819 193.025 280.353 193.391 280.75C193.757 281.132 194.292 281.323 194.994 281.323C195.589 281.323 196.047 281.155 196.368 280.819C196.703 280.468 196.871 280.01 196.871 279.445C196.871 278.712 196.635 278.186 196.162 277.865C195.704 277.529 194.963 277.361 193.941 277.361H193.208V274.179H193.941C194.719 274.179 195.345 274.049 195.818 273.79C196.307 273.515 196.551 273.034 196.551 272.347C196.551 271.797 196.398 271.37 196.093 271.065C195.788 270.76 195.368 270.607 194.833 270.607C194.253 270.607 193.818 270.782 193.528 271.133C193.254 271.485 193.093 271.92 193.048 272.439H189.224ZM202.812 281.3C203.331 280.888 203.568 280.697 203.522 280.727C205.018 279.491 206.193 278.476 207.048 277.682C207.918 276.888 208.651 276.056 209.246 275.186C209.842 274.316 210.139 273.469 210.139 272.645C210.139 272.019 209.994 271.53 209.704 271.179C209.414 270.828 208.979 270.653 208.399 270.653C207.819 270.653 207.361 270.874 207.025 271.317C206.705 271.744 206.544 272.355 206.544 273.148H202.767C202.797 271.851 203.072 270.767 203.591 269.897C204.125 269.027 204.82 268.386 205.674 267.974C206.544 267.562 207.506 267.356 208.559 267.356C210.376 267.356 211.742 267.821 212.658 268.752C213.589 269.683 214.055 270.897 214.055 272.393C214.055 274.026 213.497 275.545 212.383 276.949C211.269 278.338 209.849 279.697 208.124 281.025H214.307V284.208H202.812V281.3ZM218.251 284.62C217.564 284.62 217 284.421 216.557 284.024C216.13 283.612 215.916 283.109 215.916 282.513C215.916 281.903 216.13 281.391 216.557 280.979C217 280.567 217.564 280.361 218.251 280.361C218.923 280.361 219.473 280.567 219.9 280.979C220.343 281.391 220.564 281.903 220.564 282.513C220.564 283.109 220.343 283.612 219.9 284.024C219.473 284.421 218.923 284.62 218.251 284.62ZM234.261 271.133H227.118V274.293C227.423 273.957 227.85 273.683 228.4 273.469C228.949 273.255 229.545 273.148 230.186 273.148C231.331 273.148 232.277 273.408 233.025 273.927C233.788 274.446 234.345 275.118 234.696 275.942C235.048 276.766 235.223 277.659 235.223 278.621C235.223 280.407 234.719 281.826 233.712 282.88C232.704 283.918 231.285 284.437 229.453 284.437C228.232 284.437 227.171 284.23 226.27 283.818C225.37 283.391 224.675 282.803 224.187 282.055C223.698 281.307 223.431 280.445 223.385 279.468H227.209C227.301 279.941 227.522 280.338 227.873 280.659C228.224 280.964 228.705 281.116 229.316 281.116C230.033 281.116 230.567 280.888 230.918 280.43C231.27 279.972 231.445 279.361 231.445 278.598C231.445 277.85 231.262 277.277 230.896 276.881C230.529 276.484 229.995 276.285 229.293 276.285C228.774 276.285 228.346 276.415 228.011 276.675C227.675 276.919 227.453 277.247 227.347 277.659H223.569V267.699H234.261V271.133Z" fill="#FF63DE"/>
<path d="M311.3 282.3L280.2 258.3L249.2 282.3V426.3H311.3V282.3Z" fill="url(#paint3_linear_102_7)"/>
<path d="M311.3 438.3H249.2V451.3H311.3V438.3Z" fill="#8225E2"/>
<path d="M273.052 447.537H270.432L270.012 448.777H268.222L270.762 441.757H272.742L275.282 448.777H273.472L273.052 447.537ZM272.612 446.217L271.742 443.647L270.882 446.217H272.612ZM277.765 443.987C277.931 443.727 278.161 443.517 278.455 443.357C278.748 443.197 279.091 443.117 279.485 443.117C279.945 443.117 280.361 443.234 280.735 443.467C281.108 443.7 281.401 444.034 281.615 444.467C281.835 444.9 281.945 445.404 281.945 445.977C281.945 446.55 281.835 447.057 281.615 447.497C281.401 447.93 281.108 448.267 280.735 448.507C280.361 448.74 279.945 448.857 279.485 448.857C279.098 448.857 278.755 448.777 278.455 448.617C278.161 448.457 277.931 448.25 277.765 447.997V451.437H276.055V443.197H277.765V443.987ZM280.205 445.977C280.205 445.55 280.085 445.217 279.845 444.977C279.611 444.73 279.321 444.607 278.975 444.607C278.635 444.607 278.345 444.73 278.105 444.977C277.871 445.224 277.755 445.56 277.755 445.987C277.755 446.414 277.871 446.75 278.105 446.997C278.345 447.244 278.635 447.367 278.975 447.367C279.315 447.367 279.605 447.244 279.845 446.997C280.085 446.744 280.205 446.404 280.205 445.977ZM284.552 444.127C284.752 443.82 285.002 443.58 285.302 443.407C285.602 443.227 285.935 443.137 286.302 443.137V444.947H285.832C285.405 444.947 285.085 445.04 284.872 445.227C284.658 445.407 284.552 445.727 284.552 446.187V448.777H282.842V443.197H284.552V444.127ZM287.979 442.617C287.679 442.617 287.432 442.53 287.239 442.357C287.052 442.177 286.959 441.957 286.959 441.697C286.959 441.43 287.052 441.21 287.239 441.037C287.432 440.857 287.679 440.767 287.979 440.767C288.272 440.767 288.512 440.857 288.699 441.037C288.892 441.21 288.989 441.43 288.989 441.697C288.989 441.957 288.892 442.177 288.699 442.357C288.512 442.53 288.272 442.617 287.979 442.617ZM288.829 443.197V448.777H287.119V443.197H288.829ZM291.778 441.377V448.777H290.068V441.377H291.778Z" fill="white"/>
<path d="M261.239 242.186H257.255V246.261H253.546V242.186H249.562V238.682H253.546V234.584H257.255V238.682H261.239V242.186ZM263.71 245.46V242.3L270.946 231.951H275.319V242.071H277.197V245.46H275.319V248.437H271.404V245.46H263.71ZM271.679 236.255L267.832 242.071H271.679V236.255ZM279.252 236.439C279.313 234.805 279.847 233.546 280.855 232.661C281.862 231.775 283.228 231.333 284.953 231.333C286.098 231.333 287.075 231.531 287.884 231.928C288.708 232.325 289.326 232.867 289.739 233.554C290.166 234.241 290.38 235.011 290.38 235.866C290.38 236.874 290.128 237.698 289.624 238.339C289.12 238.965 288.533 239.392 287.861 239.621V239.713C288.731 240.003 289.418 240.484 289.922 241.155C290.425 241.827 290.677 242.689 290.677 243.743C290.677 244.689 290.456 245.529 290.013 246.261C289.586 246.979 288.952 247.544 288.113 247.956C287.289 248.368 286.304 248.574 285.159 248.574C283.327 248.574 281.862 248.124 280.763 247.223C279.679 246.322 279.107 244.964 279.046 243.147H282.847C282.862 243.819 283.053 244.353 283.419 244.75C283.785 245.132 284.32 245.323 285.022 245.323C285.617 245.323 286.075 245.155 286.396 244.819C286.731 244.468 286.899 244.01 286.899 243.445C286.899 242.712 286.663 242.186 286.19 241.865C285.732 241.529 284.991 241.361 283.969 241.361H283.236V238.179H283.969C284.747 238.179 285.373 238.049 285.846 237.79C286.335 237.515 286.579 237.034 286.579 236.347C286.579 235.797 286.426 235.37 286.121 235.065C285.816 234.76 285.396 234.607 284.862 234.607C284.282 234.607 283.846 234.782 283.556 235.133C283.282 235.485 283.121 235.92 283.076 236.439H279.252ZM295.199 248.62C294.512 248.62 293.947 248.421 293.504 248.024C293.077 247.612 292.863 247.109 292.863 246.513C292.863 245.903 293.077 245.391 293.504 244.979C293.947 244.567 294.512 244.361 295.199 244.361C295.87 244.361 296.42 244.567 296.847 244.979C297.29 245.391 297.511 245.903 297.511 246.513C297.511 247.109 297.29 247.612 296.847 248.024C296.42 248.421 295.87 248.62 295.199 248.62ZM299.577 236.439C299.638 234.805 300.173 233.546 301.18 232.661C302.187 231.775 303.554 231.333 305.279 231.333C306.423 231.333 307.4 231.531 308.209 231.928C309.034 232.325 309.652 232.867 310.064 233.554C310.491 234.241 310.705 235.011 310.705 235.866C310.705 236.874 310.453 237.698 309.949 238.339C309.446 238.965 308.858 239.392 308.186 239.621V239.713C309.056 240.003 309.743 240.484 310.247 241.155C310.751 241.827 311.003 242.689 311.003 243.743C311.003 244.689 310.781 245.529 310.339 246.261C309.911 246.979 309.278 247.544 308.438 247.956C307.614 248.368 306.629 248.574 305.485 248.574C303.653 248.574 302.187 248.124 301.088 247.223C300.005 246.322 299.432 244.964 299.371 243.147H303.172C303.187 243.819 303.378 244.353 303.744 244.75C304.111 245.132 304.645 245.323 305.347 245.323C305.943 245.323 306.4 245.155 306.721 244.819C307.057 244.468 307.225 244.01 307.225 243.445C307.225 242.712 306.988 242.186 306.515 241.865C306.057 241.529 305.317 241.361 304.294 241.361H303.561V238.179H304.294C305.072 238.179 305.698 238.049 306.172 237.79C306.66 237.515 306.904 237.034 306.904 236.347C306.904 235.797 306.752 235.37 306.446 235.065C306.141 234.76 305.721 234.607 305.187 234.607C304.607 234.607 304.172 234.782 303.882 235.133C303.607 235.485 303.447 235.92 303.401 236.439H299.577Z" fill="#8E2DE2"/>
<path d="M386.5 234.3L355.5 210.3L324.4 234.3V426.3H386.5V234.3Z" fill="url(#paint4_linear_102_7)"/>
<path d="M386.5 438.3H324.4V451.3H386.5V438.3Z" fill="#9C27B0"/>
<path d="M347.794 441.757V446.537C347.794 447.277 347.584 447.847 347.164 448.247C346.75 448.647 346.19 448.847 345.484 448.847C344.744 448.847 344.15 448.637 343.704 448.217C343.257 447.797 343.034 447.2 343.034 446.427H344.734C344.734 446.72 344.794 446.944 344.914 447.097C345.034 447.244 345.207 447.317 345.434 447.317C345.64 447.317 345.8 447.25 345.914 447.117C346.027 446.984 346.084 446.79 346.084 446.537V441.757H347.794ZM354.685 443.197V448.777H352.975V448.017C352.802 448.264 352.565 448.464 352.265 448.617C351.972 448.764 351.645 448.837 351.285 448.837C350.858 448.837 350.482 448.744 350.155 448.557C349.828 448.364 349.575 448.087 349.395 447.727C349.215 447.367 349.125 446.944 349.125 446.457V443.197H350.825V446.227C350.825 446.6 350.922 446.89 351.115 447.097C351.308 447.304 351.568 447.407 351.895 447.407C352.228 447.407 352.492 447.304 352.685 447.097C352.878 446.89 352.975 446.6 352.975 446.227V443.197H354.685ZM359.313 443.137C359.967 443.137 360.487 443.35 360.873 443.777C361.267 444.197 361.463 444.777 361.463 445.517V448.777H359.763V445.747C359.763 445.374 359.667 445.084 359.473 444.877C359.28 444.67 359.02 444.567 358.693 444.567C358.367 444.567 358.107 444.67 357.913 444.877C357.72 445.084 357.623 445.374 357.623 445.747V448.777H355.913V443.197H357.623V443.937C357.797 443.69 358.03 443.497 358.323 443.357C358.617 443.21 358.947 443.137 359.313 443.137ZM367.911 445.897C367.911 446.057 367.901 446.224 367.881 446.397H364.011C364.038 446.744 364.148 447.01 364.341 447.197C364.541 447.377 364.785 447.467 365.071 447.467C365.498 447.467 365.795 447.287 365.961 446.927H367.781C367.688 447.294 367.518 447.624 367.271 447.917C367.031 448.21 366.728 448.44 366.361 448.607C365.995 448.774 365.585 448.857 365.131 448.857C364.585 448.857 364.098 448.74 363.671 448.507C363.245 448.274 362.911 447.94 362.671 447.507C362.431 447.074 362.311 446.567 362.311 445.987C362.311 445.407 362.428 444.9 362.661 444.467C362.901 444.034 363.235 443.7 363.661 443.467C364.088 443.234 364.578 443.117 365.131 443.117C365.671 443.117 366.151 443.23 366.571 443.457C366.991 443.684 367.318 444.007 367.551 444.427C367.791 444.847 367.911 445.337 367.911 445.897ZM366.161 445.447C366.161 445.154 366.061 444.92 365.861 444.747C365.661 444.574 365.411 444.487 365.111 444.487C364.825 444.487 364.581 444.57 364.381 444.737C364.188 444.904 364.068 445.14 364.021 445.447H366.161Z" fill="white"/>
<path d="M335.749 194.186H331.765V198.261H328.056V194.186H324.072V190.682H328.056V186.584H331.765V190.682H335.749V194.186ZM349.898 187.133H342.754V190.293C343.059 189.957 343.487 189.683 344.036 189.469C344.586 189.255 345.181 189.148 345.822 189.148C346.967 189.148 347.913 189.408 348.661 189.927C349.425 190.446 349.982 191.118 350.333 191.942C350.684 192.766 350.86 193.659 350.86 194.621C350.86 196.407 350.356 197.826 349.348 198.88C348.341 199.918 346.921 200.437 345.09 200.437C343.868 200.437 342.807 200.23 341.907 199.818C341.006 199.391 340.312 198.803 339.823 198.055C339.335 197.307 339.068 196.445 339.022 195.468H342.846C342.937 195.941 343.159 196.338 343.51 196.659C343.861 196.964 344.342 197.116 344.952 197.116C345.67 197.116 346.204 196.888 346.555 196.43C346.906 195.972 347.082 195.361 347.082 194.598C347.082 193.85 346.898 193.277 346.532 192.881C346.166 192.484 345.631 192.285 344.929 192.285C344.41 192.285 343.983 192.415 343.647 192.675C343.311 192.919 343.09 193.247 342.983 193.659H339.205V183.699H349.898V187.133ZM364.79 187.133H357.646V190.293C357.951 189.957 358.379 189.683 358.928 189.469C359.478 189.255 360.073 189.148 360.714 189.148C361.859 189.148 362.805 189.408 363.553 189.927C364.317 190.446 364.874 191.118 365.225 191.942C365.576 192.766 365.751 193.659 365.751 194.621C365.751 196.407 365.248 197.826 364.24 198.88C363.233 199.918 361.813 200.437 359.981 200.437C358.76 200.437 357.699 200.23 356.799 199.818C355.898 199.391 355.204 198.803 354.715 198.055C354.227 197.307 353.96 196.445 353.914 195.468H357.737C357.829 195.941 358.05 196.338 358.401 196.659C358.753 196.964 359.233 197.116 359.844 197.116C360.561 197.116 361.096 196.888 361.447 196.43C361.798 195.972 361.973 195.361 361.973 194.598C361.973 193.85 361.79 193.277 361.424 192.881C361.058 192.484 360.523 192.285 359.821 192.285C359.302 192.285 358.875 192.415 358.539 192.675C358.203 192.919 357.982 193.247 357.875 193.659H354.097V183.699H364.79V187.133ZM370.134 200.62C369.447 200.62 368.882 200.421 368.439 200.024C368.012 199.612 367.798 199.109 367.798 198.513C367.798 197.903 368.012 197.391 368.439 196.979C368.882 196.567 369.447 196.361 370.134 196.361C370.805 196.361 371.355 196.567 371.782 196.979C372.225 197.391 372.446 197.903 372.446 198.513C372.446 199.109 372.225 199.612 371.782 200.024C371.355 200.421 370.805 200.62 370.134 200.62ZM386.144 187.133H379V190.293C379.305 189.957 379.733 189.683 380.282 189.469C380.832 189.255 381.427 189.148 382.068 189.148C383.213 189.148 384.159 189.408 384.907 189.927C385.67 190.446 386.228 191.118 386.579 191.942C386.93 192.766 387.105 193.659 387.105 194.621C387.105 196.407 386.602 197.826 385.594 198.88C384.587 199.918 383.167 200.437 381.335 200.437C380.114 200.437 379.053 200.23 378.153 199.818C377.252 199.391 376.558 198.803 376.069 198.055C375.581 197.307 375.313 196.445 375.268 195.468H379.091C379.183 195.941 379.404 196.338 379.755 196.659C380.107 196.964 380.587 197.116 381.198 197.116C381.915 197.116 382.45 196.888 382.801 196.43C383.152 195.972 383.327 195.361 383.327 194.598C383.327 193.85 383.144 193.277 382.778 192.881C382.411 192.484 381.877 192.285 381.175 192.285C380.656 192.285 380.229 192.415 379.893 192.675C379.557 192.919 379.336 193.247 379.229 193.659H375.451V183.699H386.144V187.133Z" fill="#9C27B0"/>
<path d="M24.5 311C24.5 311 58.5 275 129.7 263C181.7 254.2 232.3 236.6 284.5 187.7C310.9 163 334.8 146.6 355.4 138.1" stroke="#BDBDBD" stroke-width="2" stroke-miterlimit="10" stroke-linecap="round" stroke-linejoin="round"/>
<path d="M54.6 294.5C57.6375 294.5 60.1 292.038 60.1 289C60.1 285.962 57.6375 283.5 54.6 283.5C51.5624 283.5 49.1 285.962 49.1 289C49.1 292.038 51.5624 294.5 54.6 294.5Z" fill="url(#paint5_linear_102_7)"/>
<path d="M129.8 268.5C132.838 268.5 135.3 266.038 135.3 263C135.3 259.962 132.838 257.5 129.8 257.5C126.762 257.5 124.3 259.962 124.3 263C124.3 266.038 126.762 268.5 129.8 268.5Z" fill="url(#paint6_linear_102_7)"/>
<path d="M205 246.8C208.038 246.8 210.5 244.338 210.5 241.3C210.5 238.262 208.038 235.8 205 235.8C201.962 235.8 199.5 238.262 199.5 241.3C199.5 244.338 201.962 246.8 205 246.8Z" fill="url(#paint7_linear_102_7)"/>
<path d="M280.2 196.5C283.238 196.5 285.7 194.038 285.7 191C285.7 187.962 283.238 185.5 280.2 185.5C277.162 185.5 274.7 187.962 274.7 191C274.7 194.038 277.162 196.5 280.2 196.5Z" fill="url(#paint8_linear_102_7)"/>
<path d="M355.5 142.9C358.538 142.9 361 140.438 361 137.4C361 134.362 358.538 131.9 355.5 131.9C352.462 131.9 350 134.362 350 137.4C350 140.438 352.462 142.9 355.5 142.9Z" fill="url(#paint9_linear_102_7)"/>
<path d="M10.5153 116.927L7.52728 125.351H4.95928L1.97128 116.927H4.15528L6.24328 123.287L8.34328 116.927H10.5153ZM16.6169 123.863H13.4729L12.9689 125.351H10.8209L13.8689 116.927H16.2449L19.2929 125.351H17.1209L16.6169 123.863ZM16.0889 122.279L15.0449 119.195L14.0129 122.279H16.0889ZM22.2726 123.767H24.9606V125.351H20.2206V116.927H22.2726V123.767ZM27.9553 116.927V121.967C27.9553 122.471 28.0793 122.859 28.3273 123.131C28.5753 123.403 28.9393 123.539 29.4193 123.539C29.8993 123.539 30.2673 123.403 30.5233 123.131C30.7793 122.859 30.9073 122.471 30.9073 121.967V116.927H32.9593V121.955C32.9593 122.707 32.7993 123.343 32.4793 123.863C32.1593 124.383 31.7273 124.775 31.1833 125.039C30.6473 125.303 30.0473 125.435 29.3833 125.435C28.7193 125.435 28.1233 125.307 27.5953 125.051C27.0753 124.787 26.6633 124.395 26.3593 123.875C26.0553 123.347 25.9033 122.707 25.9033 121.955V116.927H27.9553ZM36.4523 118.571V120.275H39.2003V121.859H36.4523V123.707H39.5603V125.351H34.4003V116.927H39.5603V118.571H36.4523Z" fill="#9900EA"/>
<path d="M418.784 418.503V426.927H416.732V421.875L414.848 426.927H413.192L411.296 421.863V426.927H409.244V418.503H411.668L414.032 424.335L416.372 418.503H418.784ZM424.244 427.011C423.452 427.011 422.724 426.827 422.06 426.459C421.404 426.091 420.88 425.579 420.488 424.923C420.104 424.259 419.912 423.515 419.912 422.691C419.912 421.867 420.104 421.127 420.488 420.471C420.88 419.815 421.404 419.303 422.06 418.935C422.724 418.567 423.452 418.383 424.244 418.383C425.036 418.383 425.76 418.567 426.416 418.935C427.08 419.303 427.6 419.815 427.976 420.471C428.36 421.127 428.552 421.867 428.552 422.691C428.552 423.515 428.36 424.259 427.976 424.923C427.592 425.579 427.072 426.091 426.416 426.459C425.76 426.827 425.036 427.011 424.244 427.011ZM424.244 425.139C424.916 425.139 425.452 424.915 425.852 424.467C426.26 424.019 426.464 423.427 426.464 422.691C426.464 421.947 426.26 421.355 425.852 420.915C425.452 420.467 424.916 420.243 424.244 420.243C423.564 420.243 423.02 420.463 422.612 420.903C422.212 421.343 422.012 421.939 422.012 422.691C422.012 423.435 422.212 424.031 422.612 424.479C423.02 424.919 423.564 425.139 424.244 425.139ZM437.229 426.927H435.177L431.745 421.731V426.927H429.693V418.503H431.745L435.177 423.723V418.503H437.229V426.927ZM444.777 418.503V420.147H442.545V426.927H440.493V420.147H438.261V418.503H444.777ZM453.103 418.503V426.927H451.051V423.459H447.859V426.927H445.807V418.503H447.859V421.803H451.051V418.503H453.103Z" fill="#9900EA"/>
<path d="M364.611 115.601C369.878 110.336 369.878 101.799 364.611 96.5336C359.344 91.2684 350.804 91.2684 345.537 96.5336C340.27 101.799 340.27 110.336 345.537 115.601C350.804 120.866 359.344 120.866 364.611 115.601Z" fill="white"/>
<path d="M355.199 92.5822C358.802 92.6336 362.303 94.126 364.774 96.699C364.002 97.4709 361.994 98.3972 360.862 98.9633L361.325 105.602C362.715 106.528 364.362 108.329 364.619 108.689L368.532 106.94C368.532 107.146 368.532 107.351 368.48 107.557L364.465 109.307L362.303 113.63L364.362 115.791C364.259 115.894 364.105 116.048 364.002 116.151L361.634 113.63L356.692 113.063C356.023 113.424 355.25 113.835 354.427 114.247C353.757 114.607 353.191 114.865 352.573 115.173C352.882 116.357 352.676 118.21 352.522 119.342C351.647 119.187 350.772 118.93 349.948 118.57C349.794 118.518 349.639 118.415 349.485 118.364C348.455 117.901 347.426 117.283 346.55 116.563C346.396 116.46 346.242 116.357 346.139 116.203V116.151C345.83 115.894 345.521 115.585 345.212 115.276C345.727 114.556 346.242 113.784 346.705 112.961C346.756 112.961 346.808 112.961 346.808 112.961L345.778 107.557L342.895 105.139L341.505 105.344C341.505 105.19 341.505 104.984 341.557 104.83L342.998 104.624C343.256 103.698 343.925 101.691 345.212 99.375C345.212 99.3235 345.16 99.272 345.16 99.2206C345.006 98.7574 344.8 98.1399 344.594 97.5738C344.749 97.4195 344.852 97.2651 345.006 97.1107C345.058 97.2651 345.058 97.2651 345.109 97.368C345.315 97.9341 345.521 98.5001 345.675 99.0147V99.0662C345.83 99.0662 345.984 99.0662 346.139 99.0662C347.58 99.0662 350.257 99.4264 350.669 99.4779L355.302 96.5961C355.353 94.8464 355.25 93.5084 355.199 92.5822ZM355.662 96.9563L351.081 99.8381C351.647 101.382 351.081 104.315 350.926 104.933L356.64 108.02C357.67 107.248 360.398 105.602 360.759 105.396L360.295 99.0662C359.883 98.9118 356.743 97.6768 355.662 96.9563ZM350.617 105.396L346.447 108.02L347.374 113.012C348.918 113.269 352.368 114.607 352.368 114.607C352.368 114.659 352.419 114.659 352.419 114.71C352.985 114.401 353.552 114.144 354.221 113.835C355.044 113.424 355.817 113.012 356.434 112.652C356.383 112.086 356.331 110.851 356.331 108.484L350.617 105.396Z" fill="#333333"/>
<path d="M341.557 106.065C341.557 113.527 347.58 119.547 355.044 119.547C360.501 119.547 365.237 116.305 367.348 111.623C364.928 113.835 361.737 115.173 358.185 115.173C350.72 115.173 344.697 109.101 344.697 101.639C344.697 99.6322 345.109 97.7796 345.881 96.0814C343.256 98.603 341.557 102.154 341.557 106.065Z" fill="#B8D4F8"/>
</g>
<defs>
<linearGradient id="paint0_linear_102_7" x1="41.7682" y1="375.168" x2="68.7634" y2="445.28" gradientUnits="userSpaceOnUse">
<stop stop-color="#FDC830"/>
<stop offset="1" stop-color="#F37335"/>
</linearGradient>
<linearGradient id="paint1_linear_102_7" x1="109.621" y1="331.468" x2="151.694" y2="441.859" gradientUnits="userSpaceOnUse">
<stop stop-color="#FF839D"/>
<stop offset="1" stop-color="#F50B9A"/>
</linearGradient>
<linearGradient id="paint2_linear_102_7" x1="190.25" y1="323.224" x2="225.295" y2="439.9" gradientUnits="userSpaceOnUse">
<stop stop-color="#FF63DE"/>
<stop offset="1" stop-color="#B122E5"/>
</linearGradient>
<linearGradient id="paint3_linear_102_7" x1="253.736" y1="278.381" x2="313.25" y2="448.985" gradientUnits="userSpaceOnUse">
<stop stop-color="#8E2DE2"/>
<stop offset="1" stop-color="#4A00E0"/>
</linearGradient>
<linearGradient id="paint4_linear_102_7" x1="335.69" y1="254.984" x2="385.823" y2="446.028" gradientUnits="userSpaceOnUse">
<stop stop-color="#9C27B0"/>
<stop offset="1" stop-color="#4A148C"/>
</linearGradient>
<linearGradient id="paint5_linear_102_7" x1="52.1778" y1="282.878" x2="57.9278" y2="297.378" gradientUnits="userSpaceOnUse">
<stop stop-color="#FDC830"/>
<stop offset="1" stop-color="#F37335"/>
</linearGradient>
<linearGradient id="paint6_linear_102_7" x1="126.001" y1="255.131" x2="134.001" y2="271.881" gradientUnits="userSpaceOnUse">
<stop stop-color="#FF839D"/>
<stop offset="1" stop-color="#F50B9A"/>
</linearGradient>
<linearGradient id="paint7_linear_102_7" x1="201.492" y1="235.211" x2="209.742" y2="249.461" gradientUnits="userSpaceOnUse">
<stop stop-color="#FF63DE"/>
<stop offset="1" stop-color="#B122E5"/>
</linearGradient>
<linearGradient id="paint8_linear_102_7" x1="276.354" y1="183.405" x2="283.354" y2="197.155" gradientUnits="userSpaceOnUse">
<stop stop-color="#8E2DE2"/>
<stop offset="1" stop-color="#4A00E0"/>
</linearGradient>
<linearGradient id="paint9_linear_102_7" x1="352.384" y1="129.441" x2="360.172" y2="149.43" gradientUnits="userSpaceOnUse">
<stop stop-color="#9C27B0"/>
<stop offset="1" stop-color="#4A148C"/>
</linearGradient>
<clipPath id="clip0_102_7">
<rect width="453.8" height="453.8" fill="white"/>
</clipPath>
</defs>
</svg>
