<svg width="339" height="406" viewBox="0 0 339 406" fill="none" xmlns="http://www.w3.org/2000/svg">
<g clip-path="url(#clip0_149_1706)">
<path d="M194.8 360.9C194.8 365.1 198.2 368.4 202.3 368.4C206.4 368.4 209.8 365 209.8 360.9C209.8 357.5 207.5 354.6 204.4 353.7V327.5C204.4 325.6 205.9 324.1 207.8 324.1H214.6C215.6 328.1 219.2 331.2 223.5 331.2H226V342C226 343.9 224.5 345.4 222.6 345.4C218.3 345.4 214.9 348.9 214.9 353.1V380.9C211.8 381.8 209.6 384.7 209.6 388.1C209.6 392.3 213 395.6 217.1 395.6C221.2 395.6 224.6 392.2 224.6 388.1C224.6 384.7 222.3 381.8 219.2 380.9V376.7H227.6C229.5 376.7 231 378.2 231 380.1V390.4C227.9 391.3 225.7 394.2 225.7 397.6C225.7 401.8 229.1 405.1 233.2 405.1C237.3 405.1 240.7 401.7 240.7 397.6C240.7 394.2 238.4 391.3 235.3 390.4V380.1C235.3 375.8 231.8 372.4 227.6 372.4H219.2V353.1C219.2 351.2 220.7 349.7 222.6 349.7C226.9 349.7 230.3 346.2 230.3 342V331.2H236.4C239.1 331.2 241.3 333.4 241.3 336.1V359.6C238.3 360.6 236.2 363.4 236.2 366.7C236.2 370.9 239.6 374.2 243.7 374.2C247.9 374.2 251.2 370.8 251.2 366.7C251.2 363.2 248.8 360.3 245.6 359.4V336C245.6 330.9 241.5 326.8 236.4 326.8H223.5C220.8 326.8 218.6 324.6 218.6 321.9V311.7C218.6 310.5 217.6 309.6 216.5 309.6C215.3 309.6 214.4 310.6 214.4 311.7V319.8H207.9C203.6 319.8 200.2 323.3 200.2 327.5V353.7C197.1 354.6 194.8 357.5 194.8 360.9Z" fill="#E1AEF4"/>
<path d="M265.642 312.304C317.62 260.326 317.62 176.053 265.642 124.074C213.664 72.0962 129.39 72.0962 77.412 124.074C25.4337 176.053 25.4337 260.326 77.412 312.304C129.39 364.283 213.664 364.283 265.642 312.304Z" fill="#E1AEF4"/>
<path d="M146.2 271.2L134 270.9C132 270.9 130.5 272.6 130.5 274.8L130.8 284.5C130.9 286.5 132.4 288.2 134.3 288.4L145.6 289.6C147.7 289.8 149.6 288.3 149.7 286.1L150.2 275.5C150.3 273.3 148.5 271.2 146.2 271.2Z" fill="url(#paint0_linear_149_1706)"/>
<path d="M163.8 283L156.4 282.8C155.2 282.8 154.3 283.9 154.3 285.4L154.4 291.9C154.4 293.2 155.4 294.4 156.5 294.5L163.4 295.3C164.7 295.5 165.8 294.4 165.9 293L166.2 285.9C166.2 284.4 165.2 283 163.8 283Z" fill="url(#paint1_linear_149_1706)"/>
<path d="M175.7 271.8H185.8C187.5 271.8 188.7 273.6 188.6 275.8L188.1 285.5C188 287.5 186.7 289.2 185.1 289.4L175.6 290.3C173.8 290.5 172.3 288.9 172.3 286.7L172.1 276.1C172.3 273.8 173.8 271.8 175.7 271.8Z" fill="url(#paint2_linear_149_1706)"/>
<path d="M197 271.1H202.3C203.2 271.1 203.8 272 203.7 273.2L203.5 278.2C203.4 279.2 202.8 280.1 202 280.2L197.1 280.7C196.2 280.8 195.4 280 195.4 278.9L195.3 273.4C195.2 272.2 196 271.1 197 271.1Z" fill="url(#paint3_linear_149_1706)"/>
<path d="M225.3 294.3H229.5C230.2 294.3 230.7 295 230.6 295.9L230.4 299.9C230.4 300.7 229.8 301.4 229.2 301.5L225.3 301.9C224.6 302 224 301.3 223.9 300.4L223.8 296.1C223.9 295.1 224.5 294.3 225.3 294.3Z" fill="url(#paint4_linear_149_1706)"/>
<path d="M199.2 319.7H203.4C204.1 319.7 204.6 320.4 204.5 321.3L204.3 325.3C204.3 326.1 203.7 326.8 203.1 326.9L199.2 327.3C198.5 327.4 197.9 326.7 197.8 325.8L197.7 321.5C197.8 320.5 198.4 319.7 199.2 319.7Z" fill="url(#paint5_linear_149_1706)"/>
<path d="M209 282.3L215.4 282C216.4 282 217.2 283.1 217.2 284.5L216.9 290.8C216.8 292.1 216 293.3 215 293.4L209.1 294.3C208 294.5 207.1 293.5 207 292.1L206.9 285.2C206.8 283.7 207.8 282.3 209 282.3Z" fill="url(#paint6_linear_149_1706)"/>
<path d="M189 300.1L193.6 299.3C194.4 299.2 194.9 299.9 194.9 301L194.7 305.6C194.7 306.5 194.1 307.5 193.3 307.7L189 308.9C188.2 309.1 187.5 308.5 187.5 307.5L187.4 302.5C187.4 301.3 188.1 300.2 189 300.1Z" fill="url(#paint7_linear_149_1706)"/>
<path d="M176.6 335L181.2 334.2C182 334.1 182.5 334.8 182.5 335.9L182.3 340.5C182.3 341.4 181.7 342.4 180.9 342.6L176.6 343.8C175.8 344 175.1 343.4 175.1 342.4L175 337.4C175.1 336.2 175.8 335.1 176.6 335Z" fill="url(#paint8_linear_149_1706)"/>
<path d="M229.4 266.6H237.2C238.5 266.6 239.4 268 239.4 269.7L239 277.2C238.9 278.7 237.9 280.1 236.7 280.2L229.4 280.9C228 281 226.9 279.8 226.9 278.1L226.8 269.9C226.7 268.1 227.9 266.6 229.4 266.6Z" fill="url(#paint9_linear_149_1706)"/>
<path d="M163 302.2H170.6C171.8 302.2 172.8 303.5 172.7 305.2L172.3 312.4C172.2 313.9 171.2 315.2 170.1 315.3L163.1 316C161.8 316.1 160.7 315 160.6 313.3L160.5 305.4C160.4 303.7 161.5 302.2 163 302.2Z" fill="url(#paint10_linear_149_1706)"/>
<path d="M129.7 287.9L124.5 287.8C123.6 287.8 123 288.5 123 289.5L123.1 293.7C123.1 294.6 123.8 295.3 124.6 295.4L129.5 295.9C130.4 296 131.2 295.3 131.2 294.4L131.4 289.9C131.5 288.8 130.7 288 129.7 287.9Z" fill="url(#paint11_linear_149_1706)"/>
<path d="M137.8 310.5L133.7 310.4C133 310.4 132.5 311 132.5 311.7L132.6 315C132.6 315.7 133.1 316.3 133.8 316.3L137.6 316.7C138.3 316.8 138.9 316.3 139 315.5L139.2 311.9C139.1 311.2 138.5 310.6 137.8 310.5Z" fill="url(#paint12_linear_149_1706)"/>
<path d="M116.3 270.4L111.1 270.3C110.2 270.3 109.6 271 109.6 272L109.7 276.2C109.7 277.1 110.4 277.8 111.2 277.9L116.1 278.4C117 278.5 117.8 277.8 117.8 276.9L118 272.4C118.1 271.3 117.3 270.5 116.3 270.4Z" fill="url(#paint13_linear_149_1706)"/>
<path d="M157.3 123.5C163.3 120.5 248.6 140.2 249.8 141.4C252.2 143.8 255.2 268.2 252.6 269.6C249.4 271.4 166.1 279.8 161.6 279.4C157.1 279.1 154.8 124.8 157.3 123.5Z" fill="#FF4584"/>
<path d="M87 267.9C85.2 264.2 81.1 143.6 83.7 141.4C86.5 139 156.1 123.3 158.5 123.4C160.9 123.5 165.1 279 162.4 279.3C159.6 279.5 88.5 271.1 87 267.9Z" fill="#D93499"/>
<path d="M241 151.3L174.9 136.9C172.9 136.5 171 138 171 140.1C171.9 178.7 172.1 219.2 171.8 261.2C171.8 263.1 173.4 264.6 175.3 264.4L243.2 259.1C244.9 259 246.2 257.5 246.2 255.8L243.6 154.3C243.5 152.9 242.4 151.6 241 151.3Z" fill="#FF92A0"/>
<path d="M139.6 165.9C138.5 165 106.9 171.4 90.7999 175.7C88.6999 176.3 87.2999 178.1 87.2999 180.3C87.8999 213.5 89.7999 259.8 90.7999 261.9C91.6999 263.8 119.2 267.6 139 270.1C141.8 270.4 144.3 268.3 144.2 265.4C144.1 229.9 143.3 169 139.6 165.9Z" fill="#F136B1"/>
<path d="M145.6 136.4C145.2 136.2 132.7 138.8 125.7 140.5C124.8 140.7 124.1 141.3 124.1 141.9C124.6 150.3 125.7 161.1 126.1 161.5C126.5 161.8 137.3 160.4 144.3 159.5C145.2 159.4 146.1 158.8 146.1 158.2C146.4 150.7 146.9 137.1 145.6 136.4Z" fill="#F136B1"/>
<path d="M235.2 191.6C235.3 188.3 233.4 185.7 231 185.8C228.6 185.9 226.6 188.6 226.5 191.9C226.4 195.2 228.3 197.8 230.7 197.7C233.1 197.6 235.2 194.9 235.2 191.6Z" fill="#24191B"/>
<path d="M215.2 176.7L214.3 168.5L220.2 157.5L221.7 157.9L223.1 182.5L215.2 176.7Z" fill="#FAF2DB"/>
<path d="M211 160.4L209.1 161.9L206.6 159.6L200.5 162.9L200.8 166.3L197.3 165.3L189.6 174.9L190.4 183.6L188.5 182.5L186.4 185.5L186.5 190.7L188.5 191L186.3 192.5L188.2 204.4L191.7 206.6L193 206.8L189.7 208.4C189.7 208.4 190.1 211.6 190.2 212C190.3 212.4 193.8 216.9 193.8 216.9L196.1 219L194.5 219.6L199.9 226L204.8 222.2L210 172.5C210.2 172.1 214.5 166.4 214.5 166.4L211 160.4Z" fill="#4A373B"/>
<path d="M230.6 230.8C230.6 230.8 220.5 225.7 219.5 225.6C218.4 225.5 200.7 222.6 200.7 222.6L176.3 249.3L175.9 259.9L241.8 255.7L230.6 230.8Z" fill="#24191B"/>
<path d="M193.5 193L200.6 222.7L211.5 233.1L219.9 225.5L214.5 201.2L193.5 193Z" fill="#FAF2DB"/>
<path d="M198.2 212.6L204.8 211.3L217.8 215.8L216.7 211.2L212.8 205.2L198.2 202.5L196 203.5L198.2 212.6Z" fill="#6D5359"/>
<path d="M217.9 212.8L215.8 216.5L211.9 218.3L201.7 217.2L211.9 219.6L219.1 218.2L217.9 212.8Z" fill="#6D5359"/>
<path d="M210.8 216.1L203.2 213.5L198.5 213.8L199.1 216.3L202.4 215.1L210.8 216.1Z" fill="#6D5359"/>
<path d="M212.4 224.199L218.8 220.499L218.7 220.199L212.8 222.199L207.4 221.199L199.7 218.899L200.2 220.899L206.7 223.799L212.4 224.199Z" fill="#6D5359"/>
<path d="M204.1 225.4L209.7 229.6L214.9 227.4L219.6 224.4L219.2 222.5C217.1 223.8 210.5 227.4 210.5 227.4L204.1 225.4Z" fill="#6D5359"/>
<path d="M196.6 205.9L193.5 193L195.4 175.6C195.4 175.6 216.2 171.2 216.6 171.3C217.1 171.4 226.5 186 226.8 186.4C227.1 186.8 233.8 213.2 233.8 213.2L236.8 219.4L229.3 226.2C229.3 226.2 217.7 224.9 217.4 224.2C217.1 223.5 213.9 213.7 213.9 213.7L196.6 205.9Z" fill="#FAF2DB"/>
<path d="M231.1 202.7C230.9 201.9 230.7 201 230.4 200.1L216.7 203.9L207.6 210.9C208.6 211.8 209.8 212.3 211.3 212.6L216.5 205.5L231.1 202.7Z" fill="#6D5359"/>
<path d="M208.5 204.7L197.3 206.7L202.3 209C207.3 206.8 212.8 204.5 212.8 204.5L208.5 204.7Z" fill="#6D5359"/>
<path d="M208.6 187.299L214.3 182.899L201.7 189.299L193.7 191.099L193.5 192.999L194.8 198.299L201.1 191.899L208.6 187.299Z" fill="#6D5359"/>
<path d="M225.7 184.6C225.3 183.9 224.7 183.1 224.1 182.2L215.4 184.3L225.7 184.6Z" fill="#6D5359"/>
<path d="M220.2 176.3C219.5 175.2 218.8 174.3 218.3 173.5L209.6 174L207.1 173.1L205.8 173.4L210.1 175.8L220.2 176.3Z" fill="#6D5359"/>
<path d="M194.6 182.9L194.2 186.9L199.3 179.8L194.6 182.9Z" fill="#6D5359"/>
<path d="M198.8 206.5L199.1 201.7L205.7 195.8L211.5 193.5L203.5 195.5L195.3 200.8L196.9 207.3L198.8 206.5Z" fill="#6D5359"/>
<path d="M214 213.8C214 213.8 216.4 224.2 216.7 225C217 225.7 229.4 227 229.4 227L237 219.5L237.4 211L232.5 207.6L224.6 205L214 213.8Z" fill="#4A373B"/>
<path d="M224.9 224.8C222 224.5 217.9 224.3 217.9 224.3L217.7 223.2L224.9 224.8Z" fill="#24191B"/>
<path d="M227.6 220.2C227.6 219.9 223.1 216 223.1 216L219.9 212.3L220.9 217.7L227.6 220.2Z" fill="#24191B"/>
<path d="M234.6 216.9L236 211.6L232 208.3L233.9 212.3L234.6 216.9Z" fill="#24191B"/>
<path d="M204.7 178.3L203.4 185.3L206.5 177.4L204.6 173.7C203.7 173.9 202.9 174.1 202 174.2L204.7 178.3Z" fill="#6D5359"/>
<path d="M211.3 233.1L210.6 238.4L215.8 237.7L213.2 231.6L211.3 233.1Z" fill="#6D5359"/>
<path d="M220.3 193.5C220.4 190.2 218.5 187.6 216.1 187.7C213.7 187.8 211.7 190.5 211.6 193.8C211.5 197.1 213.4 199.7 215.8 199.6C218.2 199.6 220.2 196.8 220.3 193.5Z" fill="#24191B"/>
<path d="M219.1 194.5L218.7 192.3C225.9 187.2 230 190.4 230.2 190.5L229.9 192.6C229.8 192.7 225.9 189.7 219.1 194.5Z" fill="#24191B"/>
<path d="M219.2 192.3C219 190.2 217.9 188.6 216.8 188.7C216.4 188.8 216 189 215.7 189.5C217 189.6 218.1 191.4 218.3 193.7C218.4 194.5 218.3 195.3 218.1 196.1C218.9 195.5 219.3 194 219.2 192.3Z" fill="#4A373B"/>
<path d="M234 190.6C233.8 188.5 232.7 186.9 231.6 187C231.2 187.1 230.8 187.3 230.5 187.8C231.8 187.9 232.9 189.7 233.1 192C233.2 192.8 233.1 193.6 232.9 194.4C233.7 193.8 234.2 192.3 234 190.6Z" fill="#4A373B"/>
<path d="M211.9 193.6L193 193.2L193.5 196L212 194.7L211.9 193.6Z" fill="#24191B"/>
<path d="M185 172.9C197.2 176 228 174.5 229.1 173.8C230.1 173.2 214.6 170.2 214.6 170.2L193.9 169.6C193.9 169.6 180.3 171.8 185 172.9Z" fill="#24191B"/>
<path d="M212.1 152.5C203.4 150.6 193.4 153.7 191.5 155.2C189.6 156.6 192 171.7 192 171.7L217.1 171.5C217 171.4 220.7 154.4 212.1 152.5Z" fill="#24191B"/>
<path d="M191.1 164.4C191.3 166.2 191.5 168 191.7 169.3C200.8 168.7 209.5 168.6 217.4 169.5C217.5 168.5 217.7 167.2 217.8 165.7C209 165.7 200.1 165.2 191.1 164.4Z" fill="#4A373B"/>
<path d="M194.4 184.8L191.1 176.6L186.7 163.4L187.8 162.9L201.8 174.2L202.4 186.5L194.4 184.8Z" fill="#FAF2DB"/>
<path d="M194 181.1L192.3 176.9L188.8 167.1L189.4 166.9L197.1 176.3L198.2 182L194 181.1Z" fill="#4072A7"/>
<path d="M249.9 141.4C248.7 140.2 163.4 120.5 157.4 123.5C157.3 123.6 234.6 136.4 248.5 142.9C251.4 144.2 252.5 269.7 252.7 269.6C255.2 268.2 252.3 143.8 249.9 141.4Z" fill="#FF92A0"/>
<path d="M153.5 128.3C155.2 128.4 160.2 209.5 163.2 257.1C163.2 214.1 160.3 123.4 158.5 123.4C156.4 123.3 103.2 135.3 87.7999 139.9C108.6 135.7 151.7 128.2 153.5 128.3Z" fill="#B2177F"/>
<path d="M106.5 257C106.4 257 106.4 257 106.3 257C94.6999 255 94.2999 254.2 93.8999 253.5C93.6999 253.1 93.3999 252.5 92.5999 242.4C92.4999 241.7 93.0999 241.1 93.7999 241C94.4999 240.9 95.0999 241.5 95.1999 242.2C95.6999 249.2 95.9999 251.4 96.1999 252.1C96.7999 252.4 99.0999 253.1 106.8 254.4C107.5 254.5 108 255.2 107.9 255.9C107.7 256.5 107.2 257 106.5 257Z" fill="#B2177F"/>
<path d="M153.9 263.2C152.4 263.1 147.8 262.6 143.9 262.2C143.2 262.1 142.7 261.5 142.8 260.8C142.9 260.1 143.5 259.6 144.2 259.7C149.2 260.3 151.9 260.6 153.2 260.7C153.3 259.5 153.5 256.6 153.4 249.5C153.4 248.8 154 248.2 154.7 248.2C155.4 248.2 156 248.8 156 249.5C156 253.5 156 256.6 155.9 258.7C155.8 261.6 155.7 263.2 154.3 263.4C154.2 263.3 154.1 263.3 153.9 263.2Z" fill="#B2177F"/>
<path d="M150.9 156.3C150.2 156.3 149.7 155.8 149.7 155.1C149.2 148.1 148.9 145.2 148.7 144C147.7 144.2 145.6 144.6 141.2 145.5C140.5 145.6 139.8 145.2 139.7 144.5C139.6 143.8 140 143.1 140.7 143C148.9 141.3 149.4 141.4 149.7 141.4C151.1 141.5 151.2 142.8 151.6 145.9C151.8 148 152.1 151.1 152.4 155C152.5 155.7 151.9 156.3 151.2 156.4C151 156.3 150.9 156.3 150.9 156.3Z" fill="#B2177F"/>
<path d="M90.6 169.9C89.9 169.9 89.4 169.3 89.4 168.6C89.3 156 89.7 155.6 90.4 155C90.7 154.7 91.3 154.3 99 152.3C99.7 152.1 100.4 152.5 100.6 153.2C100.8 153.9 100.4 154.6 99.7 154.8C94.7 156.1 93 156.6 92.4 156.9C92.3 157.7 92.1 160.2 92.1 168.5C92 169.3 91.4 169.9 90.6 169.9C90.7 169.9 90.7 169.9 90.6 169.9Z" fill="#B2177F"/>
<path d="M149.5 204.1C149.6 182.6 136.5 164.8 120.2 164.2C103.9 163.6 90.6 180.5 90.5 202C90.4 223.5 103.5 241.3 119.8 241.9C136.1 242.5 149.4 225.5 149.5 204.1ZM120.2 239.9C104.6 239.3 92 222.4 92.1 202C92.2 181.6 105 165.6 120.6 166.2C136.2 166.8 148.8 183.7 148.7 204.1C148.5 224.4 135.8 240.4 120.2 239.9Z" fill="#FFEED8"/>
<path d="M132.2 214.2C131.9 205.5 123.7 202.3 122.5 201.8C123.6 201.4 124.5 200.8 125.4 200C126.8 198.5 128.2 196 128.1 191.6C127.9 186 125.7 183.3 122.7 182.1L122.6 178.3C122.6 177.8 122.2 177.4 121.8 177.4H118.9C118.5 177.4 118.1 177.8 118.1 178.3L118.2 181.3C117.9 181.3 117.6 181.3 117.2 181.3C116.5 181.3 115.8 181.3 115.1 181.4L115 178.4C115 177.9 114.6 177.5 114.1 177.4H111.5C111 177.4 110.7 177.8 110.7 178.3L110.8 181.9C110.7 181.9 110.6 182 110.5 182C110.1 182.1 109.9 182.3 110 182.5C110 182.6 110 182.7 110.1 182.8C110.2 183.1 110.3 184.4 110.3 185.6C110.3 186.2 110.3 186.7 110.3 187.2C110.2 188.8 110.5 197.4 110.4 200.5C110.3 202.2 110.3 203.3 110.4 204.4C110.4 205.2 110.5 206 110.5 207.1L110.8 219.6C110.8 220.7 111 221.6 112.1 221.7L112.2 225.2C112.2 225.7 112.6 226.1 113.1 226.2H115.7C116.2 226.2 116.5 225.8 116.5 225.3L116.4 221.7C117.5 221.7 118.6 221.7 119.4 221.7L119.5 225.4C119.5 225.9 119.9 226.3 120.3 226.3H123.2C123.6 226.3 124 225.9 124 225.4L123.9 221.6C127.6 221.2 132.4 219.8 132.2 214.2ZM116.8 198.9L116.6 192.5C116.6 190.9 116.5 188.5 116.5 186.5V182.9C121.2 183 125.9 183.4 126.2 192.1C126.5 200.7 117.6 201.1 117.2 201.1C116.8 201.1 116.8 201 116.8 200.6C116.8 200.1 116.9 199.8 116.8 198.9ZM119.1 220.5C118.1 220.5 117.6 220.7 117.5 219.6C117.5 218.6 117.2 215 117.1 213.7C117.1 212.3 117.2 212.2 117.1 211.1C117.1 210.1 116.7 205.7 116.7 204.5C116.7 203.9 116.7 203.5 116.7 203.2C116.7 203 116.7 202.9 116.7 202.7C118.9 202.7 120.9 203 122.6 203.8C125.6 205.2 128.6 208 128.8 214.1C129.1 217.9 126 220.6 119.1 220.5Z" fill="#FFEED8"/>
<path d="M124.2 173.6C124.1 173.6 124 173.6 124 173.5C123.7 173.4 123.6 173 123.7 172.7L125.8 168.5C125.9 168.2 126.3 168.1 126.6 168.2C126.9 168.3 127 168.7 126.9 169L124.8 173.2C124.6 173.5 124.4 173.6 124.2 173.6Z" fill="#FFEED8"/>
<path d="M99.2 225.1C99.1 225.1 99 225.1 99 225C98.7 224.9 98.6 224.5 98.7 224.2L106.7 207.8C106.8 207.5 107.2 207.4 107.5 207.5C107.8 207.6 107.9 208 107.8 208.3L99.8 224.7C99.7 225 99.4 225.1 99.2 225.1Z" fill="#FFEED8"/>
<path d="M126.5 179.4C126.4 179.4 126.3 179.4 126.3 179.3C126 179.2 125.9 178.8 126 178.5L129.7 170.9C129.8 170.6 130.2 170.5 130.5 170.6C130.8 170.7 130.9 171.1 130.8 171.4L127.1 179C127 179.3 126.8 179.4 126.5 179.4Z" fill="#FFEED8"/>
<path d="M102.6 228.7C102.5 228.7 102.4 228.7 102.4 228.6C102.1 228.5 102 228.1 102.1 227.8L106.4 218.9C106.5 218.6 106.9 218.5 107.2 218.6C107.5 218.7 107.6 219.1 107.5 219.4L103.2 228.3C103 228.6 102.8 228.7 102.6 228.7Z" fill="#FFEED8"/>
<path d="M128.7 203.1C128.6 203.1 128.5 203.1 128.5 203C128.2 202.9 128.1 202.5 128.2 202.2L139.1 180.4C139.2 180.1 139.6 180 139.9 180.1C140.2 180.2 140.3 180.6 140.2 180.9L129.3 202.7C129.1 203 128.9 203.2 128.7 203.1Z" fill="#FFEED8"/>
<path d="M112.3 236.1C112.2 236.1 112.1 236.1 112.1 236C111.8 235.9 111.7 235.5 111.8 235.2L114.8 229.2C114.9 228.9 115.3 228.8 115.6 228.9C115.9 229 116 229.4 115.9 229.7L112.9 235.7C112.7 236 112.5 236.1 112.3 236.1Z" fill="#FFEED8"/>
<path d="M130.4 186.5C130.3 186.5 130.2 186.5 130.2 186.4C129.9 186.3 129.8 185.9 130 185.6L133 179.7C133.1 179.4 133.5 179.3 133.8 179.5C134.1 179.6 134.2 180 134 180.3L131 186.2C130.9 186.4 130.6 186.5 130.4 186.5Z" fill="#FFEED8"/>
<path d="M107.9 230.5C107.8 230.5 107.7 230.5 107.7 230.4C107.4 230.3 107.3 229.9 107.5 229.6L109.3 226C109.4 225.7 109.8 225.6 110.1 225.8C110.4 225.9 110.5 226.3 110.3 226.6L108.5 230.2C108.4 230.4 108.2 230.5 107.9 230.5Z" fill="#FFEED8"/>
<path d="M154.6 204.3C154.7 190.6 149.5 178.3 141.5 171C140.9 170.5 140.2 171.3 140.7 171.8C141.2 172.4 141.8 173 142.3 173.7C149.3 180.7 153.9 191.9 153.8 204.3C153.7 216.8 149 227.7 141.8 234.2C141.2 234.9 140.6 235.5 140 236.1C139.5 236.6 140.2 237.5 140.8 237C148.9 230.3 154.5 218.3 154.6 204.3Z" fill="#FFEED8"/>
<path d="M267.9 240.2C266.1 240.1 264.2 239.8 262.3 239.2C261.4 238.9 260.9 238 261.2 237.1C261.5 236.2 262.4 235.7 263.3 236C268.8 237.7 274.4 236.7 278.7 233.3C282.9 229.9 285.3 224.7 284.9 219.6C284.8 218.7 285.5 217.9 286.4 217.8C287.3 217.7 288.1 218.4 288.2 219.3C288.7 225.5 285.9 231.8 280.8 235.9C277.1 238.9 272.6 240.4 267.9 240.2Z" fill="#FF4584"/>
<path d="M92.9 129.8C92.2 129.8 91.5 129.2 91.3 128.5C91.1 127.6 91.7 126.7 92.6 126.5L145.4 115.5C146.3 115.3 147.2 115.9 147.4 116.8C147.6 117.7 147 118.6 146.1 118.8L93.3 129.8C93.2 129.8 93.1 129.8 92.9 129.8Z" fill="#D93499"/>
<path d="M79.6 272.8C79.3 272.8 79 272.7 78.8 272.5C69.8 266.6 70.8 253.6 70.9 253C71 252.1 71.8 251.4 72.7 251.5C73.6 251.6 74.3 252.4 74.2 253.3C74.2 253.4 73.3 264.9 80.6 269.7C81.4 270.2 81.6 271.2 81.1 272C80.7 272.5 80.1 272.8 79.6 272.8Z" fill="#FF4584"/>
<path d="M255.4 142.5C254.5 142.5 253.8 141.7 253.8 140.8C254 136.4 251.5 131.8 245.6 131.6C244.7 131.6 244 130.8 244 129.9C244 129 244.8 128.3 245.7 128.3C252.7 128.6 257.4 133.7 257.1 140.9C257.1 141.8 256.3 142.5 255.4 142.5Z" fill="#FF4584"/>
<path d="M243.7 70.7002C241.1 43.1002 201.8 32.6002 176.7 47.0002C152.5 60.9002 174 93.2002 203.3 102C204.8 105.4 205 109.2 206.1 109.5C207.2 109.8 207.8 105.7 209.7 103.5C233 107.9 246.1 96.4002 243.7 70.7002Z" fill="url(#paint14_linear_149_1706)"/>
<path d="M204 63.4004C203.1 66.3004 199.2 64.9004 198.4 64.7004C197.6 64.5004 195.6 63.9004 195.2 63.8004C194.7 63.7004 194.7 63.3004 194.9 62.9004L196.3 58.4004C196.4 58.0004 196.5 57.7004 196.6 57.4004C196.7 57.0004 196.8 56.6004 197.1 56.0004C197.5 54.9004 198.4 51.8004 198.7 51.2004C198.8 51.0004 198.8 50.8004 198.9 50.6004C199 50.2004 199.1 49.7004 199.1 49.6004V49.5004C199.1 49.4004 199.2 49.4004 199.4 49.4004C199.6 49.4004 201.1 49.6004 202.1 49.9004C204.3 50.6004 206.1 51.7004 205.2 54.9004C204.7 56.5004 203.9 57.2004 203.1 57.6004C202.7 57.8004 202.2 57.9004 201.7 57.9004C202 58.2004 204.9 60.3004 204 63.4004ZM202.7 63.0004C203.4 60.8004 202.5 59.4004 201.5 58.6004C200.9 58.1004 200.2 57.8004 199.3 57.5004C199.3 57.6004 199.2 57.6004 199.2 57.7004C199.1 57.8004 199.1 57.9004 199 58.2004C198.9 58.6004 198.5 60.3004 198.4 60.6004C198.3 61.0004 198.2 61.0004 198.1 61.5004C198 62.0004 197.6 63.3004 197.5 63.7004C197.4 64.1004 197.6 64.1004 198 64.2004C200.7 65.0004 202.3 64.4004 202.7 63.0004ZM199.5 56.7004C199.5 56.8004 199.4 56.9004 199.6 56.9004C199.8 56.9004 203.4 57.8004 204.3 54.7004C205.2 51.6004 203.4 50.9004 201.6 50.3004L201.2 51.6004C201 52.3004 200.7 53.2004 200.5 53.8004L199.8 56.1004C199.6 56.5004 199.6 56.6004 199.5 56.7004Z" fill="#E1AEF4"/>
<path d="M224.1 61.5005C224.1 61.9005 224.2 62.6005 224.2 63.2005C224.2 63.5005 224.2 63.9006 224.2 64.3006L224.5 63.8005L225.1 63.0005C225.4 62.6005 226.8 60.7006 227.1 60.4006C227.4 60.0006 228.2 58.9005 228.5 58.3005C228.9 57.7005 229.2 57.9006 229.5 57.9006C229.6 57.9006 230.1 58.1005 230.6 58.2005C230.9 58.3005 231.3 58.4005 231.5 58.5005C231.8 58.6005 231.9 58.7005 231.9 58.8005C231.9 58.9005 231.8 58.9005 231.8 59.0005C231.6 59.2005 230.8 60.4005 230.3 61.1005C229.8 61.8005 227.8 64.3005 227.2 65.1005C226.5 65.9005 224 69.0006 223.8 69.4005C223.6 69.7006 223.2 70.5006 223 70.8006C222.8 71.1006 222.7 71.2005 222.6 71.1005L221.4 70.8006C221.1 70.7006 220.1 70.4006 219.8 70.3006C219.6 70.2006 219.5 70.2005 219.6 70.1005C219.6 70.0005 219.7 70.0006 219.7 69.9005L221 68.1005C221.2 67.8005 221.8 67.1006 222 66.8006C222.2 66.5006 222.5 66.3005 222.4 66.1005C222.4 65.9005 222.4 64.7005 222.3 64.1005C222.2 63.5005 222.3 62.8005 222.3 62.1005C222.2 61.4005 222.1 57.7005 222.1 57.1005C222.1 56.5005 222 56.1006 222 55.9006C222.1 55.7006 222.4 55.7005 222.7 55.8005C223 55.9005 223.4 56.0005 223.7 56.1005C224 56.3005 223.8 56.4005 223.9 56.6005V58.4006C223.9 59.3005 224 60.6005 224.1 61.5005Z" fill="#E1AEF4"/>
<path d="M209.1 62.0002C208.4 64.4002 208.8 66.4002 210.2 66.8002C211.6 67.2002 212.2 66.3002 212.4 65.7002C212.6 65.2002 213.4 62.6002 213.9 61.1002C214.2 60.0002 214.9 58.3002 215.3 57.0002C215.5 56.4002 215.6 55.9002 215.6 55.6002C215.6 55.4002 215.6 55.3002 215.7 55.2002C215.9 54.7002 216.2 54.9002 216.4 55.0002C216.6 55.1002 217.4 55.3002 217.8 55.4002C218.3 55.5002 218.2 55.7002 218.1 56.0002C218.1 56.2002 217.9 56.7002 217.8 57.1002C217.7 57.3002 217.7 57.5002 217.6 57.7002C217.3 58.4002 216.8 60.9002 215.6 64.8002C214.4 68.6002 211.9 69.1002 209.9 68.5002C207.9 67.9002 207.5 65.9002 207.5 64.7002C207.5 64.0002 207.9 62.4002 208.3 61.1002C208.5 60.4002 208.7 59.8002 208.8 59.6002C208.9 59.3002 209.1 58.6002 209.4 57.7002C209.8 56.3002 210.3 54.6002 210.4 54.0002C210.4 53.9002 210.4 53.8002 210.5 53.7002C210.7 53.1002 210.9 53.2002 211 53.3002C211.1 53.3002 211.1 53.4002 211.2 53.4002C211.3 53.4002 211.4 53.4002 211.6 53.5002C211.7 53.5002 211.7 53.6002 211.6 53.8002C212.1 52.4002 210 59.0002 209.1 62.0002Z" fill="#E1AEF4"/>
<path d="M191.9 77.3003C191.5 78.7003 190.7 81.7003 190.5 82.3003C190.3 82.9003 190.1 84.0003 190 84.3003C189.9 84.6003 189.7 84.6003 189.5 84.5003C189.3 84.4003 188.6 84.3003 188.1 84.2003C187.6 84.1003 186.7 83.8003 186.1 83.6003C185.6 83.4003 185.7 83.1003 185.7 82.9003C185.7 82.7003 185.7 82.5003 185.9 82.0003C186 81.8003 186 81.5003 186.2 81.2003C186.6 80.0003 187.3 77.6003 187.7 76.7003C188.1 75.7003 189.4 72.4003 189.6 71.6003C189.8 70.8003 190.1 70.0003 190.4 69.2003C190.6 68.7003 190.9 68.7003 191.1 68.8003C191.3 68.9003 191.5 69.0003 191.6 69.0003C191.9 69.1003 192.8 69.3003 193.3 69.5003C193.9 69.7003 194.1 69.9003 194.2 70.2003C194.3 70.6003 194.5 72.1003 194.6 73.3003C194.8 74.5003 195.2 77.8003 195.4 78.9003C195.5 79.5003 195.7 80.4003 195.8 81.2003L196.1 82.6003L196.4 81.4003L196.9 79.4003C197 79.2003 197 79.0003 197.1 78.8003C197.4 77.9003 197.6 77.1003 197.8 76.6003C198 75.9003 198.4 74.4003 198.6 73.7003L199.3 71.8003C199.4 71.6003 199.5 71.5003 199.7 71.6003C199.8 71.6003 200 71.7003 200.1 71.8003C200.3 71.9003 200.4 71.9003 200.8 72.1003C201 72.2003 201 72.2003 201 72.4003C201 72.5003 200.9 72.6003 200.8 72.8003C200.7 73.2003 199.3 77.6003 199 78.6003C198.9 78.8003 198.9 79.0003 198.8 79.2003C198.4 80.4003 198 82.1003 197.8 82.9003C197.5 83.8003 196.9 86.1003 196.8 86.5003C196.7 86.9003 196.5 86.8003 196.3 86.7003C196.2 86.7003 196.2 86.6003 196.1 86.6003C195.9 86.5003 195.6 86.5003 195.4 86.4003C195.2 86.3003 195.2 86.3003 195.1 85.9003C195 85.5003 194.8 82.3003 194.6 81.4003C194.4 80.5003 194 76.9003 193.8 75.8003C193.7 75.3003 193.6 74.4003 193.4 73.8003L193.1 72.6003L192.6 74.5003C192.4 75.4003 192.1 76.6003 191.9 77.3003Z" fill="#E1AEF4"/>
<path d="M212.4 83.4006C212 84.8006 209.8 90.7006 204.3 89.1006C201.6 88.3006 200.8 85.9006 200.7 83.7006C200.6 82.4006 200.8 81.0006 201.2 79.5006C202.3 75.8006 205.9 73.3006 208.6 74.1006C209.7 74.4006 210.7 74.7006 211.3 75.4006C213.4 78.1006 212.8 82.3006 212.4 83.4006ZM210.8 82.9006C211.8 79.6006 211.1 76.2006 208.7 75.5006C207.9 75.3006 207.4 75.0006 206.6 75.5006C205.8 75.9006 203.4 77.0006 202.5 80.2006C201.5 83.4006 201.6 87.0006 204.6 87.9006C207.6 88.8006 209.7 86.2006 210.8 82.9006Z" fill="#E1AEF4"/>
<path d="M220.2 84.4004C220.5 84.1004 221.9 83.0004 222.2 82.6004C222.5 82.3004 222.8 82.1004 223.1 82.2004C223.4 82.3004 223.2 82.6004 223.3 83.0004C223.2 83.5004 223.2 84.3004 223.1 85.3004C223.1 85.7004 223.1 86.2004 223.1 86.5004C223.1 86.7004 223.1 86.9004 223.2 87.1004C223.3 87.0004 223.3 86.9004 223.4 86.8004L223.8 86.2004C224 85.9004 224.6 85.1004 225.1 84.2004C225.6 83.4004 227 81.3004 227.4 80.8004C227.7 80.3004 228 80.5004 228.5 80.6004L230.2 81.1004C230.5 81.2004 230.6 81.3004 230.5 81.5004C230.5 81.6004 230.4 81.7004 230.3 81.8004C230 82.1004 229.6 82.8004 228.9 83.8004C228.2 84.8004 227 86.6004 226.6 87.2004C226.2 87.9004 224.8 90.3004 224.3 91.2004C223.8 92.0004 222.2 94.1004 222 94.0004C221.7 93.9004 221.6 93.3004 221.6 92.7004C221.5 92.2004 221.4 90.6004 221.4 89.4004C221.4 88.8004 221.4 87.9004 221.4 87.1004L221.3 85.8004C221.2 85.9004 221.2 86.0004 221.1 86.1004C221 86.3004 220.8 86.5004 220.5 86.7004L218.3 89.0004C217.7 89.7004 216.8 90.7004 216.5 91.2004C216.1 91.7004 215.7 92.1004 215.3 92.0004C215.1 91.9004 215 91.7004 215.1 91.3004C215.1 91.0004 215 90.8004 215.1 89.7004C215.2 88.6004 215.4 84.3004 215.5 83.4004C215.5 82.5004 215.8 79.0004 215.8 78.0004C215.8 77.7004 215.8 77.5004 215.9 77.3004C216 77.0004 216.2 76.9004 216.4 76.9004C216.8 77.0004 217.6 77.1004 218.3 77.4004C219 77.6004 218.8 77.9004 218.8 78.2004C218.8 78.7004 218.7 79.1004 218.6 80.1004C218.6 81.0004 218.6 83.3004 218.5 83.8004C218.5 84.3004 218.2 85.4004 218.5 85.5004H218.6C219 85.7004 219.8 84.7004 220.2 84.4004Z" fill="#E1AEF4"/>
<path d="M325.8 121.4L275.1 114.8C271.8 114.4 269.1 117 269.2 120.5L272 203.1C272.1 206.2 274.4 208.6 277.3 208.7L327.9 210.2C330.8 210.3 333.2 207.5 333.1 204.3L330.5 127C330.4 124.2 328.4 121.8 325.8 121.4Z" fill="#FF4584"/>
<path d="M333.2 204.4L330.6 127.1C330.5 124.2 328.5 121.8 325.9 121.4L306 118.8C300.2 131.6 286.2 140.6 270 140.9L271 171.1C277.9 166.8 286.3 164.5 295.3 164.8C317 165.6 333.7 181.9 332.6 201.2C332.4 203.9 331.9 206.6 331.1 209.1C332.4 208.1 333.2 206.3 333.2 204.4Z" fill="#B2177F"/>
<path d="M330.7 121.6L280 115C276.7 114.6 274 117.2 274.1 120.7L276.9 203.3C277 206.4 279.3 208.8 282.2 208.9L332.8 210.4C335.7 210.5 338.1 207.7 338 204.5L335.4 127.2C335.3 124.4 333.3 121.9 330.7 121.6Z" fill="#FADB9F"/>
<path d="M282.2 208.9L284.3 209C296.7 181.1 318.5 162.9 336.6 164.9L335.3 127.3C335.2 124.4 333.2 122 330.6 121.6L322.3 120.5C321.4 129.1 319.3 138.2 315.8 147.3C307 170.5 291.7 188 276.5 194.6L276.8 203.4C277.1 206.4 279.4 208.9 282.2 208.9Z" fill="#FFEBC4"/>
<path d="M326.4 132.2L288.7 127.3C286.3 127 284.2 129 284.3 131.6L286.4 193.1C286.5 195.4 288.2 197.2 290.3 197.3L328 198.4C330.2 198.5 332 196.4 331.9 194L329.9 136.5C329.9 134.3 328.4 132.5 326.4 132.2Z" fill="#EDB967"/>
<path d="M326.1 134.1L291.2 129.6C288.9 129.3 287 131.1 287.1 133.5L289 190.4C289.1 192.5 290.7 194.2 292.6 194.2L327.5 195.2C329.5 195.3 331.2 193.4 331.1 191.1L329.3 137.9C329.3 136 327.9 134.3 326.1 134.1Z" fill="#FADB9F"/>
<path d="M322 139.1C315.6 157.3 302.3 172.6 288.7 179.2L289.1 190.4C289.2 192.3 290.5 193.9 292.3 194.2C301 176.3 316.1 162.4 330.1 159.5L329.4 138C329.3 136 327.9 134.3 326.2 134.1L323.7 133.8C323.2 135.5 322.6 137.3 322 139.1Z" fill="#FDE4B5"/>
<path d="M296.2 160.7C296.3 162.9 296.6 167.4 296.7 168.3C296.7 169.2 296.9 170.8 296.9 171.3V171.4C296.9 171.8 296.7 171.9 296.5 171.9C296.3 171.9 295.5 172 295 172C294.5 172 293.4 172 292.8 172C292.2 172 292.2 171.5 292.1 171.1C292 170.8 292 170.5 291.9 169.7C291.9 169.4 291.9 169 291.9 168.4C291.8 166.6 291.7 162.9 291.7 161.5C291.7 160 291.8 154.7 291.7 153.5C291.6 152.3 291.6 151 291.6 149.8C291.6 149.1 291.9 149 292.2 149C292.4 149 292.7 149.1 292.8 149.1C293.2 149.1 294.1 149.1 294.7 149.1C295.4 149.1 295.6 149.3 295.8 149.8C296 150.3 296.8 152.4 297.4 154C298 155.6 299.7 160.1 300.3 161.6C300.6 162.4 301.1 163.6 301.6 164.7L302.4 166.6L302.3 164.8L302.1 161.7C302.1 161.4 302.1 161.1 302.1 160.8C302 159.5 302 158.2 302 157.3C301.9 156.3 301.8 154 301.7 152.8L301.6 149.8C301.6 149.4 301.7 149.3 301.9 149.3C302.1 149.3 302.2 149.4 302.4 149.4C302.7 149.5 302.8 149.5 303.2 149.5C303.4 149.5 303.5 149.6 303.5 149.8C303.5 150 303.5 150.2 303.5 150.4C303.5 151 303.8 157.8 303.9 159.4C303.9 159.7 303.9 160 303.9 160.3C304 162.1 304.3 164.7 304.3 165.9C304.4 167.3 304.6 170.8 304.7 171.4V171.5C304.7 172.1 304.5 172.1 304.3 172C304.2 172 304.1 172 304 172C303.7 172 303.4 172 303.2 172C303 172 302.9 172 302.7 171.4C302.5 170.8 301 166.5 300.6 165.2C300.1 163.9 298.3 159.1 297.7 157.6C297.4 156.9 297 155.8 296.6 154.8L295.9 153.2L296.1 156.2C296 157.8 296.1 159.6 296.2 160.7Z" fill="#DC9C3F"/>
<path d="M306.5 151V150.9C306.5 150.4 306.6 150.4 306.8 150.4C307 150.4 307.3 150.5 307.6 150.5C308.4 150.5 309.8 150.5 310.4 150.5L312.9 150.6C313.5 150.6 314.4 150.7 315 150.7C315.3 150.7 315.4 150.8 315.4 151.1C315.4 151.2 315.4 151.4 315.4 151.6L315.6 155.3L315.7 156.9C315.7 157 315.7 157.1 315.7 157.1C315.7 157.4 315.7 157.5 315.4 157.5C315.1 157.5 313.5 157.2 313.1 157.2L310.7 157.1C310.4 157.1 310 157.1 309.8 157.1H309.3C309.3 157.3 309.3 157.5 309.3 157.7L309.4 158.7C309.4 159 309.4 159.3 309.4 159.6V160H309.9C310.2 160 310.5 160 310.8 160L312.4 160.1C313.3 160.1 314 160 314.5 160.1C314.9 160.1 315 160.3 315 160.5C315 160.8 315 161 314.9 161.4C314.9 161.7 314.8 161.7 314.6 161.7C314.4 161.7 314 161.6 313.7 161.6C313.4 161.6 312 161.5 311.6 161.5H310.4C310.1 161.5 309.8 161.5 309.5 161.5L309.6 164.5C309.7 166.1 309.7 167.7 309.7 168.2C309.7 168.6 309.7 169.2 309.7 169.8C309.7 170.6 309.8 171.4 309.8 171.6C309.8 172.1 309.6 172.1 309.3 172L307.7 171.9C307.3 171.9 307.4 171.5 307.4 170.8C307.4 170.5 307.3 170 307.3 169.3C307.3 168.4 307.2 167.4 307.2 166.7C307.1 165.5 307.1 162.1 307 161.4C307 160.7 306.8 160 306.8 158.7C306.7 157.4 306.8 156.8 306.7 156L306.6 153.2C306.5 152.7 306.5 151.6 306.5 151Z" fill="#DC9C3F"/>
<path d="M321.4 150.7C322 150.7 324 150.9 325.3 150.9C325.7 150.9 326 150.9 326.2 150.9C327 150.9 327.1 151.5 327.1 151.7C327.1 152 327.1 152.8 327.1 154.1C327.1 155 327.2 156 327.3 156.5C327.3 157.1 327.1 157.3 326.6 157.3L322.6 157.2L322.7 160.4C322.7 160.9 322.8 161.9 322.8 163.1C323 166.6 323.3 171.7 323.3 172.2C323.3 172.3 323.3 172.3 323.3 172.4C323.3 172.9 323.2 172.8 323 172.8L321.5 172.7C321.1 172.7 321.1 172.5 321.1 171.6C321.1 170.7 320.9 162.9 320.8 161.2C320.7 159.9 320.6 158 320.5 157.1C318.9 157 316.8 157.1 316.5 157C316.1 157 316 156.6 316 156.3C316 156 315.9 153.6 315.9 152.2C315.9 151.8 315.9 151.5 315.8 151.3C315.8 151.2 315.8 151.1 315.8 151.1C315.8 150.6 316 150.6 316.2 150.6L318.4 150.7C319.2 150.7 320.6 150.6 321.4 150.7Z" fill="#DC9C3F"/>
<path d="M59.7999 152.6C81.7999 121.9 30.9999 96.5 10.5999 116.6C-9.90006 136.7 4.29994 159.4 12.4999 165C19.1999 169.5 36.2999 173 50.8999 162C56.0999 167.2 61.9999 174.9 62.5999 175.1C63.4999 175.5 60.4999 167.6 57.9999 155.1C58.5999 154.2 59.1999 153.4 59.7999 152.6Z" fill="url(#paint15_linear_149_1706)"/>
<path d="M42.6999 142C42.7999 142.3 42.8999 142.6 42.9999 142.9C44.5999 148.4 41.3999 151.9 36.7999 154.1C36.8999 154.4 36.9999 154.7 37.1999 155L37.3999 155.7C37.2999 155.7 37.1999 155.8 37.2999 155.8C37.2999 155.9 37.2999 155.9 37.2999 155.9C37.1999 155.9 37.0999 156.1 36.8999 156.1L35.6999 156.5C35.1999 156.6 34.8999 156.6 34.5999 156.5C34.3999 156.6 34.1999 156.4 33.9999 156.3C33.8999 156.2 33.8999 156.1 33.7999 155.9C33.6999 155.7 33.6999 155.5 33.5999 155.1V155C31.2999 155.7 28.9999 155.5 26.6999 154.5C25.1999 154 24.2999 153.5 24.0999 152.8C23.9999 152.4 24.0999 151.8 24.3999 151.1C24.4999 151 24.4999 150.8 24.6999 150.7C24.7999 150.7 24.9999 150.7 25.2999 150.8C27.1999 152 30.1999 152.5 32.7999 151.9L31.9999 149.1C31.5999 147.7 31.2999 146.4 30.8999 145L29.5999 140.5C27.6999 140 25.9999 139.6 24.7999 139.2C21.5999 138.2 19.4999 136 18.6999 133.5C17.9999 131.3 18.3999 128.7 19.8999 126.2C20.8999 124.9 22.3999 123.7 23.7999 122.9L23.5999 122.4C23.3999 121.9 23.3999 121.6 22.9999 121.1C22.8999 120.7 22.9999 120.5 23.2999 120.4C23.7999 120.3 24.0999 120.2 24.3999 119.9L24.9999 119.7C25.5999 119.5 25.9999 119.7 26.0999 120.3L26.4999 121.8C29.3999 121.3 32.4999 121.7 35.4999 123.2C35.8999 123.5 36.1999 123.8 36.2999 124.3C36.3999 124.6 36.3999 124.9 36.3999 125.3C36.5999 126 36.1999 126.8 35.3999 126.9C34.0999 126.9 31.4999 123.7 27.2999 124.5C27.5999 125.5 27.9999 127 28.5999 128.3C28.9999 129.8 29.4999 131.4 30.0999 132.9L30.3999 134C35.8999 134.9 40.3999 136.4 42.6999 142ZM23.0999 130.1C23.6999 132 25.4999 133 27.2999 133.4L26.5999 131C26.1999 129.8 25.7999 128.8 25.5999 128.2L24.7999 125.6C23.4999 126.7 22.5999 128.3 23.0999 130.1ZM37.3999 148.5C37.6999 147.6 37.6999 146.7 37.4999 146C36.9999 144.2 35.0999 142.9 32.9999 141.9L34.0999 145.8C34.4999 147.1 34.8999 148.1 35.1999 149.3L35.6999 150.9C36.5999 150.2 36.9999 149.6 37.3999 148.5Z" fill="#C8B2F9"/>
<path d="M82.1 300.4C82.9 298.4 84.9 293.9 84.1 293.9C83.4 293.9 79.2 296.2 75.2 297.1C72.6 296.3 69.7 295.7 66.6 295.5C48.6 294.5 32.4 305.8 33.6 320.7C34.7 334.3 48.7 343.8 64 343.1C78.4 342.4 90.4 332.7 91.7 320.7C92.6 312.6 89 305.1 82.1 300.4Z" fill="url(#paint16_linear_149_1706)"/>
<path d="M58.9 305.8L65.4 312L74.3 310.1L70.4 318.2L74.9 326L66 324.9L60 331.6L58.3 322.8L50 319.1L57.9 314.8L58.9 305.8Z" fill="#E1AEF4"/>
<path d="M260.2 295.3C254 314.6 264.5 335 283.8 341.2C303.3 347.5 324.6 336.9 331.3 317.5C338.1 297.8 327.3 276.7 307.3 270.7C287.4 264.6 266.4 275.8 260.2 295.3Z" fill="url(#paint17_linear_149_1706)"/>
<path opacity="0.31" d="M278.1 324.8C293 313.3 313.9 305 333.2 303.4C332.5 291.5 326 280.5 315.6 274.3C312.1 283 305.8 291.4 297.1 298.2C284.9 307.6 270.7 311.6 258.6 310.1C259.4 318.7 263.3 326.7 269.5 332.6C272 329.9 274.9 327.3 278.1 324.8Z" fill="white"/>
<path d="M306.9 271.6C287.4 265.7 266.7 276.7 260.5 295.9C254.4 314.9 264.8 335 283.8 341.1C303 347.3 324 336.9 330.6 317.7C337.2 298.3 326.6 277.6 306.9 271.6ZM328.7 318C321.9 336.7 301.6 346.6 283.5 340.4C265.5 334.3 256.1 314.6 262.4 296.1C268.8 277.4 288.8 266.9 307.3 272.8C325.9 278.8 335.6 299.1 328.7 318Z" fill="#FF982C"/>
<path opacity="0.99" d="M307.2 270.6C287.4 264.6 266.4 275.8 260.1 295.3C253.9 314.6 264.4 335 283.7 341.2C303.2 347.5 324.5 336.9 331.2 317.5C338 297.7 327.2 276.6 307.2 270.6ZM330.2 317.1C323.7 335.9 303.1 346.1 284.2 340C265.5 334 255.3 314.2 261.3 295.6C267.4 276.8 287.7 266 306.9 271.8C326.2 277.6 336.7 298 330.2 317.1Z" fill="#FFF2CF"/>
<path opacity="0.67" d="M306.8 324.1C310 314.8 301.4 308.3 300.2 307.4C301.6 307.4 303 307.2 304.3 306.6C306.6 305.6 309.3 303.6 310.9 299C312.9 293.2 311.3 289.7 308.2 287.4L309.5 283.6C309.7 283.1 309.4 282.6 308.9 282.4L305.5 281.3C305 281.1 304.4 281.4 304.3 281.9L303.2 284.9C302.8 284.8 302.5 284.6 302.1 284.5C301.3 284.3 300.5 284 299.6 283.8L300.7 280.8C300.9 280.3 300.6 279.7 300 279.5L297 278.5C296.5 278.3 295.9 278.6 295.7 279.1L294.4 282.7C294.2 282.7 294.1 282.7 294 282.7C293.5 282.7 293.2 282.8 293.2 283C293.2 283.1 293.1 283.2 293.2 283.3C293.2 283.6 292.8 285 292.4 286.2C292.2 286.8 292 287.3 291.8 287.8C291 289.3 287.9 298.2 286.5 301.4C285.7 303.1 285.3 304.3 284.9 305.4C284.6 306.3 284.3 307.1 283.9 308.2L279.1 321.3C278.7 322.4 278.5 323.5 279.7 324.1L278.4 327.8C278.2 328.4 278.5 329 279.1 329.2L282.2 330.3C282.8 330.5 283.4 330.2 283.6 329.6L285 325.8C286.3 326.2 287.6 326.6 288.6 327L287.2 331C287 331.5 287.3 332.1 287.8 332.3L291.3 333.5C291.8 333.7 292.4 333.4 292.6 332.9L294 328.8C298.4 329.7 304.8 330.1 306.8 324.1ZM294.6 302.2L296.9 295.6C297.5 294 298.4 291.5 299.2 289.5L300.6 285.9C306.1 287.7 311.5 289.9 308.4 298.8C305.3 307.8 294.5 304.8 294.1 304.6C293.7 304.5 293.7 304.3 293.9 303.9C294.1 303.5 294.3 303.1 294.6 302.2ZM288.5 325.6C287.3 325.2 286.6 325.2 287 324C287.4 322.9 288.5 319.1 289 317.6C289.5 316.2 289.7 316 290.1 314.9C290.5 313.8 291.9 309.1 292.3 307.8C292.5 307.2 292.7 306.7 292.8 306.5C292.9 306.3 292.9 306.2 293 306C295.6 306.8 297.8 307.9 299.6 309.4C302.6 312 305.1 316.1 302.9 322.6C301.5 326.9 296.8 328.5 288.5 325.6Z" fill="white"/>
<path d="M305.6 275.5C288.3 270.3 269.9 280 264.4 297.1C259 314 268.2 331.8 285.1 337.3C302.1 342.8 320.8 333.6 326.7 316.5C332.6 299.3 323.1 280.8 305.6 275.5ZM325.8 316.8C319.7 333.5 301.3 342.3 284.6 336.7C268.2 331.1 259.5 313.4 265.1 296.9C270.8 280.2 289 270.8 305.9 276.2C323.1 281.6 332 299.9 325.8 316.8Z" fill="#FF982C"/>
<path d="M154.7 44.2001C154.7 40.0001 151.3 36.7001 147.2 36.7001C143 36.7001 139.7 40.1001 139.7 44.2001C139.7 47.6001 142 50.5001 145.1 51.4001V77.6001C145.1 79.5001 143.6 81.0001 141.7 81.0001H134.9C133.9 77.0001 130.3 73.9001 126 73.9001H123.5V63.2001C123.5 61.3001 125 59.8001 126.9 59.8001C131.2 59.8001 134.6 56.3001 134.6 52.1001V24.3001C137.7 23.4001 139.9 20.5001 139.9 17.1001C139.9 12.9001 136.5 9.6001 132.4 9.6001C128.2 9.6001 124.9 13.0001 124.9 17.1001C124.9 20.5001 127.2 23.4001 130.3 24.3001V28.5001H122C120.1 28.5001 118.6 27.0001 118.6 25.1001V14.8001C121.7 13.9001 123.9 11.0001 123.9 7.6001C123.9 3.4001 120.5 0.100098 116.4 0.100098C112.2 0.100098 108.9 3.5001 108.9 7.6001C108.9 11.0001 111.2 13.9001 114.3 14.8001V25.1001C114.3 29.4001 117.8 32.8001 122 32.8001H130.4V52.1001C130.4 54.0001 128.9 55.5001 127 55.5001C122.7 55.5001 119.3 59.0001 119.3 63.2001V74.0001H113.2C110.5 74.0001 108.3 71.8001 108.3 69.1001V45.6001C111.3 44.6001 113.4 41.8001 113.4 38.5001C113.4 34.3001 110 31.0001 105.9 31.0001C101.7 31.0001 98.3999 34.4001 98.3999 38.5001C98.3999 42.0001 100.8 44.9001 104 45.8001V69.0001C104 74.1001 108.1 78.2001 113.2 78.2001H126C128.7 78.2001 130.9 80.4001 130.9 83.1001V93.3001C130.9 94.5001 131.9 95.4001 133 95.4001C134.2 95.4001 135.1 94.4001 135.1 93.3001V85.2001H141.6C145.9 85.2001 149.3 81.7001 149.3 77.5001V51.3001C152.5 50.5001 154.7 47.6001 154.7 44.2001Z" fill="#E1AEF4"/>
</g>
<defs>
<linearGradient id="paint0_linear_149_1706" x1="134.138" y1="283.24" x2="209.633" y2="245.863" gradientUnits="userSpaceOnUse">
<stop stop-color="#D93499"/>
<stop offset="1" stop-color="#FF4584"/>
</linearGradient>
<linearGradient id="paint1_linear_149_1706" x1="141.554" y1="298.219" x2="217.049" y2="260.841" gradientUnits="userSpaceOnUse">
<stop stop-color="#D93499"/>
<stop offset="1" stop-color="#FF4584"/>
</linearGradient>
<linearGradient id="paint2_linear_149_1706" x1="142.177" y1="299.477" x2="217.672" y2="262.099" gradientUnits="userSpaceOnUse">
<stop stop-color="#D93499"/>
<stop offset="1" stop-color="#FF4584"/>
</linearGradient>
<linearGradient id="paint3_linear_149_1706" x1="143.974" y1="303.106" x2="219.47" y2="265.728" gradientUnits="userSpaceOnUse">
<stop stop-color="#D93499"/>
<stop offset="1" stop-color="#FF4584"/>
</linearGradient>
<linearGradient id="paint4_linear_149_1706" x1="158.305" y1="332.046" x2="233.8" y2="294.669" gradientUnits="userSpaceOnUse">
<stop stop-color="#D93499"/>
<stop offset="1" stop-color="#FF4584"/>
</linearGradient>
<linearGradient id="paint5_linear_149_1706" x1="163.249" y1="342.032" x2="238.744" y2="304.654" gradientUnits="userSpaceOnUse">
<stop stop-color="#D93499"/>
<stop offset="1" stop-color="#FF4584"/>
</linearGradient>
<linearGradient id="paint6_linear_149_1706" x1="151.294" y1="317.889" x2="226.789" y2="280.511" gradientUnits="userSpaceOnUse">
<stop stop-color="#D93499"/>
<stop offset="1" stop-color="#FF4584"/>
</linearGradient>
<linearGradient id="paint7_linear_149_1706" x1="153.545" y1="322.433" x2="229.039" y2="285.056" gradientUnits="userSpaceOnUse">
<stop stop-color="#D93499"/>
<stop offset="1" stop-color="#FF4584"/>
</linearGradient>
<linearGradient id="paint8_linear_149_1706" x1="164.992" y1="345.553" x2="240.486" y2="308.176" gradientUnits="userSpaceOnUse">
<stop stop-color="#D93499"/>
<stop offset="1" stop-color="#FF4584"/>
</linearGradient>
<linearGradient id="paint9_linear_149_1706" x1="149.676" y1="314.62" x2="225.171" y2="277.242" gradientUnits="userSpaceOnUse">
<stop stop-color="#D93499"/>
<stop offset="1" stop-color="#FF4584"/>
</linearGradient>
<linearGradient id="paint10_linear_149_1706" x1="150.644" y1="316.577" x2="226.139" y2="279.2" gradientUnits="userSpaceOnUse">
<stop stop-color="#D93499"/>
<stop offset="1" stop-color="#FF4584"/>
</linearGradient>
<linearGradient id="paint11_linear_149_1706" x1="136.172" y1="287.349" x2="211.667" y2="249.972" gradientUnits="userSpaceOnUse">
<stop stop-color="#D93499"/>
<stop offset="1" stop-color="#FF4584"/>
</linearGradient>
<linearGradient id="paint12_linear_149_1706" x1="146.525" y1="308.259" x2="222.021" y2="270.881" gradientUnits="userSpaceOnUse">
<stop stop-color="#D93499"/>
<stop offset="1" stop-color="#FF4584"/>
</linearGradient>
<linearGradient id="paint13_linear_149_1706" x1="126.574" y1="267.965" x2="202.069" y2="230.588" gradientUnits="userSpaceOnUse">
<stop stop-color="#D93499"/>
<stop offset="1" stop-color="#FF4584"/>
</linearGradient>
<linearGradient id="paint14_linear_149_1706" x1="216.671" y1="53.7429" x2="192.514" y2="93.6537" gradientUnits="userSpaceOnUse">
<stop stop-color="#8815AD"/>
<stop offset="1" stop-color="#651387"/>
</linearGradient>
<linearGradient id="paint15_linear_149_1706" x1="32.6255" y1="170.365" x2="32.5863" y2="106.093" gradientUnits="userSpaceOnUse">
<stop stop-color="#3E1E96"/>
<stop offset="1" stop-color="#6F42C1"/>
</linearGradient>
<linearGradient id="paint16_linear_149_1706" x1="33.603" y1="317.163" x2="91.8658" y2="319.285" gradientUnits="userSpaceOnUse">
<stop stop-color="#E1AEF4"/>
<stop offset="1" stop-color="#8815AD"/>
</linearGradient>
<linearGradient id="paint17_linear_149_1706" x1="261.521" y1="365.529" x2="318.703" y2="266.218" gradientUnits="userSpaceOnUse">
<stop stop-color="#FFC135"/>
<stop offset="1" stop-color="#FFDB7B"/>
</linearGradient>
<clipPath id="clip0_149_1706">
<rect width="338.1" height="405.1" fill="white"/>
</clipPath>
</defs>
</svg>
