<svg width="114" height="32" viewBox="0 0 114 32" fill="none" xmlns="http://www.w3.org/2000/svg">
<path d="M2.54189 3.56791C2.89322 3.56791 3.17802 3.28239 3.17802 2.93019C3.17802 2.57799 2.89322 2.29248 2.54189 2.29248C2.19057 2.29248 1.90576 2.57799 1.90576 2.93019C1.90576 3.28239 2.19057 3.56791 2.54189 3.56791Z" fill="white"/>
<path d="M19.4916 3.84916C19.8429 3.84916 20.1277 3.56364 20.1277 3.21144C20.1277 2.85924 19.8429 2.57373 19.4916 2.57373C19.1403 2.57373 18.8555 2.85924 18.8555 3.21144C18.8555 3.56364 19.1403 3.84916 19.4916 3.84916Z" fill="white"/>
<path d="M5.22098 14.8777C5.03147 14.685 4.7904 14.5512 4.52682 14.4927C4.26323 14.4341 3.98838 14.4532 3.73538 14.5477C3.48237 14.6421 3.262 14.8079 3.10082 15.025C2.93965 15.2421 2.84453 15.5014 2.82695 15.7714C2.84644 16.0854 2.95603 16.387 3.14251 16.64C3.329 16.8929 3.58443 17.0865 3.87808 17.1973C4.17173 17.3082 4.49108 17.3316 4.79769 17.2648C5.10429 17.1979 5.3851 17.0437 5.60631 16.8206L6.3838 16.048L5.22098 14.8777ZM19.9341 9.28483e-07H2.81099C2.44172 -0.00029967 2.07602 0.0723923 1.7348 0.213918C1.39358 0.355444 1.08355 0.563025 0.822438 0.824787C0.561327 1.08655 0.354261 1.39735 0.213087 1.73942C0.0719124 2.08149 -0.000598978 2.4481 -0.000299126 2.81829V17.7051C-0.00771262 18.4426 0.202941 19.1657 0.605076 19.7832C1.00721 20.4007 1.58281 20.885 2.25922 21.1749V15.8674C2.25922 15.8377 2.25922 15.808 2.25922 15.7783C2.25922 15.7486 2.25922 15.712 2.25922 15.6777V4.09372C1.97345 4.02436 1.72296 3.85237 1.55519 3.61031C1.38741 3.36825 1.31399 3.07292 1.34883 2.78024C1.38366 2.48756 1.52434 2.21784 1.74422 2.02216C1.9641 1.82647 2.24792 1.71839 2.54194 1.71839C2.83597 1.71839 3.11979 1.82647 3.33967 2.02216C3.55955 2.21784 3.70022 2.48756 3.73506 2.78024C3.76989 3.07292 3.69647 3.36825 3.5287 3.61031C3.36092 3.85237 3.11044 4.02436 2.82467 4.09372V14.48C3.01058 14.2926 3.23239 14.1449 3.47676 14.0457C3.83593 13.8925 4.23299 13.852 4.61559 13.9295C4.99819 14.007 5.34838 14.199 5.61999 14.48L6.77597 15.6457L8.61368 13.792L18.468 3.83772C18.3309 3.61076 18.2726 3.34464 18.3024 3.08098C18.3322 2.81733 18.4483 2.571 18.6326 2.38053C18.8169 2.19006 19.0589 2.06619 19.3209 2.0283C19.5829 1.99041 19.85 2.04063 20.0805 2.17111C20.3109 2.30159 20.4918 2.50497 20.5947 2.74943C20.6976 2.9939 20.7168 3.26566 20.6492 3.52222C20.5817 3.77878 20.4312 4.00566 20.2214 4.16738C20.0115 4.3291 19.7541 4.41653 19.4895 4.416C19.2691 4.4159 19.0533 4.3533 18.867 4.23543L9.0104 14.1943L7.17498 16.048L8.96252 17.856L10.8048 16L21.9268 4.8C22.3176 4.40541 22.5831 3.90368 22.6899 3.35805C22.7966 2.81242 22.7399 2.24732 22.5267 1.73398C22.3136 1.22064 21.9537 0.782033 21.4923 0.473454C21.0309 0.164876 20.4887 0.000136182 19.9341 9.28483e-07ZM6.0076 17.2251C5.80759 17.4324 5.56811 17.5972 5.30334 17.7099C5.03858 17.8226 4.75393 17.8808 4.46629 17.8811C4.1743 17.8808 3.88526 17.8226 3.61584 17.7097C3.31451 17.5885 3.04414 17.401 2.82467 17.1611V21.3714C3.46344 21.5467 4.13741 21.5469 4.77628 21.372C5.41515 21.1971 5.99549 20.8535 6.45676 20.3771L8.56352 18.256L6.77597 16.4571L6.0076 17.2251Z" fill="white"/>
<path d="M2.54189 29.8057C2.89322 29.8057 3.17802 29.5202 3.17802 29.168C3.17802 28.8158 2.89322 28.5303 2.54189 28.5303C2.19057 28.5303 1.90576 28.8158 1.90576 29.168C1.90576 29.5202 2.19057 29.8057 2.54189 29.8057Z" fill="white"/>
<path d="M19.704 29.7349C20.0553 29.7349 20.3401 29.4494 20.3401 29.0972C20.3401 28.745 20.0553 28.4595 19.704 28.4595C19.3527 28.4595 19.0679 28.745 19.0679 29.0972C19.0679 29.4494 19.3527 29.7349 19.704 29.7349Z" fill="white"/>
<path d="M5.22098 14.8778C5.03147 14.685 4.7904 14.5513 4.52682 14.4928C4.26323 14.4342 3.98838 14.4533 3.73538 14.5477C3.48237 14.6422 3.262 14.808 3.10082 15.0251C2.93965 15.2422 2.84453 15.5014 2.82695 15.7715C2.84644 16.0855 2.95603 16.3871 3.14251 16.64C3.329 16.893 3.58443 17.0866 3.87808 17.1974C4.17173 17.3083 4.49108 17.3317 4.79769 17.2648C5.10429 17.198 5.3851 17.0437 5.60631 16.8206L6.3838 16.0481L5.22098 14.8778ZM6.3838 16.0481L5.22098 14.8778C5.03147 14.685 4.7904 14.5513 4.52682 14.4928C4.26323 14.4342 3.98838 14.4533 3.73538 14.5477C3.48237 14.6422 3.262 14.808 3.10082 15.0251C2.93965 15.2422 2.84453 15.5014 2.82695 15.7715C2.82695 15.8012 2.82695 15.8286 2.82695 15.8606V17.1544C3.04642 17.3942 3.31679 17.5817 3.61812 17.7029C3.88754 17.8158 4.17658 17.8741 4.46857 17.8744C4.75621 17.8741 5.04086 17.8158 5.30562 17.7031C5.57039 17.5905 5.80987 17.4256 6.00988 17.2184L6.77597 16.4572L6.3838 16.0481ZM21.9268 27.2001L10.8048 16.0001L9.0104 14.1944L8.61368 13.7921L6.45676 11.6229C5.99549 11.1465 5.41515 10.803 4.77628 10.6281C4.13741 10.4532 3.46344 10.4534 2.82467 10.6286C2.63128 10.679 2.4422 10.7448 2.25922 10.8252C1.58281 11.1151 1.00721 11.5994 0.605076 12.2169C0.202941 12.8344 -0.00771262 13.5575 -0.000299126 14.2949V29.1818C-0.000598978 29.552 0.0719124 29.9186 0.213087 30.2607C0.354261 30.6027 0.561327 30.9135 0.822438 31.1753C1.08355 31.4371 1.39358 31.6446 1.7348 31.7862C2.07602 31.9277 2.44172 32.0004 2.81099 32.0001H19.9341C20.4887 31.9999 21.0309 31.8352 21.4923 31.5266C21.9537 31.218 22.3136 30.7794 22.5267 30.2661C22.7399 29.7528 22.7966 29.1877 22.6899 28.642C22.5831 28.0964 22.3176 27.5947 21.9268 27.2001ZM19.7038 30.3041C19.4902 30.3055 19.2802 30.2496 19.0955 30.142C18.9108 30.0345 18.7583 29.8793 18.6537 29.6926C18.5492 29.5059 18.4965 29.2945 18.5011 29.0804C18.5058 28.8664 18.5675 28.6575 18.68 28.4755L8.56352 18.2561L6.77597 16.4572L6.3838 16.0481L5.22098 14.8778C5.03147 14.685 4.7904 14.5513 4.52682 14.4928C4.26323 14.4342 3.98838 14.4533 3.73538 14.5477C3.48237 14.6422 3.262 14.808 3.10082 15.0251C2.93965 15.2422 2.84453 15.5014 2.82695 15.7715C2.82695 15.8012 2.82695 15.8286 2.82695 15.8606V27.9955C3.11272 28.0649 3.3632 28.2368 3.53098 28.4789C3.69875 28.721 3.77217 29.0163 3.73734 29.309C3.7025 29.6017 3.56183 29.8714 3.34195 30.0671C3.12207 30.2628 2.83825 30.3708 2.54422 30.3708C2.2502 30.3708 1.96638 30.2628 1.7465 30.0671C1.52662 29.8714 1.38594 29.6017 1.35111 29.309C1.31627 29.0163 1.38969 28.721 1.55747 28.4789C1.72524 28.2368 1.97573 28.0649 2.2615 27.9955V15.8675C2.2615 15.8378 2.2615 15.8081 2.2615 15.7784C2.27717 15.2894 2.47864 14.825 2.82467 14.4801C3.01058 14.2927 3.23239 14.145 3.47676 14.0458C3.83593 13.8926 4.23299 13.852 4.61559 13.9296C4.99819 14.0071 5.34838 14.199 5.61999 14.4801L6.77597 15.6458L7.17498 16.0481L8.96252 17.8561L19.0813 28.0732C19.268 27.9565 19.4837 27.8947 19.7038 27.8949C20.0131 27.9085 20.3053 28.0411 20.5194 28.2654C20.7335 28.4896 20.853 28.788 20.853 29.0984C20.853 29.4088 20.7335 29.7072 20.5194 29.9314C20.3053 30.1556 20.0131 30.2883 19.7038 30.3018V30.3041ZM6.3838 16.0481L5.22098 14.8778C5.03147 14.685 4.7904 14.5513 4.52682 14.4928C4.26323 14.4342 3.98838 14.4533 3.73538 14.5477C3.48237 14.6422 3.262 14.808 3.10082 15.0251C2.93965 15.2422 2.84453 15.5014 2.82695 15.7715C2.82695 15.8012 2.82695 15.8286 2.82695 15.8606V17.1544C3.04642 17.3942 3.31679 17.5817 3.61812 17.7029C3.88754 17.8158 4.17658 17.8741 4.46857 17.8744C4.75621 17.8741 5.04086 17.8158 5.30562 17.7031C5.57039 17.5905 5.80987 17.4256 6.00988 17.2184L6.77597 16.4572L6.3838 16.0481Z" fill="white"/>
<path d="M59.6227 16.1189C59.9376 16.1189 60.1928 15.8631 60.1928 15.5475C60.1928 15.2319 59.9376 14.9761 59.6227 14.9761C59.3079 14.9761 59.0527 15.2319 59.0527 15.5475C59.0527 15.8631 59.3079 16.1189 59.6227 16.1189Z" fill="white"/>
<path d="M51.6428 16.1189C51.9576 16.1189 52.2128 15.8631 52.2128 15.5475C52.2128 15.2319 51.9576 14.9761 51.6428 14.9761C51.328 14.9761 51.0728 15.2319 51.0728 15.5475C51.0728 15.8631 51.328 16.1189 51.6428 16.1189Z" fill="white"/>
<path d="M55.0627 10.8616C55.3775 10.8616 55.6327 10.6058 55.6327 10.2902C55.6327 9.97459 55.3775 9.71875 55.0627 9.71875C54.7479 9.71875 54.4927 9.97459 54.4927 10.2902C54.4927 10.6058 54.7479 10.8616 55.0627 10.8616Z" fill="white"/>
<path d="M59.593 26.8755C58.9683 26.8755 58.5229 26.752 58.2569 26.5052C57.9909 26.2583 57.8571 25.8568 57.8556 25.3006V17.7966H59.2236C59.5414 17.8065 59.8579 17.7523 60.1543 17.6372C60.4507 17.5221 60.7211 17.3485 60.9493 17.1267C61.1776 16.9049 61.359 16.6394 61.4829 16.3459C61.6069 16.0524 61.6707 15.737 61.6707 15.4183C61.6707 15.0997 61.6069 14.7842 61.4829 14.4908C61.359 14.1973 61.1776 13.9318 60.9493 13.71C60.7211 13.4881 60.4507 13.3145 60.1543 13.1995C59.8579 13.0844 59.5414 13.0302 59.2236 13.04H57.8556V11.3486C57.8556 10.589 57.5546 9.86057 57.0189 9.32347C56.4831 8.78636 55.7564 8.48462 54.9987 8.48462C54.241 8.48462 53.5144 8.78636 52.9786 9.32347C52.4428 9.86057 52.1419 10.589 52.1419 11.3486V13.04C51.5371 13.04 50.9572 13.2809 50.5296 13.7095C50.102 14.1382 49.8618 14.7196 49.8618 15.3258V15.5269C49.8618 16.1331 50.102 16.7145 50.5296 17.1431C50.9572 17.5718 51.5371 17.8126 52.1419 17.8126V25.2343C52.1419 27.5338 52.721 29.1917 53.8792 30.208C55.0375 31.2244 56.6525 31.7326 58.7243 31.7326H59.593C60.1336 31.7326 60.6521 31.5173 61.0343 31.1341C61.4166 30.7509 61.6314 30.2311 61.6314 29.6892V28.9189C61.6314 28.377 61.4166 27.8572 61.0343 27.474C60.6521 27.0908 60.1336 26.8755 59.593 26.8755ZM55.0626 9.26176C55.3136 9.26354 55.5552 9.35748 55.7417 9.52581C55.9283 9.69414 56.0468 9.92517 56.0749 10.1752C56.103 10.4252 56.0387 10.6769 55.8941 10.8826C55.7496 11.0883 55.5349 11.2338 55.2906 11.2915V13.6046C55.2906 14.029 55.4587 14.4359 55.758 14.736C56.0574 15.036 56.4633 15.2046 56.8866 15.2046H58.6559C58.74 14.9663 58.9087 14.7675 59.1297 14.6459C59.3508 14.5244 59.6087 14.4887 59.8544 14.5456C60.1 14.6026 60.3161 14.7482 60.4615 14.9547C60.6068 15.1612 60.6713 15.4141 60.6425 15.6652C60.6137 15.9163 60.4936 16.148 60.3053 16.316C60.117 16.4841 59.8735 16.5767 59.6214 16.5763C59.3693 16.5759 59.1262 16.4824 58.9384 16.3137C58.7507 16.145 58.6314 15.913 58.6035 15.6618H56.8866C56.3424 15.6618 55.8204 15.445 55.4356 15.0592C55.0508 14.6735 54.8346 14.1502 54.8346 13.6046V11.2938C54.5881 11.2381 54.3707 11.0932 54.2242 10.8868C54.0776 10.6804 54.0122 10.4271 54.0404 10.1754C54.0687 9.92362 54.1886 9.69118 54.3772 9.5226C54.5658 9.35401 54.8099 9.26113 55.0626 9.26176ZM59.8507 30.0618C59.6439 30.0611 59.4421 29.9979 59.2716 29.8804C59.1012 29.763 58.9701 29.5968 58.8953 29.4035L57.6481 29.3875C57.1063 29.3839 56.5878 29.1655 56.206 28.7801C55.8241 28.3947 55.6098 27.8736 55.6098 27.3303V17.3349C55.6098 16.9106 55.4416 16.5036 55.1423 16.2035C54.843 15.9035 54.4371 15.7349 54.0138 15.7349H52.6457C52.6021 15.9864 52.4674 16.2129 52.2676 16.3712C52.0678 16.5294 51.8168 16.6083 51.5626 16.5926C51.3084 16.577 51.0689 16.468 50.8899 16.2865C50.7108 16.105 50.6048 15.8637 50.5921 15.6087C50.5794 15.3537 50.6609 15.103 50.821 14.9045C50.981 14.706 51.2085 14.5736 51.4599 14.5326C51.7112 14.4916 51.9688 14.545 52.1834 14.6825C52.398 14.82 52.5544 15.0319 52.6229 15.2778H54.0092C54.5534 15.2778 55.0754 15.4945 55.4602 15.8803C55.845 16.2661 56.0612 16.7893 56.0612 17.3349V27.3303C56.0612 27.7547 56.2294 28.1616 56.5287 28.4617C56.828 28.7618 57.234 28.9303 57.6573 28.9303L58.8383 28.9463C58.8556 28.7478 58.9302 28.5586 59.0529 28.4018C59.1757 28.245 59.3413 28.1275 59.5296 28.0635C59.7179 27.9995 59.9207 27.9919 60.1132 28.0416C60.3058 28.0912 60.4797 28.196 60.6139 28.3431C60.748 28.4902 60.8365 28.6733 60.8685 28.87C60.9006 29.0667 60.8748 29.2685 60.7944 29.4508C60.7139 29.633 60.5823 29.7879 60.4155 29.8964C60.2487 30.0049 60.054 30.0623 59.8552 30.0618H59.8507Z" fill="white"/>
<path d="M59.8508 29.6045C60.1656 29.6045 60.4208 29.3487 60.4208 29.0331C60.4208 28.7175 60.1656 28.4617 59.8508 28.4617C59.536 28.4617 59.2808 28.7175 59.2808 29.0331C59.2808 29.3487 59.536 29.6045 59.8508 29.6045Z" fill="white"/>
<path d="M67.6232 16.1189C67.938 16.1189 68.1932 15.8631 68.1932 15.5475C68.1932 15.2319 67.938 14.9761 67.6232 14.9761C67.3084 14.9761 67.0532 15.2319 67.0532 15.5475C67.0532 15.8631 67.3084 16.1189 67.6232 16.1189Z" fill="white"/>
<path d="M67.6027 9.03322C68.1693 9.03322 68.6287 8.57271 68.6287 8.00465C68.6287 7.43658 68.1693 6.97607 67.6027 6.97607C67.036 6.97607 66.5767 7.43658 66.5767 8.00465C66.5767 8.57271 67.036 9.03322 67.6027 9.03322Z" fill="white"/>
<path d="M67.6804 11.0971C68.5821 11.1268 69.459 10.7982 70.1201 10.1828C70.4298 9.88862 70.6733 9.53147 70.8341 9.13529C70.995 8.73911 71.0695 8.31304 71.0526 7.88563C71.0469 7.48775 70.9596 7.09529 70.796 6.73272C70.6324 6.37015 70.3961 6.04523 70.1018 5.77821C69.4414 5.17645 68.5724 4.85736 67.6804 4.88906C66.7775 4.85247 65.8961 5.17161 65.2249 5.77821C64.9256 6.04962 64.6862 6.38076 64.5221 6.75037C64.3579 7.11999 64.2727 7.51991 64.2718 7.92449C64.2488 8.71229 64.5344 9.4778 65.0675 10.0571C65.7227 10.7504 66.5936 11.0971 67.6804 11.0971ZM67.6029 6.52563C67.8965 6.52564 68.1835 6.61307 68.4275 6.77684C68.6714 6.9406 68.8614 7.17332 68.9732 7.44546C69.085 7.71761 69.1137 8.01692 69.0556 8.30543C68.9975 8.59393 68.8552 8.85864 68.6468 9.06596C68.4384 9.27327 68.1732 9.41387 67.885 9.4699C67.5968 9.52592 67.2984 9.49487 67.0278 9.38066C66.7572 9.26646 66.5266 9.07425 66.3651 8.82843C66.2036 8.58261 66.1186 8.29424 66.1209 7.99992C66.1227 7.60686 66.2796 7.23049 66.5572 6.95298C66.8349 6.67547 67.2108 6.51938 67.6029 6.51878V6.52563Z" fill="white"/>
<path d="M67.45 28.9485C67.3196 28.9897 67.2083 29.0763 67.1361 29.1927C67.0639 29.3091 67.0357 29.4475 67.0565 29.5829C67.0773 29.7184 67.1457 29.8419 67.2495 29.9311C67.3532 30.0203 67.4854 30.0693 67.6221 30.0693C67.7588 30.0693 67.891 30.0203 67.9947 29.9311C68.0985 29.8419 68.1669 29.7184 68.1877 29.5829C68.2085 29.4475 68.1803 29.3091 68.1081 29.1927C68.0359 29.0763 67.9246 28.9897 67.7942 28.9485H67.45Z" fill="white"/>
<path d="M67.6621 13.04C66.9044 13.04 66.1777 13.3418 65.6419 13.8789C65.1062 14.416 64.8052 15.1445 64.8052 15.904V28.8686C64.8052 29.6282 65.1062 30.3567 65.6419 30.8938C66.1777 31.4309 66.9044 31.7326 67.6621 31.7326C68.4198 31.7326 69.1464 31.4309 69.6822 30.8938C70.218 30.3567 70.5189 29.6282 70.5189 28.8686V15.904C70.5189 15.1445 70.218 14.416 69.6822 13.8789C69.1464 13.3418 68.4198 13.04 67.6621 13.04ZM68.6493 29.4972C68.6496 29.6909 68.5954 29.8807 68.4928 30.0449C68.3903 30.209 68.2435 30.3408 68.0696 30.4251C67.8956 30.5093 67.7014 30.5426 67.5094 30.5211C67.3173 30.4996 67.1353 30.4242 66.9841 30.3035C66.833 30.1828 66.7189 30.0218 66.655 29.839C66.5911 29.6562 66.58 29.4591 66.623 29.2702C66.6659 29.0814 66.7612 28.9085 66.8978 28.7715C67.0345 28.6346 67.2069 28.5391 67.3953 28.496V16.5486C67.1493 16.4924 66.9327 16.3474 66.7867 16.1412C66.6406 15.9349 66.5755 15.682 66.6037 15.4308C66.6319 15.1795 66.7515 14.9474 66.9396 14.7789C67.1276 14.6103 67.371 14.5172 67.6233 14.5172C67.8755 14.5172 68.119 14.6103 68.307 14.7789C68.4951 14.9474 68.6147 15.1795 68.6429 15.4308C68.6711 15.682 68.606 15.9349 68.4599 16.1412C68.3139 16.3474 68.0972 16.4924 67.8513 16.5486V28.4892C68.0767 28.5411 68.2781 28.6677 68.4229 28.8485C68.5677 29.0294 68.6475 29.2539 68.6493 29.4858V29.4972Z" fill="white"/>
<path d="M89.4547 27.3395L85.3232 22.4184L89.4273 17.4424C89.7519 17.0494 89.9582 16.5719 90.0221 16.0657C90.0861 15.5596 90.005 15.0456 89.7883 14.5839C89.5717 14.1222 89.2284 13.7319 88.7987 13.4585C88.369 13.1851 87.8705 13.04 87.3616 13.0401C86.9437 13.0399 86.5316 13.1378 86.1583 13.3259C85.7849 13.5141 85.4607 13.7872 85.2115 14.1235L80.3778 20.6447V9.80809C80.3778 9.04851 80.0768 8.32004 79.5411 7.78294C79.0053 7.24583 78.2786 6.94409 77.5209 6.94409C76.7633 6.94409 76.0366 7.24583 75.5008 7.78294C74.9651 8.32004 74.6641 9.04851 74.6641 9.80809V28.8687C74.6641 29.6282 74.9651 30.3567 75.5008 30.8938C76.0366 31.4309 76.7633 31.7327 77.5209 31.7327C78.2786 31.7327 79.0053 31.4309 79.5411 30.8938C80.0768 30.3567 80.3778 29.6282 80.3778 28.8687V23.8927L85.2594 30.6287C85.5067 30.9699 85.831 31.2477 86.2059 31.4392C86.5808 31.6306 86.9956 31.7304 87.4163 31.7304C87.9236 31.7299 88.4203 31.5844 88.8479 31.3108C89.2756 31.0371 89.6164 30.6469 89.8305 30.1858C90.0445 29.7247 90.1229 29.2119 90.0563 28.7077C89.9897 28.2036 89.781 27.7289 89.4547 27.3395ZM78.4626 29.9429C78.4634 30.1356 78.4102 30.3245 78.3091 30.4883C78.208 30.6521 78.0631 30.7841 77.8908 30.8694C77.7186 30.9547 77.5259 30.9898 77.3347 30.9706C77.1435 30.9515 76.9616 30.879 76.8095 30.7612C76.6574 30.6435 76.5414 30.4854 76.4746 30.3048C76.4078 30.1242 76.3929 29.9284 76.4317 29.7398C76.4704 29.5511 76.5612 29.3772 76.6937 29.2377C76.8262 29.0982 76.9951 28.9989 77.1812 28.951L77.2337 9.92238C76.9849 9.87359 76.7628 9.73463 76.6099 9.53205C76.4569 9.32947 76.3837 9.07748 76.4044 8.82424C76.425 8.571 76.5381 8.33428 76.7218 8.15931C76.9056 7.98434 77.1473 7.8834 77.4006 7.87578C77.654 7.86816 77.9012 7.95439 78.0951 8.118C78.2891 8.28162 78.416 8.51112 78.4518 8.76267C78.4876 9.01421 78.4296 9.27014 78.289 9.48155C78.1484 9.69296 77.935 9.84502 77.6897 9.90866L77.6372 28.9349C77.8696 28.9818 78.0787 29.1078 78.2291 29.2915C78.3795 29.4752 78.462 29.7053 78.4626 29.9429ZM87.6671 30.5144C87.3952 30.5138 87.1346 30.4052 86.9423 30.2125C86.75 30.0197 86.6417 29.7584 86.6411 29.4858C86.6408 29.283 86.7012 29.0848 86.8144 28.9167L82.9383 23.7258C82.6716 23.3765 82.5245 22.9503 82.5187 22.5105C82.513 22.0707 82.6489 21.6408 82.9064 21.2847L86.9033 15.7715C86.7332 15.584 86.6396 15.3393 86.6411 15.0858C86.6411 14.8824 86.7013 14.6835 86.814 14.5144C86.9268 14.3452 87.087 14.2134 87.2745 14.1355C87.462 14.0577 87.6682 14.0373 87.8673 14.077C88.0663 14.1167 88.2491 14.2146 88.3926 14.3585C88.5361 14.5023 88.6338 14.6856 88.6734 14.8851C88.713 15.0847 88.6927 15.2915 88.615 15.4794C88.5374 15.6674 88.4059 15.828 88.2371 15.941C88.0684 16.0541 87.87 16.1144 87.6671 16.1144C87.5308 16.115 87.3958 16.0878 87.2704 16.0344L83.278 21.5567C83.0793 21.8344 82.9745 22.1687 82.979 22.5105C82.9835 22.8523 83.0971 23.1837 83.3031 23.4561L87.1495 28.6081C87.3056 28.5131 87.4845 28.4626 87.6671 28.4618C87.9392 28.4618 88.2002 28.5702 88.3926 28.7631C88.585 28.956 88.6931 29.2176 88.6931 29.4904C88.6931 29.7632 88.585 30.0248 88.3926 30.2177C88.2002 30.4106 87.9392 30.519 87.6671 30.519V30.5144Z" fill="white"/>
<path d="M87.6672 15.6617C87.982 15.6617 88.2372 15.4058 88.2372 15.0902C88.2372 14.7746 87.982 14.5188 87.6672 14.5188C87.3524 14.5188 87.0972 14.7746 87.0972 15.0902C87.0972 15.4058 87.3524 15.6617 87.6672 15.6617Z" fill="white"/>
<path d="M77.4367 9.49027C77.5494 9.49027 77.6596 9.45676 77.7534 9.39397C77.8471 9.33118 77.9202 9.24193 77.9633 9.13752C78.0065 9.0331 78.0178 8.91821 77.9958 8.80736C77.9738 8.69651 77.9195 8.5947 77.8398 8.51478C77.76 8.43486 77.6585 8.38044 77.5479 8.35839C77.4373 8.33634 77.3227 8.34766 77.2186 8.39091C77.1144 8.43416 77.0254 8.5074 76.9628 8.60137C76.9001 8.69534 76.8667 8.80582 76.8667 8.91884C76.8667 9.07039 76.9268 9.21574 77.0337 9.3229C77.1405 9.43007 77.2855 9.49027 77.4367 9.49027Z" fill="white"/>
<path d="M77.2655 29.4058C77.1358 29.447 77.0251 29.5333 76.9533 29.6493C76.8816 29.7652 76.8536 29.903 76.8744 30.0378C76.8952 30.1726 76.9634 30.2956 77.0667 30.3843C77.17 30.4731 77.3016 30.5219 77.4377 30.5219C77.5738 30.5219 77.7054 30.4731 77.8087 30.3843C77.912 30.2956 77.9802 30.1726 78.001 30.0378C78.0218 29.903 77.9938 29.7652 77.922 29.6493C77.8503 29.5333 77.7396 29.447 77.6098 29.4058H77.2655Z" fill="white"/>
<path d="M87.6672 30.0618C87.982 30.0618 88.2372 29.806 88.2372 29.4904C88.2372 29.1748 87.982 28.9189 87.6672 28.9189C87.3524 28.9189 87.0972 29.1748 87.0972 29.4904C87.0972 29.806 87.3524 30.0618 87.6672 30.0618Z" fill="white"/>
<path d="M111.152 28.6902C111.466 28.6902 111.722 28.4344 111.722 28.1188C111.722 27.8032 111.466 27.5474 111.152 27.5474C110.837 27.5474 110.582 27.8032 110.582 28.1188C110.582 28.4344 110.837 28.6902 111.152 28.6902Z" fill="white"/>
<path d="M111.22 13.0399H110.787C110.44 13.0396 110.096 13.1079 109.776 13.2408C109.455 13.3737 109.164 13.5687 108.919 13.8145C108.674 14.0603 108.479 14.3522 108.347 14.6735C108.214 14.9948 108.146 15.3391 108.146 15.6868C107.586 14.7927 106.8 14.0638 105.866 13.5748C104.798 13.0219 103.609 12.746 102.408 12.7725C100.929 12.7537 99.4766 13.1598 98.2214 13.9428C96.94 14.7596 95.9131 15.9206 95.2573 17.2936C94.5323 18.7458 94.1705 20.4319 94.172 22.3519C94.1343 24.105 94.506 25.8427 95.2573 27.4262C95.9121 28.809 96.9385 29.9813 98.2214 30.8113C99.4611 31.6029 100.904 32.0158 102.373 31.9999C103.575 32.0271 104.765 31.7504 105.832 31.1953C106.775 30.7043 107.575 29.9776 108.156 29.0856C108.156 29.7876 108.434 30.4609 108.929 30.9572C109.424 31.4536 110.096 31.7325 110.796 31.7325H111.229C111.929 31.7325 112.601 31.4536 113.096 30.9572C113.591 30.4609 113.869 29.7876 113.869 29.0856V15.6868C113.87 15.3383 113.801 14.9933 113.668 14.6714C113.535 14.3495 113.34 14.0572 113.093 13.8113C112.847 13.5653 112.555 13.3705 112.233 13.2382C111.912 13.1058 111.567 13.0384 111.22 13.0399ZM103.513 15.6616C100.321 15.6616 96.9012 18.5096 96.9012 22.7473C96.8918 23.6205 97.0564 24.4867 97.3853 25.2952C97.7142 26.1037 98.2009 26.8382 98.8168 27.4556C99.4327 28.073 100.165 28.5609 100.972 28.8907C101.778 29.2204 102.642 29.3854 103.513 29.3759C105.741 29.3759 108.039 26.7153 109.56 24.9531L109.656 24.8433C109.778 24.6989 109.942 24.596 110.125 24.5489C110.308 24.5018 110.501 24.5129 110.677 24.5805C110.851 24.6443 111.001 24.7605 111.106 24.9131C111.212 25.0658 111.267 25.2474 111.265 25.4331V27.1016C111.516 27.1297 111.748 27.2492 111.916 27.4374C112.084 27.6256 112.177 27.8694 112.178 28.1221C112.178 28.3749 112.086 28.6189 111.918 28.8077C111.751 28.9965 111.519 29.1168 111.269 29.1457C111.018 29.1746 110.766 29.11 110.56 28.9643C110.354 28.8186 110.209 28.6019 110.152 28.3556C110.095 28.1094 110.131 27.8508 110.252 27.6292C110.373 27.4076 110.572 27.2385 110.809 27.1542V25.4331C110.812 25.3403 110.785 25.2491 110.733 25.1726C110.68 25.0962 110.605 25.0385 110.518 25.0079C110.428 24.9729 110.33 24.9671 110.237 24.9913C110.144 25.0155 110.061 25.0685 110 25.1428L109.907 25.2525C108.331 27.0811 105.951 29.8239 103.522 29.8239C102.591 29.834 101.668 29.6576 100.806 29.3051C99.9437 28.9526 99.1605 28.4311 98.5021 27.7711C97.8438 27.1111 97.3235 26.3259 96.9719 25.4617C96.6202 24.5975 96.4443 23.6715 96.4544 22.7382C96.4544 19.0971 99.2953 15.1953 103.522 15.1953C105.841 15.1953 108.103 17.4513 110.009 19.6571C110.07 19.7317 110.153 19.7852 110.246 19.8098C110.339 19.8344 110.437 19.829 110.527 19.7942C110.611 19.7623 110.683 19.7053 110.734 19.6309C110.784 19.5565 110.811 19.4682 110.809 19.3782V16.9713C110.57 16.8881 110.37 16.7194 110.247 16.4974C110.124 16.2754 110.086 16.0158 110.142 15.768C110.198 15.5203 110.343 15.3018 110.549 15.1543C110.755 15.0068 111.008 14.9406 111.26 14.9684C111.512 14.9961 111.745 15.1159 111.914 15.3048C112.083 15.4938 112.177 15.7386 112.178 15.9925C112.179 16.2465 112.086 16.4918 111.918 16.6817C111.749 16.8715 111.517 16.9925 111.265 17.0216V19.3782C111.265 19.5633 111.209 19.7439 111.104 19.8961C110.998 20.0484 110.85 20.1651 110.677 20.2308C110.501 20.2982 110.307 20.3088 110.124 20.2613C109.941 20.2138 109.778 20.1105 109.656 19.9656C107.816 17.8285 105.647 15.6616 103.513 15.6616ZM108.146 22.3862C108.146 23.8155 107.751 24.9432 106.961 25.7691C106.588 26.162 106.139 26.4746 105.641 26.6877C105.143 26.9008 104.607 27.0099 104.066 27.0084C103.525 27.0069 102.99 26.8948 102.493 26.679C101.997 26.4631 101.55 26.1481 101.179 25.7531C100.388 24.9134 99.993 23.7797 99.993 22.3519C99.993 20.5782 100.601 19.2769 101.817 18.4479C102.512 17.9809 103.334 17.7414 104.17 17.7622C104.694 17.7676 105.212 17.8803 105.691 18.0934C106.17 18.3064 106.6 18.6153 106.956 19.0011C107.748 19.8285 108.145 20.9569 108.146 22.3862Z" fill="white"/>
<path d="M111.152 16.576C111.466 16.576 111.722 16.3201 111.722 16.0045C111.722 15.6889 111.466 15.4331 111.152 15.4331C110.837 15.4331 110.582 15.6889 110.582 16.0045C110.582 16.3201 110.837 16.576 111.152 16.576Z" fill="white"/>
<path d="M44.3464 28.6902C44.6612 28.6902 44.9164 28.4344 44.9164 28.1188C44.9164 27.8032 44.6612 27.5474 44.3464 27.5474C44.0316 27.5474 43.7764 27.8032 43.7764 28.1188C43.7764 28.4344 44.0316 28.6902 44.3464 28.6902Z" fill="white"/>
<path d="M44.5063 13.04H43.9727C43.6325 13.0397 43.2956 13.1067 42.9812 13.2371C42.6668 13.3674 42.3812 13.5587 42.1406 13.7999C41.9 14.041 41.7092 14.3274 41.5792 14.6426C41.4491 14.9577 41.3823 15.2955 41.3826 15.6366C41.3812 15.639 41.3792 15.6409 41.3768 15.6423C41.3744 15.6436 41.3717 15.6444 41.3689 15.6444C41.3662 15.6444 41.3635 15.6436 41.3611 15.6423C41.3587 15.6409 41.3567 15.639 41.3553 15.6366C40.7941 14.7641 40.0141 14.0548 39.0935 13.5795C38.0256 13.0263 36.8364 12.7504 35.6346 12.7772C34.1623 12.7601 32.7156 13.1645 31.4645 13.9429C30.1836 14.7604 29.1568 15.9212 28.5004 17.2937C27.7498 18.8718 27.3781 20.6041 27.4151 22.352C27.3782 24.1058 27.7498 25.844 28.5004 27.4286C29.1551 28.8114 30.1816 29.9837 31.4645 30.8137C32.7022 31.6039 34.1422 32.0168 35.6096 32.0023C36.8109 32.0294 37.9996 31.7527 39.0661 31.1977C39.9925 30.7175 40.7824 30.0098 41.3621 29.1406C41.3621 29.137 41.3635 29.1335 41.3661 29.1309C41.3687 29.1283 41.3722 29.1269 41.3758 29.1269C41.3794 29.1269 41.3829 29.1283 41.3855 29.1309C41.388 29.1335 41.3895 29.137 41.3895 29.1406C41.3895 29.8295 41.6623 30.4901 42.1479 30.9775C42.6336 31.4648 43.2924 31.7388 43.9796 31.7395H44.5131C45.2003 31.7388 45.8591 31.4648 46.3447 30.9775C46.8304 30.4901 47.1032 29.8295 47.1032 29.1406V15.6549C47.1059 15.3117 47.0407 14.9714 46.9113 14.6537C46.7819 14.3359 46.5909 14.0471 46.3494 13.8039C46.1078 13.5607 45.8205 13.3679 45.5042 13.2368C45.1878 13.1057 44.8486 13.0388 44.5063 13.04ZM36.7085 15.6617C33.5165 15.6617 30.0964 18.5097 30.0964 22.7475C30.087 23.6206 30.2515 24.4868 30.5805 25.2953C30.9094 26.1038 31.3961 26.8383 32.012 27.4557C32.6279 28.0731 33.3606 28.561 34.167 28.8908C34.9735 29.2205 35.8376 29.3855 36.7085 29.376C38.9361 29.376 41.2344 26.7155 42.7552 24.9532L42.851 24.8435C42.9731 24.699 43.137 24.5961 43.3199 24.549C43.5029 24.5019 43.696 24.513 43.8724 24.5806C44.0463 24.6444 44.1963 24.7606 44.3016 24.9132C44.4069 25.0659 44.4625 25.2475 44.4607 25.4332V27.1017C44.7112 27.1298 44.9427 27.2493 45.111 27.4375C45.2793 27.6257 45.3725 27.8695 45.3729 28.1222C45.3734 28.375 45.2809 28.619 45.1133 28.8078C44.9457 28.9966 44.7146 29.1169 44.4641 29.1458C44.2137 29.1747 43.9614 29.1101 43.7554 28.9644C43.5494 28.8187 43.4041 28.602 43.3473 28.3557C43.2905 28.1095 43.3261 27.8509 43.4473 27.6293C43.5686 27.4077 43.767 27.2386 44.0047 27.1543V25.4332C44.0074 25.3404 43.9806 25.2492 43.9281 25.1727C43.8756 25.0963 43.8002 25.0386 43.7128 25.008C43.6234 24.973 43.5252 24.9672 43.4322 24.9914C43.3393 25.0156 43.2564 25.0686 43.1952 25.1429L43.1018 25.2526C41.5263 27.0812 39.1459 29.824 36.7177 29.824C35.7867 29.8341 34.863 29.6577 34.0009 29.3052C33.1388 28.9527 32.3557 28.4312 31.6973 27.7712C31.039 27.1112 30.5187 26.326 30.1671 25.4618C29.8154 24.5976 29.6395 23.6716 29.6495 22.7383C29.6495 19.0972 32.4905 15.1955 36.7177 15.1955C39.0365 15.1955 41.2983 17.4515 43.2044 19.6572C43.2652 19.7318 43.348 19.7853 43.441 19.8099C43.5339 19.8345 43.6323 19.8291 43.7219 19.7943C43.8059 19.7624 43.8781 19.7054 43.9287 19.631C43.9793 19.5566 44.0058 19.4684 44.0047 19.3783V16.9715C43.7653 16.8882 43.565 16.7195 43.4418 16.4975C43.3187 16.2755 43.2815 16.0159 43.3372 15.7681C43.3929 15.5204 43.5377 15.3019 43.7439 15.1544C43.9502 15.0069 44.2034 14.9407 44.4552 14.9685C44.707 14.9962 44.9398 15.116 45.1091 15.3049C45.2785 15.4939 45.3724 15.7387 45.3731 15.9927C45.3738 16.2466 45.2811 16.4919 45.1128 16.6818C44.9445 16.8716 44.7123 16.9926 44.4607 17.0217V19.3783C44.4602 19.5634 44.4038 19.744 44.2987 19.8963C44.1937 20.0485 44.045 20.1652 43.8724 20.2309C43.6957 20.2983 43.5026 20.3089 43.3196 20.2614C43.1366 20.2139 42.9728 20.1106 42.851 19.9657C41.011 17.8286 38.8427 15.6617 36.7085 15.6617ZM41.3826 22.3863C41.3826 23.8156 40.9874 24.9433 40.197 25.7692C39.8239 26.1621 39.3748 26.4747 38.8771 26.6878C38.3794 26.9009 37.8436 27.01 37.3025 27.0085C36.7613 27.007 36.2261 26.8949 35.7296 26.6791C35.2331 26.4632 34.7858 26.1482 34.4148 25.7532C33.6244 24.9135 33.2292 23.7798 33.2292 22.352C33.2292 20.6758 33.7764 19.4195 34.8708 18.5829C35.6707 17.983 36.6613 17.6961 37.657 17.776C38.6284 17.8472 39.5364 18.286 40.197 19.0035C40.9859 19.8294 41.3811 20.957 41.3826 22.3863Z" fill="white"/>
<path d="M44.3464 16.576C44.6612 16.576 44.9164 16.3201 44.9164 16.0045C44.9164 15.6889 44.6612 15.4331 44.3464 15.4331C44.0316 15.4331 43.7764 15.6889 43.7764 16.0045C43.7764 16.3201 44.0316 16.576 44.3464 16.576Z" fill="white"/>
</svg>
