<svg xmlns="http://www.w3.org/2000/svg" viewBox="0 0 302.74 140.24"><defs><style>.cls-1{font-size:108.31px;font-family:TimesNewRomanPS-BoldMT, Times New Roman;font-weight:700;}.cls-2{letter-spacing:-0.02em;}.cls-3{font-size:53.45px;font-family:Calibri;}</style></defs><g id="Layer_2" data-name="Layer 2"><g id="Calque_1" data-name="Calque 1"><text class="cls-1" transform="translate(30.38 107.02) scale(0.83 1)">SM<tspan class="cls-2" x="162.47" y="0">T</tspan></text><rect x="0.01" y="17.71" width="25.64" height="92.6"/><path d="M214,0H0V30H214A9,9,0,0,0,223,21.07V9A8.94,8.94,0,0,0,214,0Zm2.81,18a7.33,7.33,0,0,1-7.33,7.33H42.41A7.33,7.33,0,0,1,35.08,18V12A7.33,7.33,0,0,1,42.41,4.7H209.5A7.33,7.33,0,0,1,216.83,12Z"/><text class="cls-3" transform="translate(235.1 107.02) scale(0.83 1)">Sarl</text></g></g></svg>