<svg width="436" height="401" viewBox="0 0 436 401" fill="none" xmlns="http://www.w3.org/2000/svg">
<g clip-path="url(#clip0_438_13357)">
<path d="M307.144 320.081C363.625 263.5 363.625 171.765 307.144 115.184C250.663 58.6036 159.089 58.6036 102.608 115.184C46.1266 171.765 46.1266 263.5 102.608 320.081C159.089 376.662 250.663 376.662 307.144 320.081Z" fill="#C17BD8"/>
<path d="M426.509 1.35828L414.758 91.3078L385.078 81.1961L376.491 106.4L363.836 71.537L328.431 61.5762L426.509 1.35828Z" fill="#BC08F8"/>
<path d="M378.449 78.9322L414.758 91.3078L385.078 81.196L376.491 106.4L363.836 71.537L404.061 29.2788L378.449 78.9322Z" fill="#8815AD"/>
<path d="M366.999 79.9886L404.061 29.2788L363.836 71.537L366.999 79.9886Z" fill="#8815AD"/>
<path d="M378.6 116.512C378.449 114.852 378.299 113.192 378.299 111.531H375.738C375.738 113.192 375.888 115.003 376.039 116.663L378.6 116.512Z" fill="#D0B6FF"/>
<path d="M421.386 160.732C424.4 159.675 427.111 157.864 429.221 155.45L431.179 157.11C428.919 159.826 425.755 161.939 422.29 163.147L421.386 160.732ZM401.801 159.977L403.157 157.864C406.17 159.826 409.183 161.034 412.046 161.487L411.594 163.901C408.43 163.449 405.116 162.09 401.801 159.977ZM433.138 146.998C433.59 144.281 433.59 141.414 432.836 138.697C432.836 138.546 432.686 138.245 432.686 138.094L432.535 137.641L434.946 136.735L435.096 137.188C435.247 137.49 435.247 137.641 435.247 137.943C436.151 140.961 436.151 144.131 435.699 147.3L433.138 146.998ZM331.595 175.673L331.143 173.258C334.458 172.655 337.772 171.749 340.936 170.995L341.538 173.409C338.375 174.164 335.06 175.07 331.595 175.673ZM350.427 167.825L351.934 167.222C354.796 166.165 357.357 165.109 359.768 163.901L360.822 166.165C358.412 167.373 355.7 168.429 352.838 169.485L351.331 170.089L350.427 167.825ZM311.407 178.541L311.256 175.975C314.722 175.673 318.036 175.371 321.2 174.919L321.501 177.484C318.337 177.937 314.872 178.239 311.407 178.541ZM368.355 159.072C370.766 157.412 373.026 155.601 374.984 153.639C375.285 153.337 375.587 153.035 375.888 152.733L377.696 154.393C377.395 154.695 377.093 154.997 376.792 155.45C374.683 157.563 372.423 159.374 369.862 161.185L368.355 159.072ZM387.037 145.489L389.146 143.98C391.104 146.696 393.214 149.262 395.624 151.526L393.816 153.337C391.255 151.073 388.995 148.356 387.037 145.489ZM291.068 179.295V176.73C294.534 176.73 297.848 176.73 301.162 176.579L301.313 179.144C297.999 179.295 294.534 179.295 291.068 179.295ZM270.73 178.541L270.881 175.975C274.195 176.277 277.66 176.428 280.975 176.579L280.824 179.144C277.509 178.843 274.044 178.692 270.73 178.541ZM382.216 145.036C384.024 142.772 385.982 140.207 388.393 137.943C388.694 137.641 388.845 137.49 389.146 137.188L390.803 138.999L390.05 139.603C387.79 141.716 385.982 144.131 384.174 146.394L382.216 145.036ZM417.62 128.736L417.771 126.171C421.989 126.171 425.303 126.925 428.015 128.435L426.81 130.698C424.55 129.34 421.537 128.736 417.62 128.736ZM397.583 131.151C400.596 129.491 403.91 128.284 407.225 127.378L407.827 129.793L406.773 130.095C403.91 130.849 401.198 132.057 398.637 133.415L397.583 131.151ZM378.148 126.925L380.558 126.171C381.462 129.34 382.668 132.51 384.024 135.377L381.764 136.433C380.257 133.566 379.052 130.246 378.148 126.925Z" fill="#D0B6FF"/>
<path d="M260.485 177.635L260.787 175.07C259.129 174.919 257.472 174.768 255.815 174.617L255.514 177.183C257.171 177.333 258.828 177.484 260.485 177.635Z" fill="#D0B6FF"/>
<path d="M393.364 10.8664L368.054 24.7513C366.698 25.5059 366.246 27.0151 366.999 28.3734L367.15 28.8261C367.903 30.1844 369.561 30.6372 370.766 29.8826L395.775 15.545C397.131 14.7904 397.583 13.1303 396.679 11.772C396.227 10.5646 394.57 10.2627 393.364 10.8664Z" fill="#D0B6FF"/>
<path d="M63.7278 309.088C58.1535 309.088 53.6338 313.616 53.6338 319.2C53.6338 324.784 58.1535 329.312 63.7278 329.312C69.3021 329.312 73.8218 324.784 73.8218 319.2C73.8218 313.616 69.3021 309.088 63.7278 309.088ZM63.7278 323.275C61.4679 323.275 59.66 321.464 59.66 319.2C59.66 316.936 61.4679 315.125 63.7278 315.125C65.9876 315.125 67.7955 316.936 67.7955 319.2C67.7955 321.464 65.9876 323.275 63.7278 323.275Z" fill="#EADEFF"/>
<path d="M334.909 335.802C329.335 335.802 324.815 340.329 324.815 345.913C324.815 351.498 329.335 356.025 334.909 356.025C340.484 356.025 345.003 351.498 345.003 345.913C345.003 340.329 340.484 335.802 334.909 335.802ZM334.909 350.139C332.65 350.139 330.842 348.328 330.842 346.064C330.842 343.801 332.65 341.989 334.909 341.989C337.169 341.989 338.977 343.801 338.977 346.064C338.977 348.328 337.169 350.139 334.909 350.139Z" fill="#EADEFF"/>
<path d="M412.046 203.745C407.827 203.745 404.362 207.216 404.362 211.442C404.362 215.668 407.827 219.139 412.046 219.139C416.264 219.139 419.729 215.668 419.729 211.442C419.729 207.216 416.264 203.745 412.046 203.745ZM412.046 214.611C410.388 214.611 408.882 213.253 408.882 211.442C408.882 209.782 410.238 208.273 412.046 208.273C413.853 208.273 415.209 209.631 415.209 211.442C415.209 213.253 413.853 214.611 412.046 214.611Z" fill="#EADEFF"/>
<path d="M260.786 32.1465C256.267 32.1465 252.651 35.7686 252.651 40.2963C252.651 44.8239 256.267 48.4461 260.786 48.4461C265.306 48.4461 268.922 44.8239 268.922 40.2963C268.922 35.7686 265.306 32.1465 260.786 32.1465ZM260.786 43.6166C258.979 43.6166 257.472 42.1073 257.472 40.2963C257.472 38.4852 258.979 36.976 260.786 36.976C262.594 36.976 264.101 38.4852 264.101 40.2963C264.101 42.1073 262.594 43.6166 260.786 43.6166Z" fill="#EADEFF"/>
<path d="M19.2841 245.399C14.4631 245.399 10.6967 249.323 10.6967 254.002C10.6967 258.831 14.6137 262.605 19.2841 262.605C24.1051 262.605 27.8715 258.681 27.8715 254.002C27.8715 249.323 23.9544 245.399 19.2841 245.399Z" fill="#EADEFF"/>
<path d="M364.739 274.075C361.274 274.075 358.412 276.942 358.412 280.413C358.412 283.885 361.274 286.752 364.739 286.752C368.205 286.752 371.067 283.885 371.067 280.413C371.067 276.791 368.205 274.075 364.739 274.075Z" fill="#EADEFF"/>
<path d="M227.943 10.5646C222.821 10.5646 218.753 14.6395 218.753 19.7708C218.753 24.9022 222.821 28.9771 227.943 28.9771C233.066 28.9771 237.133 24.9022 237.133 19.7708C236.983 14.6395 232.915 10.5646 227.943 10.5646Z" fill="#EADEFF"/>
<path d="M27.8716 329.161C24.2558 329.161 21.2427 332.18 21.2427 335.802C21.2427 339.424 24.2558 342.442 27.8716 342.442C31.4873 342.442 34.5004 339.424 34.5004 335.802C34.5004 332.18 31.4873 329.161 27.8716 329.161Z" fill="#EADEFF"/>
<path d="M331.143 82.4034C326.774 82.4034 323.309 85.8747 323.309 90.2514C323.309 94.6281 326.774 98.0993 331.143 98.0993C335.512 98.0993 338.977 94.6281 338.977 90.2514C338.977 86.0256 335.512 82.4034 331.143 82.4034Z" fill="#EADEFF"/>
<path d="M50.9219 161.487C53.4181 161.487 55.4416 159.46 55.4416 156.959C55.4416 154.458 53.4181 152.431 50.9219 152.431C48.4258 152.431 46.4022 154.458 46.4022 156.959C46.4022 159.46 48.4258 161.487 50.9219 161.487Z" fill="#EADEFF"/>
<path d="M371.067 225.93C366.849 225.93 363.534 229.402 363.534 233.477C363.534 237.702 366.999 241.023 371.067 241.023C375.285 241.023 378.6 237.551 378.6 233.477C378.6 229.402 375.285 225.93 371.067 225.93Z" fill="#EADEFF"/>
<path d="M14.915 189.256C17.5776 189.256 19.736 187.094 19.736 184.427C19.736 181.76 17.5776 179.597 14.915 179.597C12.2524 179.597 10.094 181.76 10.094 184.427C10.094 187.094 12.2524 189.256 14.915 189.256Z" fill="#EADEFF"/>
<path d="M194.648 53.8792L197.661 50.8608C198.716 49.8043 198.716 48.1442 197.661 47.0878C196.607 46.0313 194.95 46.0313 193.895 47.0878L190.882 50.1062L187.869 47.0878C186.814 46.0313 185.157 46.0313 184.102 47.0878C183.048 48.1442 183.048 49.8043 184.102 50.8608L187.115 53.8792L184.102 56.8977C183.048 57.9541 183.048 59.6143 184.102 60.6707C185.157 61.7272 186.814 61.7272 187.869 60.6707L190.882 57.6523L193.895 60.6707C194.95 61.7272 196.607 61.7272 197.661 60.6707C198.716 59.6143 198.716 57.9541 197.661 56.8977L194.648 53.8792Z" fill="#EADEFF"/>
<path d="M11.4499 132.811L14.4631 129.793C15.5177 128.737 15.5177 127.076 14.4631 126.02C13.4085 124.964 11.7513 124.964 10.6967 126.02L7.68353 129.038L4.6704 126.02C3.6158 124.964 1.95858 124.964 0.903984 126.02C-0.150612 127.076 -0.150612 128.737 0.903984 129.793L3.91711 132.811L0.903984 135.83C-0.150612 136.886 -0.150612 138.547 0.903984 139.603C1.95858 140.659 3.6158 140.659 4.6704 139.603L7.68353 136.585L10.6967 139.603C11.7513 140.659 13.4085 140.659 14.4631 139.603C15.5177 138.547 15.5177 136.886 14.4631 135.83L11.4499 132.811Z" fill="#EADEFF"/>
<path d="M370.916 319.2L373.477 316.635C374.381 315.729 374.381 314.22 373.477 313.314C372.574 312.409 371.067 312.409 370.163 313.314L367.602 315.88L365.041 313.314C364.137 312.409 362.63 312.409 361.726 313.314C360.822 314.22 360.822 315.729 361.726 316.635L364.287 319.2L361.726 321.766C360.822 322.671 360.822 324.181 361.726 325.086C362.63 325.992 364.137 325.992 365.041 325.086L367.602 322.521L370.163 325.086C371.067 325.992 372.574 325.992 373.477 325.086C374.381 324.181 374.381 322.671 373.477 321.766L370.916 319.2Z" fill="#EADEFF"/>
<path d="M317.433 273.924L200.223 343.197L82.8611 273.924V273.773C83.0117 273.32 89.49 267.887 99.2826 259.888C99.4333 259.737 99.4333 259.737 99.584 259.586C131.975 233.175 200.072 179.295 200.072 179.295C200.072 179.295 268.169 233.175 300.56 259.586C310.654 267.736 317.132 273.169 317.283 273.773C317.433 273.773 317.433 273.924 317.433 273.924Z" fill="#8815AD"/>
<path d="M248.282 121.945H121.73C110.883 121.945 102.145 130.699 102.145 141.565V333.236C102.145 344.102 110.883 352.856 121.73 352.856H280.221C291.068 352.856 299.807 344.102 299.807 333.236V173.711L248.282 121.945Z" fill="white"/>
<path d="M248.282 154.091C248.282 164.958 257.02 173.711 267.867 173.711H299.957L248.282 121.945V154.091Z" fill="#E5E6E6"/>
<path d="M182.746 154.393H139.056C135.139 154.393 132.126 157.563 132.126 161.336V205.103C132.126 209.027 135.29 212.046 139.056 212.046H182.746C186.663 212.046 189.677 208.876 189.677 205.103V161.336C189.677 157.563 186.513 154.393 182.746 154.393Z" fill="#EADEFF"/>
<path d="M242.557 228.194H137.851C134.687 228.194 132.276 230.76 132.276 233.778C132.276 236.948 134.838 239.362 137.851 239.362H242.557C245.721 239.362 248.131 236.797 248.131 233.778C248.131 230.76 245.57 228.194 242.557 228.194Z" fill="#D8D9D9"/>
<path d="M242.557 256.417H137.851C134.687 256.417 132.276 258.982 132.276 262.001C132.276 265.17 134.838 267.585 137.851 267.585H242.557C245.721 267.585 248.131 265.019 248.131 262.001C248.131 258.831 245.57 256.417 242.557 256.417Z" fill="#D8D9D9"/>
<path d="M194.95 283.734H137.7C134.536 283.734 132.126 286.299 132.126 289.318C132.126 292.487 134.687 294.902 137.7 294.902H194.95C198.113 294.902 200.524 292.336 200.524 289.318C200.524 286.148 198.113 283.734 194.95 283.734Z" fill="#D8D9D9"/>
<path d="M317.433 273.924V386.662C317.433 394.51 310.955 401 303.121 401H97.0228C89.1887 401 82.7104 394.51 82.7104 386.662V273.924L199.921 343.197L317.433 273.924Z" fill="#F4D1FF"/>
<path d="M313.366 396.472L237.887 320.86L200.072 343.197L162.257 320.86L86.7782 396.472C89.3394 399.189 92.9551 401 97.0228 401H302.97C307.189 401 310.804 399.189 313.366 396.472Z" fill="#C17BD8"/>
<path d="M67.3435 139.301C68.85 139.754 70.5072 138.848 71.1099 137.339C71.7125 135.679 70.9592 134.019 69.302 133.415C51.8258 126.775 37.5135 113.644 29.2274 96.4393C28.4741 94.9301 26.6662 94.3264 25.1596 94.9301C23.6531 95.6847 22.8998 97.4957 23.6531 99.005C32.6925 117.719 48.0594 131.906 67.0421 139.15C67.1928 139.301 67.3435 139.301 67.3435 139.301Z" fill="#D0B6FF"/>
<path d="M120.676 4.37671C149.753 15.5449 166.927 46.7858 160.901 77.423C157.888 92.6661 149.903 105.344 139.056 114.55C134.988 118.021 133.03 123.303 133.632 128.586L135.29 141.867L116.608 131.151C113.595 129.34 109.979 128.736 106.514 129.189C96.1188 130.698 84.9703 129.642 74.2737 125.567C45.6489 114.701 28.4741 84.3654 33.5964 54.181C40.5266 13.583 82.4091 -10.2627 120.676 4.37671Z" fill="#D0B6FF"/>
<path d="M87.2301 95.9865L84.669 91.6097C84.669 91.6097 89.1887 85.8747 80.7519 71.9899C75.7802 63.6892 75.9309 57.0486 77.8894 52.0682C81.0532 44.2202 89.49 39.3907 97.7761 40.749C103.049 41.6545 108.925 44.8239 113.444 53.4265C121.128 67.7641 128.359 66.8585 128.359 66.8585L130.921 71.2353L87.2301 95.9865Z" fill="white"/>
<path d="M119.471 82.2526C121.128 86.7802 119.471 91.9116 115.252 94.3263C111.034 96.7411 105.61 95.6846 102.748 91.9116L119.471 82.2526Z" fill="white"/>
<path d="M78.6427 39.8435L80.1493 42.5601C82.5598 40.2962 85.4223 38.787 88.5861 37.7306L87.0795 35.014C85.7236 32.7501 82.8611 31.8446 80.4506 33.2029C78.0401 34.5612 77.2868 37.5796 78.6427 39.8435Z" fill="white"/>
<path d="M116.156 2.86755C92.0511 3.32031 70.2059 19.6199 63.577 44.0693C55.4416 73.9519 72.9177 104.74 102.748 112.89C118.416 117.116 134.386 114.248 147.191 106.249C144.781 109.268 142.069 111.984 139.056 114.399C134.988 117.87 133.03 123.152 133.632 128.435L135.29 141.716L116.608 131C113.595 129.189 109.979 128.586 106.514 129.038C96.1188 130.548 84.9703 129.491 74.2737 125.416C45.6489 114.55 28.4741 84.2145 33.5964 54.0301C40.3759 15.0922 79.0947 -8.45161 116.156 2.86755Z" fill="#B48AF9"/>
</g>
<defs>
<clipPath id="clip0_438_13357">
<rect width="436" height="401" fill="white"/>
</clipPath>
</defs>
</svg>
