<svg xmlns="http://www.w3.org/2000/svg" viewBox="0 0 265.94 234.84"><defs><style>.cls-1{fill:#fa0301;}</style></defs><g id="Layer_2" data-name="Layer 2"><g id="Layer_1-2" data-name="Layer 1"><path class="cls-1" d="M146.48.36Q139.82,0,133,0C59.53,0,0,31.6,0,73.5s59.53,75.87,133,75.87,133-34,133-75.87C265.94,34.2,213.57,4,146.48.36Zm-4.64,138.57,65-56.62a7.37,7.37,0,0,0,2.52-5.55V73.9a7.36,7.36,0,0,0-3.23-6.09l-36-24.41a1.2,1.2,0,0,0-1.86,1.22L172.42,66,92,134.36c-40-9.89-68.56-33.73-68.56-59.67,0-34.07,48.4-64.5,108.1-64.5,1.24,0,2.47,0,3.71,0L70.16,67.48a9.16,9.16,0,0,0-3.1,6.86v1.27a9.13,9.13,0,0,0,3.84,7.44L89.81,96.51l13.57,9.66a1.61,1.61,0,0,0,2.54-1.46L104,84.33l77.85-66.64c35.51,11.1,60.58,33.16,60.58,57C242.47,106.94,197.31,135.94,141.84,138.93Z"/><path d="M12.14,230.33q-6.26-4.52-6.78-13.24h17.9q.38,4.64,4.09,4.63a4,4,0,0,0,2.31-.64,2.24,2.24,0,0,0,.95-2A3.49,3.49,0,0,0,28.56,216a40.55,40.55,0,0,0-6.37-2.69,68.6,68.6,0,0,1-8.53-3.56,16.56,16.56,0,0,1-5.8-5.08,13.85,13.85,0,0,1-2.35-8.57,14.69,14.69,0,0,1,2.69-8.91,16.66,16.66,0,0,1,7.36-5.58,27.75,27.75,0,0,1,10.5-1.89q9.86,0,15.66,4.55t6.11,12.81H29.7a4.5,4.5,0,0,0-1.14-3.26,3.6,3.6,0,0,0-2.57-1,2.31,2.31,0,0,0-1.75.72,2.83,2.83,0,0,0-.68,2,3.44,3.44,0,0,0,2,3A45.77,45.77,0,0,0,32,201.4,71.26,71.26,0,0,1,40.36,205a17.73,17.73,0,0,1,5.72,4.85,12.3,12.3,0,0,1,2.43,7.81A15.92,15.92,0,0,1,39,232.64a25.34,25.34,0,0,1-11,2.2Q18.4,234.84,12.14,230.33Z"/><path d="M88.86,226.2H71l-2.66,8.11H50.63l19.65-53.69H89.69l19.57,53.69H91.51Zm-4.1-12.67-4.85-14.94-4.86,14.94Z"/><path d="M164.55,234.31H147.71l-17.82-27v27H113.05V180.62h16.84l17.82,27.45V180.62h16.84Z"/><path d="M189,180.62v53.69H172.13V180.62Z"/><path d="M213.39,221.57h16.22v12.74H196.55V180.62h16.84Z"/><path d="M251.76,180.62v53.69H234.92V180.62Z"/></g></g></svg>