<svg xmlns="http://www.w3.org/2000/svg" viewBox="0 0 368.4 137.62"><defs><style>.cls-1,.cls-7{fill:#03a557;}.cls-2,.cls-3{fill:#0c3b59;}.cls-3{font-size:51.8px;font-family:Rockwell-Bold, Rockwell;font-weight:700;}.cls-4{letter-spacing:-0.02em;}.cls-5{letter-spacing:-0.01em;}.cls-6{letter-spacing:0em;}.cls-7{font-size:48.85px;font-family:ClaireMurphy-Regular, Claire Murphy;}.cls-8{letter-spacing:-0.03em;}</style></defs><g id="Layer_2" data-name="Layer 2"><g id="Layer_1-2" data-name="Layer 1"><path class="cls-1" d="M337.48,0S311.8,28.31,296.91,36.19c-14.6,7.73-29.77,7.3-44.94,16.93s-46.12,46.7-46.12,46.7,27.35-23.39,51.08-30.65c24.81-7.59,33.45-9,48.92-22.09S337.48,0,337.48,0Z"/><path class="cls-2" d="M357,15.79S331.33,44.1,316.45,52c-14.61,7.73-29.78,7.29-44.95,16.93s-46.12,46.7-46.12,46.7S252.73,92.22,276.46,85c24.81-7.59,33.45-9,48.92-22.1S357,15.79,357,15.79Z"/><path class="cls-1" d="M368.4,33.59S342.71,61.9,327.83,69.78c-14.61,7.73-29.77,7.3-44.95,16.93s-46.12,46.7-46.12,46.7,27.36-23.39,51.08-30.65c24.81-7.59,33.45-9,48.92-22.09S368.4,33.59,368.4,33.59Z"/><text class="cls-3" transform="translate(0 58.84)">T<tspan class="cls-4" x="38.02" y="0">h</tspan><tspan x="71.83" y="0">e Be</tspan><tspan class="cls-5" x="188.15" y="0">s</tspan><tspan class="cls-6" x="214.61" y="0">t</tspan></text><text class="cls-7" transform="translate(24.07 100.64)"><tspan class="cls-8">v</tspan><tspan x="26.62" y="0">oyage</tspan></text></g></g></svg>